<svg width="1170" height="212" viewBox="0 0 1170 212" fill="none" xmlns="http://www.w3.org/2000/svg">
<mask id="mask0_1158_5217" style="mask-type:alpha" maskUnits="userSpaceOnUse" x="0" y="0" width="1170" height="212">
<rect width="1170" height="212" fill="#FE8C12"/>
</mask>
<g mask="url(#mask0_1158_5217)">
<rect width="1170" height="212" fill="#FE8C12"/>
<g opacity="0.05">
<path d="M964.761 345.166L1139.49 170.44L1142.81 173.764L967.61 348.015L964.761 345.166Z" fill="white"/>
<path d="M951.013 331.395L1125.74 156.669L1129.06 159.992L953.862 334.244L951.013 331.395Z" fill="white"/>
<path d="M1177.01 121.056L1056.41 241.181L1057.83 242.605L1177.01 123.905L1177.01 121.056Z" fill="white"/>
<path d="M1101.05 227.416L1126.69 201.301L1128.11 203.201L1102.47 228.84L1101.05 227.416Z" fill="white"/>
<path d="M998.478 267.772L1076.82 189.43L1078.24 190.855L999.903 269.197L998.478 267.772Z" fill="white"/>
<path d="M1177.01 47.4624L1073.5 150.969L1076.35 153.818L1177.01 53.6348L1177.01 47.4624Z" fill="white"/>
<path d="M1177.01 19.9278L1059.73 137.203L1062.58 140.052L1177.01 26.1002L1177.01 19.9278Z" fill="white"/>
<path d="M1089.64 122.481L1115.28 96.8414L1116.71 98.2658L1091.07 123.905L1089.64 122.481Z" fill="white"/>
<path d="M1177.01 3.78488L1107.21 73.5805L1108.64 75.0049L1177.01 7.10847L1177.01 3.78488Z" fill="white"/>
<path d="M1025.55 214.12L1170.37 69.3055L1171.79 71.2047L1026.98 215.544L1025.55 214.12Z" fill="white"/>
<path d="M898.768 312.876L1051.18 160.465L1052.6 162.364L900.193 314.3L898.768 312.876Z" fill="white"/>
<path d="M1177.01 -22.8031L1097.24 56.4885L1098.66 57.9128L1177.01 -19.9543L1177.01 -22.8031Z" fill="white"/>
<path d="M878.843 259.225L1053.57 84.9737L1056.89 87.8224L881.691 262.549L878.843 259.225Z" fill="white"/>
<path d="M865.072 245.454L1039.8 71.2024L1043.12 74.0512L867.92 248.778L865.072 245.454Z" fill="white"/>
<path d="M970.464 155.245L1123.35 3.30881L1124.77 4.73325L971.888 156.669L970.464 155.245Z" fill="white"/>
<path d="M1014.63 141.474L1040.75 115.835L1042.17 117.259L1016.53 142.898L1014.63 141.474Z" fill="white"/>
<path d="M894.97 231.212L920.609 205.098L922.034 206.997L896.394 232.636L894.97 231.212Z" fill="white"/>
<path d="M912.537 181.831L990.879 103.964L992.303 105.388L913.961 183.255L912.537 181.831Z" fill="white"/>
<path d="M830.879 322.851L975.693 178.037L977.118 179.461L832.304 324.275L830.879 322.851Z" fill="white"/>
<path d="M987.551 65.0336L1162.75 -109.218L1165.6 -106.369L990.399 68.3572L987.551 65.0336Z" fill="white"/>
<path d="M973.803 51.2621L1148.53 -122.99L1151.85 -120.141L976.651 54.1108L973.803 51.2621Z" fill="white"/>
<path d="M1003.7 37.0202L1029.34 10.9062L1030.76 12.3306L1005.13 38.4446L1003.7 37.0202Z" fill="white"/>
<path d="M939.611 128.653L1084.42 -16.1608L1085.85 -14.7363L941.035 130.078L939.611 128.653Z" fill="white"/>
<path d="M720.73 331.395L895.931 156.669L898.78 159.518L724.054 334.244L720.73 331.395Z" fill="white"/>
<path d="M706.959 317.624L882.16 142.898L885.009 145.746L709.808 320.473L706.959 317.624Z" fill="white"/>
<path d="M812.827 227.416L965.238 75.0047L966.662 76.4291L814.251 228.84L812.827 227.416Z" fill="white"/>
<path d="M856.995 213.17L882.635 187.53L884.059 188.955L858.42 215.069L856.995 213.17Z" fill="white"/>
<path d="M754.911 254.001L832.779 175.659L834.678 177.084L756.336 255.426L754.911 254.001Z" fill="white"/>
<path d="M792.901 173.764L967.628 -0.962158L970.951 1.8867L795.75 176.613L792.901 173.764Z" fill="white"/>
<path d="M779.13 159.993L953.857 -14.7334L957.18 -11.8846L781.979 162.842L779.13 159.993Z" fill="white"/>
<path d="M884.523 69.7785L1037.41 -82.6323L1038.83 -81.2079L885.947 71.2029L884.523 69.7785Z" fill="white"/>
<path d="M928.691 56.0133L954.805 29.8993L956.229 31.3237L930.59 57.4377L928.691 56.0133Z" fill="white"/>
<path d="M809.029 145.276L834.668 119.637L836.092 121.061L810.453 146.7L809.029 145.276Z" fill="white"/>
<path d="M826.595 96.3701L904.937 18.028L906.361 19.4525L828.019 97.7944L826.595 96.3701Z" fill="white"/>
<path d="M744.938 236.909L889.752 92.5699L891.176 93.9942L746.362 238.334L744.938 236.909Z" fill="white"/>
<path d="M617.703 335.671L770.588 183.26L772.013 185.159L619.602 337.095L617.703 335.671Z" fill="white"/>
<path d="M853.669 42.7174L998.483 -102.097L999.907 -100.197L855.093 44.1419L853.669 42.7174Z" fill="white"/>
<path d="M634.789 245.459L809.99 71.2077L812.839 74.0565L637.638 248.308L634.789 245.459Z" fill="white"/>
<path d="M621.018 231.688L796.219 57.4367L799.068 60.2855L623.867 234.537L621.018 231.688Z" fill="white"/>
<path d="M726.886 141.474L879.296 -10.937L880.721 -9.51265L728.31 142.898L726.886 141.474Z" fill="white"/>
<path d="M771.054 127.709L796.693 102.069L798.117 103.494L772.478 129.133L771.054 127.709Z" fill="white"/>
<path d="M650.939 216.966L676.579 191.327L678.003 192.751L652.364 218.865L650.939 216.966Z" fill="white"/>
<path d="M668.97 168.065L747.312 89.7233L748.736 91.6226L670.394 169.49L668.97 168.065Z" fill="white"/>
<path d="M586.838 309.08L731.652 164.266L733.551 165.69L588.262 310.504L586.838 309.08Z" fill="white"/>
<path d="M706.959 87.8232L881.686 -86.4285L885.009 -83.5797L709.808 91.1467L706.959 87.8232Z" fill="white"/>
<path d="M693.188 74.0519L867.915 -100.2L871.238 -97.3508L696.037 77.3755L693.188 74.0519Z" fill="white"/>
<path d="M723.087 59.8095L748.726 33.6955L750.15 35.1198L724.511 61.2339L723.087 59.8095Z" fill="white"/>
<path d="M740.677 10.4286L819.019 -67.4386L820.443 -66.0141L742.101 11.853L740.677 10.4286Z" fill="white"/>
<path d="M658.996 151.449L803.81 6.63464L805.235 8.05907L660.421 152.873L658.996 151.449Z" fill="white"/>
<path d="M440.117 354.185L615.318 179.458L618.166 182.307L442.965 357.033L440.117 354.185Z" fill="white"/>
<path d="M426.345 340.419L601.071 165.693L604.395 168.542L429.194 343.268L426.345 340.419Z" fill="white"/>
<path d="M532.236 250.205L684.646 97.794L686.071 99.2184L533.66 251.629L532.236 250.205Z" fill="white"/>
<path d="M576.381 235.959L602.02 210.32L603.445 211.744L577.806 237.858L576.381 235.959Z" fill="white"/>
<path d="M473.834 276.791L552.176 198.449L553.6 199.873L475.733 278.215L473.834 276.791Z" fill="white"/>
<path d="M548.847 159.993L724.049 -14.7334L726.897 -11.8846L552.171 162.842L548.847 159.993Z" fill="white"/>
<path d="M535.076 146.222L710.278 -28.5044L713.126 -25.6555L537.925 149.071L535.076 146.222Z" fill="white"/>
<path d="M640.967 56.0133L793.378 -96.3975L794.802 -94.9731L642.391 57.4378L640.967 56.0133Z" fill="white"/>
<path d="M685.112 41.7673L710.751 16.1281L712.176 17.5525L686.537 43.6665L685.112 41.7673Z" fill="white"/>
<path d="M564.998 131.505L590.637 105.866L592.062 107.29L566.422 132.929L564.998 131.505Z" fill="white"/>
<path d="M583.029 82.1242L660.896 4.25703L662.795 5.68146L584.453 84.0234L583.029 82.1242Z" fill="white"/>
<path d="M500.896 223.144L645.71 78.3297L647.609 79.7541L502.321 224.568L500.896 223.144Z" fill="white"/>
<path d="M374.112 321.9L526.523 169.489L528.422 170.914L375.537 323.324L374.112 321.9Z" fill="white"/>
<path d="M799.068 -169.521L798.118 -169.996L793.845 -169.996L621.018 2.35622L623.867 5.20509L799.068 -169.521Z" fill="white"/>
<path d="M573.055 65.507L717.869 -79.307L719.293 -77.4078L574.479 66.9314L573.055 65.507Z" fill="white"/>
<path d="M354.175 268.249L529.376 93.9972L532.225 96.8461L357.023 271.098L354.175 268.249Z" fill="white"/>
<path d="M340.404 254.478L515.605 80.2263L518.454 83.0751L343.252 257.327L340.404 254.478Z" fill="white"/>
<path d="M446.294 164.263L598.705 11.8526L600.129 13.7518L447.719 165.688L446.294 164.263Z" fill="white"/>
<path d="M490.439 150.498L516.079 124.859L517.503 126.283L491.864 151.922L490.439 150.498Z" fill="white"/>
<path d="M387.881 190.855L466.223 112.988L468.122 114.412L389.78 192.279L387.881 190.855Z" fill="white"/>
<path d="M306.235 331.869L451.049 187.055L452.473 188.479L307.659 333.293L306.235 331.869Z" fill="white"/>
<path d="M462.906 74.0515L638.107 -100.675L640.956 -97.3512L466.229 76.9004L462.906 74.0515Z" fill="white"/>
<path d="M449.135 60.2862L624.336 -114.44L627.185 -111.117L451.983 63.135L449.135 60.2862Z" fill="white"/>
<path d="M479.057 45.5635L504.696 19.9242L506.12 21.3486L480.481 46.9878L479.057 45.5635Z" fill="white"/>
<path d="M414.955 137.203L559.769 -7.1366L561.668 -5.71227L416.379 139.102L414.955 137.203Z" fill="white"/>
<path d="M196.063 339.945L371.264 165.693L374.113 168.542L199.386 343.268L196.063 339.945Z" fill="white"/>
<path d="M182.291 326.173L357.493 151.922L360.341 154.771L185.615 329.497L182.291 326.173Z" fill="white"/>
<path d="M288.171 235.959L441.057 84.0227L442.481 85.447L289.595 237.383L288.171 235.959Z" fill="white"/>
<path d="M332.339 222.193L357.979 196.554L359.878 197.978L333.764 223.618L332.339 222.193Z" fill="white"/>
<path d="M230.267 262.55L308.609 184.683L310.033 186.107L231.691 263.975L230.267 262.55Z" fill="white"/>
<path d="M268.233 182.783L443.434 8.05615L446.283 10.9049L271.082 185.631L268.233 182.783Z" fill="white"/>
<path d="M254.462 169.011L429.189 -5.71494L432.512 -2.86607L257.311 171.86L254.462 169.011Z" fill="white"/>
<path d="M359.878 78.8026L512.764 -73.6081L514.188 -72.1838L361.777 80.2271L359.878 78.8026Z" fill="white"/>
<path d="M404.498 64.5569L430.137 38.9177L431.562 40.3421L405.922 66.4561L404.498 64.5569Z" fill="white"/>
<path d="M284.384 154.294L310.023 128.655L311.447 130.08L285.808 155.719L284.384 154.294Z" fill="white"/>
<path d="M301.95 104.914L380.292 27.0466L381.717 28.471L303.85 106.813L301.95 104.914Z" fill="white"/>
<path d="M220.293 245.933L365.107 101.119L366.532 102.544L221.718 247.358L220.293 245.933Z" fill="white"/>
<path d="M93.5095 344.69L245.92 192.279L247.345 193.703L94.9339 346.114L93.5095 344.69Z" fill="white"/>
<path d="M329.013 51.736L473.827 -93.078L475.726 -91.6537L330.437 53.1604L329.013 51.736Z" fill="white"/>
<path d="M110.596 254.478L285.322 79.7515L288.171 83.075L113.444 257.327L110.596 254.478Z" fill="white"/>
<path d="M96.3733 240.707L271.575 65.9805L274.423 68.8293L99.6969 243.556L96.3733 240.707Z" fill="white"/>
<path d="M202.253 150.498L354.663 -1.91283L356.562 -0.48848L203.677 151.922L202.253 150.498Z" fill="white"/>
<path d="M246.398 136.727L272.512 110.613L273.936 112.512L247.822 138.151L246.398 136.727Z" fill="white"/>
<path d="M126.284 225.99L152.398 200.35L153.822 201.775L127.708 227.414L126.284 225.99Z" fill="white"/>
<path d="M144.325 177.084L222.667 98.7419L224.091 100.166L145.749 178.508L144.325 177.084Z" fill="white"/>
<path d="M62.1701 317.629L207.459 172.815L208.883 174.714L63.5944 319.053L62.1701 317.629Z" fill="white"/>
<path d="M182.291 96.8468L357.493 -77.4048L360.341 -74.556L185.14 99.6956L182.291 96.8468Z" fill="white"/>
<path d="M168.52 83.0758L343.722 -91.6506L346.57 -88.3271L171.369 85.9246L168.52 83.0758Z" fill="white"/>
<path d="M198.442 68.3586L224.082 42.7194L225.506 44.1438L199.867 69.783L198.442 68.3586Z" fill="white"/>
<path d="M216.021 19.4528L294.363 -58.8892L296.262 -57.4648L217.92 20.8772L216.021 19.4528Z" fill="white"/>
<path d="M134.351 160.467L279.165 15.653L280.59 17.0774L135.776 161.891L134.351 160.467Z" fill="white"/>
<path d="M-9.98493 294.838L93.5215 191.331L90.6727 188.482L-9.98493 288.665L-9.98493 294.838Z" fill="white"/>
<path d="M-9.98668 267.296L79.7505 177.558L76.9017 174.71L-9.98668 261.123L-9.98668 267.296Z" fill="white"/>
<path d="M7.56813 258.754L159.979 106.818L161.403 108.242L8.99248 260.178L7.56813 258.754Z" fill="white"/>
<path d="M-9.98945 247.833L29.4189 208.899L27.9945 207.475L-9.98945 244.984L-9.98945 247.833Z" fill="white"/>
<path d="M24.6772 168.537L199.404 -5.71494L202.252 -2.86607L27.5261 171.86L24.6772 168.537Z" fill="white"/>
<path d="M10.4314 154.771L185.633 -19.4805L188.481 -16.6317L13.755 157.62L10.4314 154.771Z" fill="white"/>
<path d="M116.311 64.5564L268.722 -87.3797L270.621 -85.9552L117.736 65.9807L116.311 64.5564Z" fill="white"/>
<path d="M160.456 50.7911L186.095 25.152L187.995 26.5763L161.881 52.2156L160.456 50.7911Z" fill="white"/>
<path d="M40.342 140.523L66.456 114.409L67.8804 115.834L41.7664 141.948L40.342 140.523Z" fill="white"/>
<path d="M58.3835 91.1481L136.725 13.2809L138.15 14.7052L59.8078 92.5725L58.3835 91.1481Z" fill="white"/>
<path d="M-10.0026 221.241L122.941 88.7723L121.517 87.3479L-10.0026 218.393L-10.0026 221.241Z" fill="white"/>
<path d="M96.3733 11.3805L271.575 -163.346L274.423 -160.497L99.2221 14.2293L96.3733 11.3805Z" fill="white"/>
<path d="M256.363 -169.995L250.191 -169.995L82.5865 -2.39052L85.4353 0.458259L256.363 -169.995Z" fill="white"/>
<path d="M48.41 74.5311L193.224 -70.2828L194.648 -68.8585L49.8345 75.9556L48.41 74.5311Z" fill="white"/>
<path d="M-10.0025 107.763L75.4614 22.2994L74.0371 20.875L-10.0025 104.915L-10.0025 107.763Z" fill="white"/>
<path d="M-9.98576 37.4939L116.311 -88.803L113.462 -91.6518L-9.98576 31.7963L-9.98576 37.4939Z" fill="white"/>
<path d="M-9.9876 9.95777L102.54 -102.57L99.6912 -105.419L-9.9876 3.78532L-9.9876 9.95777Z" fill="white"/>
<path d="M-9.98224 49.8394L37.0229 2.83417L35.5985 1.40982L-9.98224 46.9906L-9.98224 49.8394Z" fill="white"/>
</g>
</g>
</svg>
