<svg width="35" height="35" viewBox="0 0 35 35" fill="none" xmlns="http://www.w3.org/2000/svg">
<path d="M20.7812 0.375V2.5625C22.946 2.5625 24.974 3.10938 26.8652 4.20312C28.6654 5.27409 30.1009 6.70964 31.1719 8.50977C32.2656 10.401 32.8125 12.429 32.8125 14.5938H35C35 12.0189 34.3506 9.6263 33.0518 7.41602C31.7985 5.27409 30.1009 3.5765 27.959 2.32324C25.7487 1.02441 23.3561 0.375 20.7812 0.375ZM9.46777 3.65625C8.85254 3.65625 8.31706 3.84993 7.86133 4.2373L4.34082 7.82617L4.44336 7.75781C3.8737 8.23633 3.49772 8.82878 3.31543 9.53516C3.15592 10.2415 3.2015 10.9251 3.45215 11.5859C4.09017 13.3633 4.94466 15.1862 6.01562 17.0547C7.51953 19.6296 9.30827 21.9424 11.3818 23.9932C14.7087 27.3428 18.8444 29.986 23.7891 31.9229H23.8232C24.484 32.1507 25.1449 32.1963 25.8057 32.0596C26.4893 31.9229 27.0931 31.6266 27.6172 31.1709L31.0693 27.7188C31.5251 27.263 31.7529 26.7048 31.7529 26.0439C31.7529 25.3604 31.5251 24.7907 31.0693 24.335L26.5918 19.8232C26.1361 19.3675 25.5664 19.1396 24.8828 19.1396C24.1992 19.1396 23.6296 19.3675 23.1738 19.8232L21.0205 22.0107C19.2887 21.1904 17.7848 20.1764 16.5088 18.9688C15.2327 17.7383 14.2188 16.2458 13.4668 14.4912L15.6543 12.3037C16.1328 11.8024 16.3721 11.21 16.3721 10.5264C16.3721 9.81999 16.0986 9.25033 15.5518 8.81738L15.6543 8.91992L11.0742 4.2373C10.6185 3.84993 10.083 3.65625 9.46777 3.65625ZM20.7812 4.75V6.9375C22.1712 6.9375 23.4473 7.2793 24.6094 7.96289C25.7943 8.64648 26.7285 9.58073 27.4121 10.7656C28.0957 11.9277 28.4375 13.2038 28.4375 14.5938H30.625C30.625 12.8164 30.1807 11.1644 29.292 9.6377C28.4033 8.15658 27.2184 6.97168 25.7373 6.08301C24.2106 5.19434 22.5586 4.75 20.7812 4.75ZM9.46777 5.84375C9.53613 5.84375 9.61589 5.87793 9.70703 5.94629L14.1846 10.5264C14.2074 10.6175 14.1846 10.6973 14.1162 10.7656L10.8691 13.9785L11.1084 14.6621L11.5527 15.6191C11.9173 16.3939 12.3389 17.1458 12.8174 17.875C13.4782 18.9004 14.2074 19.7777 15.0049 20.5068C16.0758 21.555 17.3633 22.512 18.8672 23.3779C19.6191 23.8109 20.2572 24.1299 20.7812 24.335L21.4648 24.6426L24.7803 21.3271C24.8258 21.2816 24.86 21.2588 24.8828 21.2588C24.9056 21.2588 24.9398 21.2816 24.9854 21.3271L29.5996 25.9414C29.6452 25.987 29.668 26.0212 29.668 26.0439C29.668 26.0439 29.6452 26.0667 29.5996 26.1123L26.1816 29.4961C25.6803 29.929 25.1335 30.043 24.541 29.8379C19.8926 28.0378 16.0189 25.5768 12.9199 22.4551C11.0059 20.541 9.33105 18.3649 7.89551 15.9268C6.87012 14.1722 6.07259 12.4746 5.50293 10.834V10.7998C5.41178 10.5947 5.40039 10.3555 5.46875 10.082C5.53711 9.78581 5.66243 9.55794 5.84473 9.39844L9.22852 5.94629C9.29688 5.87793 9.37663 5.84375 9.46777 5.84375ZM20.7812 9.125V11.3125C21.6927 11.3125 22.4674 11.6315 23.1055 12.2695C23.7435 12.9076 24.0625 13.6823 24.0625 14.5938H26.25C26.25 13.6139 25.9993 12.7025 25.498 11.8594C25.0195 11.0163 24.3587 10.3555 23.5156 9.87695C22.6725 9.37565 21.7611 9.125 20.7812 9.125Z" fill="white"/>
</svg>
