<svg width="1920" height="461" viewBox="0 0 1920 461" fill="none" xmlns="http://www.w3.org/2000/svg">
<mask id="mask0_1119_6754" style="mask-type:alpha" maskUnits="userSpaceOnUse" x="0" y="0" width="1920" height="461">
<rect width="1920" height="461" fill="#0A0A0B"/>
</mask>
<g mask="url(#mask0_1119_6754)">
<rect width="1920" height="461" fill="#F5F5F5"/>
<path opacity="0.02" d="M-28.9441 103.444C8.1386 133.286 47.3216 164.089 94.1179 172.753C152.313 183.495 216.064 158.598 269.774 183.429C277.912 187.192 285.766 192.202 290.908 199.553C306.703 222.021 292.089 256.61 308.476 278.641C319.983 294.087 341.97 296.668 361.201 295.596C380.431 294.524 400.799 291.33 418.148 299.687C442.192 311.261 451.424 340.183 468.795 360.42C489.032 383.982 519.705 395.052 547.533 408.879C575.34 422.706 603.627 443.314 609.709 473.768C612.641 488.514 609.928 503.784 611.285 518.749C614.304 551.653 636.685 579.656 661.778 601.14C686.872 622.646 715.619 639.929 738.547 663.71C761.475 687.491 778.474 720.483 772.086 752.905C767.185 777.737 749.661 797.908 732.618 816.635C696.148 856.671 656.571 897.386 605.071 914.122C569.805 925.586 531.65 924.798 495.836 934.468C460.044 944.116 423.771 969.516 420.03 1006.4M298.171 -404.949C311.363 -374.189 332.169 -346.732 358.225 -325.73C381.328 -307.112 408.216 -293.657 431.494 -275.258C454.772 -256.859 475.074 -231.437 476.999 -201.815C477.721 -190.635 475.796 -179.368 477.218 -168.276C482.666 -125.374 532.809 -102.993 550.487 -63.5257C568.776 -22.7238 548.452 26.2603 561.316 69.0969C570.942 101.082 598.792 129.698 592.645 162.537C588.116 186.755 567.114 203.36 558.625 225.916C552.893 241.165 553.156 283.739 581.465 264.902C587.132 261.139 591.004 255.232 594.242 249.238C602.752 233.486 608.265 217.8 627.737 213.161C640.754 210.055 654.362 212.155 667.663 213.555C703.302 217.318 742.901 205.11 765.413 175.926C784.753 150.854 790.572 115.434 815.819 96.3127C833.256 83.1205 856.468 80.6046 875.808 70.4315C937.175 38.1837 935.906 -37.4693 948.004 -95.8171C959.271 -150.249 1034.27 -162.238 1063.63 -203.893C1076.58 -222.292 1078.72 -246.926 1072.66 -268.585C1066.6 -290.266 1053.1 -309.256 1037.24 -325.205M1950.64 -413.94C1905.57 -425.273 1858.42 -397.292 1830.99 -359.793C1803.55 -322.273 1790.69 -276.439 1774.02 -233.056C1757.35 -189.672 1734.38 -145.698 1694.67 -121.545C1683.88 -114.982 1672.07 -110.038 1662.09 -102.271C1653.38 -95.4889 1646.3 -86.7159 1637.13 -80.5901C1612.93 -64.4444 1579.72 -70.4608 1554.3 -84.6375C1528.88 -98.7924 1508.05 -119.97 1483.44 -135.481C1452.39 -155.04 1415.46 -165.169 1378.78 -164.141C1359.74 -163.616 1340.12 -159.875 1324.63 -148.805C1309.14 -137.735 1298.75 -118.088 1302.79 -99.4925C1308.96 -71.2046 1345.19 -50.0926 1336.6 -22.4611C1330.82 -3.90884 1308.05 2.69826 1295.18 17.2688C1271.47 44.1127 1288.62 87.2555 1313.34 113.181C1338.06 139.106 1370.66 160.611 1381.38 194.784C1394.57 236.855 1369.5 280.457 1345.5 317.453C1336.33 331.586 1326.36 346.441 1311.02 353.463C1290.63 362.805 1266.3 355.629 1247.12 344.034C1227.93 332.439 1211.35 316.621 1191.22 306.732C1176.21 299.36 1153.7 298.047 1146.94 313.361C1142.47 323.491 1148.38 335.786 1157.42 342.174C1166.45 348.563 1177.83 350.488 1188.77 352.238C1247.31 361.667 1310.69 374.16 1349.59 418.921C1384.09 458.651 1428.11 433.973 1463.22 403.366C1496.02 374.772 1512.78 313.121 1564.69 313.449C1590.27 313.602 1615.8 331.323 1640.96 337.361C1661.54 342.306 1682.57 347.009 1700.88 357.62C1719.19 368.231 1734.7 386.017 1736.83 407.085C1740.28 441.105 1703.53 499.19 1681.63 523.869C1659.03 549.334 1626.98 565.896 1630.15 605.1C1631.18 617.768 1639.19 624.156 1644.76 635.095C1651.07 647.499 1653.82 661.457 1659.79 674.015C1686.03 729.234 1744.77 762.445 1728.62 832.081C1714.66 892.289 1654.83 922.611 1618.12 967.264M750.055 955.318C756.268 913.378 778.737 867.588 820.217 858.728C852.158 851.902 884.975 869.404 917.397 865.357C952.227 861.003 978.677 833.415 1005.37 810.641C1032.08 787.888 1068.48 767.804 1100.82 781.434C1119.66 789.376 1134.12 807.906 1154.46 809.941C1165.93 811.078 1177.15 806.637 1187.63 801.846C1203.65 794.539 1219.48 786.203 1236.77 782.922C1254.07 779.662 1273.61 782.375 1286.15 794.714C1307.43 815.694 1299.14 850.874 1302.97 880.518C1306.51 907.931 1322.42 933.506 1345.43 948.82M917.375 838.513C905.146 838.513 892.85 836.238 881.846 831.906C847.235 818.342 820.063 786.138 809.146 745.795C804.968 730.306 803.043 713.985 801.183 698.189C797.551 667.233 794.116 637.982 774.558 618.577C764.603 608.71 751.302 602.475 737.213 595.889C723.561 589.501 709.45 582.916 697.439 572.437C670.136 548.634 662.96 516.014 656.024 484.488C652.415 468.058 649.002 452.525 642.898 438.392C637.144 425.09 628.043 414.523 618.395 403.322C602.205 384.529 583.85 363.22 585.338 328.106C587.022 288.202 614.413 250.878 651.977 237.314C670.398 230.663 689.738 229.679 708.443 228.716C729.205 227.666 748.83 226.66 765.654 218.193C788.297 206.795 803.174 182.882 817.569 159.758C819.538 156.607 821.485 153.457 823.454 150.372C839.797 124.6 861.106 110.38 881.715 96.6405C897.357 86.2048 912.125 76.3599 924.945 61.6362C944.526 39.146 966.381 2.76333 959.337 -42.8298C958.987 -45.0394 958.593 -47.271 958.221 -49.5244C955.989 -62.3884 953.43 -76.9808 959.009 -91.0482C969.926 -118.614 986.859 -124.412 999.11 -124.412C1035.14 -124.412 1070.87 -74.4212 1080.98 -59.0849C1093.08 -40.7076 1101.54 -22.8773 1103.6 -11.3696C1112.06 35.8205 1101.28 83.492 1089.62 123.922C1085.79 137.158 1082.55 152.254 1079.14 168.224C1067.59 222.175 1054.48 283.323 1010.6 314.477C994.516 325.897 976.073 331.563 958.221 337.033C943.278 341.627 929.146 345.959 916.828 353.375C885.303 372.321 868.763 413.386 878.367 448.893C879.133 451.737 880.052 454.603 881.036 457.644C883.924 466.57 887.184 476.7 886.462 487.639C885.325 504.966 874.867 518.333 865.656 530.103C860.253 536.995 855.155 543.514 851.939 550.428C841.088 573.705 852.617 602.059 869.594 618.052C886.331 633.803 910.637 643.933 943.935 649.008C949.667 649.884 955.618 650.627 961.371 651.349C977.145 653.318 993.466 655.331 1009.28 660.538C1036.11 669.333 1055.93 686.529 1063.67 707.728C1068.75 721.664 1067.65 738.094 1060.74 751.659C1054.79 763.341 1045.14 771.611 1033.59 774.893C1029.32 776.118 1025.08 776.599 1021.34 777.015C1017.29 777.474 1013.46 777.912 1010.6 779.181C1005 781.653 1000.82 788.194 996.376 795.13C994.604 797.908 992.766 800.752 990.753 803.531C974.804 825.43 947.37 838.513 917.375 838.513ZM1071.81 -53.0909C1042.76 -97.1963 991.825 -144.299 969.138 -87.045C963.844 -73.6778 967.913 -58.7135 970.101 -44.5148C976.664 -1.96272 960.846 37.0014 933.149 68.8116C901.82 104.8 859.597 113.727 832.643 156.235C815.469 183.319 799.17 213.554 770.511 227.95C735.594 245.518 692.407 234.316 655.631 247.574C622.224 259.629 597.699 293.058 596.189 328.544C594.089 378.162 635.985 394.942 652.874 434.038C671.361 476.83 666.591 531.065 704.571 564.166C727.433 584.097 760.687 589.413 782.215 610.788C815.294 643.604 807.484 697.926 819.648 742.907C828.946 777.233 852.683 808.715 885.784 821.71C918.907 834.706 960.912 825.845 981.849 797.076C989.222 786.947 994.669 774.192 1006.13 769.138C1013.75 765.791 1022.54 766.622 1030.53 764.347C1051.25 758.44 1060.72 731.684 1053.32 711.425C1045.93 691.166 1026.28 677.602 1005.81 670.886C985.328 664.169 963.494 663.053 942.207 659.794C913.087 655.331 883.487 646.164 862.025 625.971C840.585 605.778 829.515 572.458 841.941 545.745C851.611 525.005 873.948 509.691 875.458 486.851C876.245 474.796 870.864 463.354 867.713 451.693C856.862 411.569 875.48 365.342 911.096 343.924C939.975 326.575 976.708 324.999 1004.16 305.484C1057.06 267.92 1062.38 178.397 1079.01 120.815C1091.24 78.4597 1100.54 33.873 1092.75 -9.5105C1091.04 -19.3992 1083.06 -36.0044 1071.81 -53.0909ZM917.375 805.675C909.193 805.675 901.054 804.187 893.835 801.343C869.222 791.695 848.92 767.105 840.825 737.198C837.259 724.05 835.574 709.61 833.781 694.34C829.843 660.779 825.358 622.734 797.682 595.255C783.681 581.363 766.375 573.268 751.127 566.136C739.006 560.47 727.542 555.11 719.01 547.672C699.867 530.979 694.398 506.148 688.075 477.4C684.29 460.161 680.374 442.352 673.023 425.353C665.279 407.457 653.574 393.871 643.248 381.882C626.599 362.564 617.213 350.597 618.11 329.464C619.226 302.948 638.15 277.176 663.113 268.162C676.939 263.174 693.063 262.343 710.106 261.468C733.362 260.286 757.384 259.061 780.377 247.488C811.268 231.955 829.405 202.814 845.419 177.085C847.323 174.023 849.226 170.96 851.151 167.941C863.775 148.032 880.533 136.852 899.917 123.923C916.675 112.743 934.002 101.192 949.689 83.1645C984.321 43.3909 998.87 -1.91782 991.759 -47.861C991.387 -50.2894 990.972 -52.7179 990.534 -55.1682C988.893 -64.5974 987.34 -73.5016 989.506 -78.9929C990.687 -81.9464 994.844 -91.6164 999.11 -91.6164C1009.5 -91.6164 1032.71 -72.714 1053.56 -41.057C1065.03 -23.6424 1070.45 -10.3188 1071.31 -5.59326C1078.59 34.9461 1068.7 78.0014 1058.09 114.778C1053.96 129.13 1050.61 144.75 1047.04 161.312C1036.74 209.399 1025.06 263.918 991.606 287.699C979.836 296.056 964.675 300.716 948.617 305.639C932.449 310.605 915.713 315.746 899.939 325.219C872.526 341.693 853.033 369.762 845.879 400.807C842.291 416.362 841.175 433.842 844.851 449.528C849.204 468.081 851.261 489.214 843.582 507.942C834.502 530.104 815.863 541.415 814.988 567.449C814.047 595.431 826.911 622.909 847.104 641.921C868.829 662.376 898.889 675.306 938.969 681.432C945.16 682.373 951.351 683.138 957.324 683.882C972.201 685.742 986.268 687.492 999.067 691.671C1016.02 697.227 1028.65 707.423 1032.85 718.93C1034.79 724.29 1034.27 731.269 1031.51 736.717C1030.48 738.729 1028.21 742.274 1024.6 743.302C1022.91 743.783 1020.33 744.068 1017.62 744.396C1011.91 745.052 1004.78 745.862 997.382 749.121C982.724 755.575 974.979 767.695 968.744 777.409C967.169 779.881 965.681 782.2 964.237 784.191C954.414 797.668 936.912 805.675 917.375 805.675ZM907.443 298.638C896.088 298.638 885.697 295.859 875.173 292.774L850.058 285.402C845.529 284.067 834.897 280.961 828.53 270.525C821.42 258.886 823.192 244.184 833.234 231.211C843.67 217.734 856.49 208.48 868.916 199.532C879.133 192.159 888.781 185.202 895.345 176.888C900.158 170.784 904.03 163.04 908.121 154.836C912.256 146.544 916.544 137.99 922.407 129.633C934.09 112.984 953.889 103.051 975.373 103.051C982.571 103.051 989.528 104.167 996.026 106.355C1011.1 111.452 1022.1 122.019 1026.26 135.386C1029.35 145.319 1030.05 161.093 1016 179.776C1011.01 186.405 1005.98 192.378 1001.12 198.154C990.819 210.405 981.915 220.994 975.701 234.733C974.717 236.921 973.732 239.174 972.748 241.449C963.953 261.621 953.036 286.714 926.17 295.706C920.351 297.653 914.05 298.638 907.443 298.638ZM989.047 127.095C973.689 121.91 951.877 125.738 940.325 142.212C929.649 157.417 924.048 175.86 912.541 190.452C895.498 212.068 867.407 222.853 850.561 244.622C847.323 248.822 844.479 254.642 847.236 259.17C849.095 262.211 852.815 263.436 856.249 264.443C864.628 266.893 872.986 269.365 881.343 271.816C893.704 275.447 907.006 279.079 919.213 274.988C939.231 268.293 947.064 244.994 955.771 225.763C966.491 202.026 983.359 186.799 998.52 166.65C1013.48 146.763 1004.56 132.323 989.047 127.095ZM907.443 265.777C893.573 266.783 877.996 260.023 864.803 257.157C862.353 256.632 859.509 255.779 858.656 253.416C857.606 250.485 860.34 247.706 862.791 245.781C882.262 230.576 905.693 216.793 921.138 197.212C928.03 188.461 932.843 178.813 937.503 169.493C941.266 161.946 944.81 154.835 949.273 148.491C957.062 137.377 991.541 126.132 994.276 147.441C995.348 155.82 988.631 162.93 982.79 169.034C965.988 186.558 952.183 206.948 942.163 229.066C937.787 238.714 933.981 248.931 926.761 256.698C921.117 262.736 914.488 265.252 907.443 265.777ZM817.657 391.442C801.577 356.832 666.373 249.193 661.341 336.551C660.028 359.435 678.777 378.359 684.422 400.565C688.119 415.07 686.063 430.385 687.922 445.218C690.985 469.48 707.918 502.1 722.861 521.33C729.752 530.191 740.866 536.666 751.958 534.916C780.137 530.475 773.573 499.562 782.39 480.988C792.366 460.007 818.16 448.105 823.433 424.478C825.949 413.364 822.448 401.768 817.657 391.442ZM748.283 524.261C742.66 524.261 736.053 520.477 731.503 514.613C717.72 496.914 701.574 466.111 698.774 443.861C698.096 438.413 697.986 432.791 697.877 426.818C697.702 417.433 697.527 407.719 695.033 397.874C692.451 387.745 687.726 378.687 683.153 369.914C677.246 358.582 671.645 347.884 672.28 337.185C673.614 314.104 684.772 314.104 690.132 314.104C726.34 314.104 797.005 372.912 807.746 396.058C812.691 406.669 814.332 415.201 812.8 422.093C810.503 432.331 802.343 440.579 793.701 449.287C785.825 457.228 777.687 465.454 772.545 476.262C769.198 483.306 767.776 491.073 766.419 498.577C763.291 515.751 761.081 522.402 750.296 524.108C749.617 524.218 748.961 524.261 748.283 524.261ZM745.045 495.777C735.419 497.418 725.793 479.39 723.824 472.455C720.411 460.444 721.833 447.69 721.811 435.198C721.767 407.588 714.438 380.022 700.786 356.044C698.796 352.565 696.652 349.043 695.973 345.083C695.317 341.123 696.564 336.551 700.021 334.516C705.162 331.519 711.441 335.479 716.035 339.242C733.253 353.353 750.471 367.464 767.667 381.553C776.899 389.123 786.809 397.874 788.253 409.71C789.588 420.671 783.134 431.128 775.521 439.135C767.907 447.165 758.828 453.925 752.79 463.179C749.464 468.277 747.145 474.555 747.123 480.703C747.101 486.085 752.505 494.027 745.417 495.646C745.329 495.733 745.176 495.755 745.045 495.777ZM743.623 439.945C743.076 439.858 742.572 439.53 742.375 439.026C742.069 438.261 742.529 437.451 742.857 436.707C744.979 432.091 742.726 425.309 741.675 420.562C740.516 415.267 739.072 410.038 737.716 404.81C736.578 400.434 735.353 396.015 734.806 391.508C734.565 389.473 733.953 385.754 735.965 384.354C736.075 384.266 736.206 384.201 736.315 384.157C740.888 382.144 746.292 388.795 748.764 391.705C750.361 393.586 751.63 395.774 753.183 397.634C755.524 400.412 758.368 402.731 761.125 405.116C763.181 406.932 766.222 409.491 766.594 412.401C766.769 413.758 765.544 417.98 759.703 424.128C757.624 426.315 755.24 428.547 752.746 430.91C750.208 433.294 749.048 436.62 746.314 438.895C745.723 439.376 745.067 439.858 744.301 439.967C744.06 439.989 743.841 439.989 743.623 439.945ZM1187.43 777.234C1164.18 777.234 1139.61 761.963 1124.84 738.357C1114.19 721.336 1108.56 702.412 1103.14 684.1C1101.15 677.384 1099.09 670.427 1096.84 663.82C1087.32 635.926 1074.02 617.92 1057.28 610.285C1049.82 606.894 1041.18 605.231 1030.85 605.231C1019.78 605.231 1008.34 607.025 996.222 608.929C990.009 609.913 983.555 610.92 977.211 611.641C972.595 612.167 967.869 612.451 963.187 612.451C926.498 612.451 899.895 597.334 892.019 571.999C885.478 550.997 894.535 529.469 901.908 515.095C903.746 511.529 905.649 507.941 907.596 504.375C916.391 488.011 924.704 472.543 925.186 456.135C925.317 451.475 924.814 446.596 924.267 441.433C923.435 433.47 922.582 425.265 923.873 416.558C929.189 381.138 966.775 361.033 1001.69 356.788C1005.96 356.263 1010.11 355.738 1014.23 355.235C1032.47 352.938 1049.71 350.75 1065.51 350.75C1110.66 350.75 1137.62 369.827 1155.62 414.545C1160.15 425.791 1163.81 437.342 1167.33 448.521C1172.03 463.442 1176.47 477.531 1182.82 490.92C1199.38 525.837 1230.49 557.451 1272.78 582.304C1276.02 584.207 1279.32 586.088 1282.65 587.97C1303.23 599.696 1324.54 611.795 1337.58 633.104C1347.27 648.943 1348.8 671.127 1341.36 688.323C1335.57 701.778 1325.13 710.682 1312.03 713.417C1308.79 714.095 1305.35 714.423 1301.24 714.423C1299.03 714.423 1296.82 714.335 1294.61 714.248C1292.71 714.16 1290.78 714.073 1288.88 714.073C1287.28 714.073 1285.93 714.139 1284.7 714.27C1270.22 715.823 1258.89 728.315 1246.9 741.529C1234.14 755.597 1220.97 770.123 1201.57 775.374C1196.95 776.599 1192.2 777.234 1187.43 777.234ZM1328.19 638.836C1314.63 616.674 1289.58 604.903 1267.18 591.733C1227.91 568.63 1192.4 536.776 1172.88 495.602C1161.2 470.968 1155.6 443.905 1145.43 418.615C1117.21 348.497 1069.58 359.567 1002.96 367.64C972.704 371.293 939.165 388.03 934.658 418.155C932.755 430.801 936.452 443.643 936.08 456.419C935.424 479.369 922.079 499.65 911.621 520.062C903.877 535.135 897.423 552.55 902.454 568.718C911.074 596.459 947.085 604.094 975.964 600.747C1004.82 597.399 1035.41 588.254 1061.86 600.309C1085.31 611.007 1098.89 635.86 1107.21 660.254C1115.52 684.669 1120.47 710.66 1134.14 732.516C1147.81 754.372 1173.8 771.502 1198.7 764.785C1233.09 755.487 1248.1 707.182 1283.52 703.375C1292.25 702.434 1301.2 704.513 1309.77 702.697C1335.17 697.402 1341.76 660.998 1328.19 638.836ZM1187.43 744.417C1175.6 744.417 1161.31 734.769 1152.65 720.943C1144.38 707.707 1139.61 691.692 1134.6 674.737C1132.52 667.714 1130.35 660.429 1127.88 653.209C1115.35 616.433 1096.16 591.93 1070.89 580.422C1059.08 575.04 1045.97 572.415 1030.83 572.415C1017.23 572.415 1003.95 574.493 991.103 576.506C984.934 577.469 979.092 578.387 973.404 579.044C970.035 579.438 966.578 579.635 963.143 579.635C947.26 579.635 927.308 575.084 923.304 562.242C921.051 554.978 923.501 544.761 931.049 530.06C932.777 526.669 934.615 523.278 936.431 519.887C946.188 501.75 957.215 481.207 957.915 457.054C958.112 450.206 957.433 443.73 956.821 437.998C956.186 431.807 955.574 425.966 956.252 421.393C958.243 408.201 975.811 392.952 1005.56 389.342C1009.87 388.817 1014.12 388.292 1018.25 387.767C1036.19 385.492 1051.7 383.545 1065.42 383.545C1092.83 383.545 1110.45 390.436 1125.08 426.775C1129.13 436.839 1132.43 447.296 1135.93 458.366C1140.77 473.681 1145.76 489.542 1153.09 504.966C1172.47 545.855 1208.09 582.369 1256.06 610.591C1259.43 612.582 1262.89 614.529 1266.32 616.498C1284.09 626.606 1300.87 636.145 1309.49 650.256C1313.67 657.082 1314.37 667.845 1311.15 675.328C1308.9 680.556 1306.14 681.125 1305.22 681.322C1304.26 681.519 1302.93 681.628 1301.15 681.628C1299.43 681.628 1297.68 681.541 1295.92 681.475C1293.67 681.388 1291.33 681.278 1288.79 681.278C1286.01 681.278 1283.5 681.41 1281.09 681.672C1254.18 684.582 1237.36 703.134 1222.5 719.521C1212.48 730.569 1203.03 740.983 1192.92 743.717C1191.17 744.177 1189.31 744.417 1187.43 744.417ZM1069.53 430.122C1053.43 410.541 1028.82 399.974 1003.97 416.164C991.956 423.996 991.322 441.061 984.518 453.684C976.97 467.664 961.218 476.853 957.171 492.211C952.948 508.203 963.318 524.568 975.789 535.419C984.08 542.617 989.506 542.398 999.088 539.445C1008.65 536.491 1016.28 535.507 1026.83 536.338C1049.95 538.176 1072.64 545.023 1095.98 543.689C1104.45 543.208 1113.99 540.867 1118.06 533.428C1122.54 525.18 1118.17 515.117 1113.81 506.803C1100.25 480.834 1088.26 452.896 1069.53 430.122ZM1089.92 532.882C1068.94 532.138 1048.64 527.084 1027.73 525.443C1024.99 525.225 1022.48 525.115 1020.05 525.115C1003.9 525.115 987.274 535.617 974.323 520.018C968.569 513.083 966.687 503.303 968.788 494.552C972.354 479.654 987.121 471.974 994.188 458.892C997.01 453.663 998.804 448.237 1000.53 442.965C1003.11 435.132 1005.35 428.35 1009.98 425.331C1016.26 421.24 1022.67 419.162 1029.04 419.162C1044.16 419.162 1055.64 430.385 1061.13 437.058C1075 453.903 1085.35 474.534 1095.35 494.487C1098.74 501.269 1101.87 507.613 1105.81 514.155C1108.7 518.968 1110.23 525.75 1106.31 529.775C1103.53 532.663 1099.07 532.947 1095.07 532.969C1093.32 532.969 1091.61 532.947 1089.92 532.882ZM1075.29 507.394C1073.89 508.925 1071.7 509.822 1069.58 509.976C1066.67 510.172 1063.8 509.276 1060.98 508.466C1048.62 504.922 1035.71 503.215 1022.85 503.347C1016.28 503.412 1009.57 503.828 1003.09 505.031C999.045 505.775 992.35 509.122 989.944 503.587C987.625 498.315 995.435 491.664 998.585 488.36C1003.51 483.175 1009.09 477.268 1013.4 469.283C1017.03 462.567 1017.86 455.697 1020.79 448.937C1022.08 445.961 1024.36 443.27 1027.4 442.155C1031.49 440.667 1036.19 442.286 1039.47 445.152C1046.15 450.95 1051.95 460.948 1056.78 468.342C1062.77 477.509 1068.27 487.004 1074.04 496.324C1075.75 499.08 1077.52 502.318 1076.49 505.403C1076.23 506.147 1075.81 506.825 1075.29 507.394ZM1047.33 489.127C1047 489.893 1046.23 490.44 1045.43 490.68C1044.48 490.965 1043.46 490.921 1042.47 490.855C1037.66 490.855 1032.85 490.089 1028.08 489.521C1026.89 489.389 1025.63 489.214 1024.69 488.47C1023.7 487.683 1023.24 486.283 1023.59 485.058C1024.12 483.198 1026.35 482.651 1027.31 480.966C1028.49 478.932 1028.78 476.525 1029.37 474.272C1029.94 472.062 1032.58 464.996 1035.62 468.781C1036.3 469.612 1036.59 470.684 1036.91 471.712C1038.51 476.722 1041.42 481.295 1045.29 484.839C1046.43 485.889 1047.79 487.18 1047.46 488.711C1047.42 488.864 1047.37 488.996 1047.33 489.127ZM1217.49 602.365C1202.81 597.596 1188.31 590.026 1174.68 582.938C1148.18 569.133 1140.72 592.345 1138.36 614.682C1136.74 629.931 1138.65 645.574 1143.98 659.969C1149.08 673.708 1163.83 685.391 1164.97 699.984C1165.51 706.963 1164.4 716.72 1171.22 718.317C1176.95 719.652 1180.85 713.001 1184.7 708.538C1192.71 699.327 1206.14 697.883 1217.71 693.967C1238.45 686.944 1256.13 668.173 1257.09 646.296C1257.99 625.928 1239.02 609.366 1217.49 602.365ZM1183.69 681.038C1183.47 680.972 1183.28 680.885 1183.06 680.775C1177.15 678.128 1175.03 668.677 1171.53 663.711C1168.62 659.598 1165.62 655.353 1164.51 652.334C1159.58 639.076 1156.28 621.64 1161.25 607.922C1165.27 596.765 1178.09 609.388 1184.98 612.67C1193.36 616.652 1201.89 620.305 1210.71 623.193C1224.8 627.765 1235.56 637.501 1235.24 645.355C1234.73 656.688 1224.19 668.699 1210.69 673.271C1208.46 674.015 1205.92 674.737 1203.21 675.481C1197.48 677.034 1190.08 683.269 1183.69 681.038ZM1188.13 668.217C1183.19 667.036 1183.01 660.997 1180.48 657.388C1178.57 654.697 1175.4 650.212 1174.79 648.527C1172.6 642.642 1171 636.473 1170.24 630.259C1169.95 627.831 1168.71 620.261 1171.4 618.599C1173.96 617.023 1186.21 625.118 1189.07 626.299C1197.26 629.669 1205.44 633.038 1213.64 636.407C1217.47 637.982 1221.72 639.973 1223.12 643.867C1224.23 646.974 1223.16 650.54 1221.12 653.121C1219.09 655.703 1216.22 657.497 1213.36 659.116C1208 662.135 1202.4 664.739 1196.62 666.904C1194 667.889 1191.15 668.808 1188.4 668.261C1188.29 668.261 1188.22 668.239 1188.13 668.217ZM1630.41 674.474C1604.88 645.683 1586.94 601.884 1607.81 569.57C1618.14 553.6 1635.71 544.192 1650.56 532.313C1690.69 500.218 1711.47 441.433 1689.85 394.811C1668.24 348.19 1599.22 327.887 1561.43 362.739C1538.07 384.288 1532.44 401.834 1502.36 410.804C1479.7 417.564 1449.4 416.601 1437.85 442.111C1430.19 459 1433.43 485.057 1415.62 490.22C1410.54 491.686 1405.12 490.657 1400.04 489.214C1353.03 475.802 1322.81 430.516 1280.63 405.794C1265.14 396.715 1246.81 390.37 1229.31 394.418C1211.81 398.465 1196.71 415.923 1200.41 433.513C1203.91 450.096 1220.86 459.438 1233.62 470.574C1259.63 493.283 1271.05 528.462 1293.8 554.453C1315.09 578.781 1344.95 593.636 1369.83 614.288C1447.58 678.893 1386.72 773.667 1294.07 751.089C1288.73 749.799 1283.35 748.049 1277.85 748.508C1238.15 751.724 1306.89 785.131 1308.94 790.207C1314.26 803.29 1313.1 818.101 1316.62 831.774C1323.18 857.174 1345.54 876.033 1369.98 885.615C1394.42 895.176 1421.07 896.992 1447.21 899.245C1494.01 903.293 1536.19 923.311 1583.66 921.254C1626.19 919.417 1670.19 902.833 1695.15 868.354C1717.18 837.922 1721.27 795.436 1705.48 761.35C1689.29 726.477 1655.94 703.287 1630.41 674.474ZM1594.69 898.48C1590.73 898.94 1586.7 899.268 1582.72 899.443C1558.37 900.493 1534.83 894.827 1509.89 888.832C1490.53 884.172 1470.49 879.359 1449.09 877.5L1444.43 877.106C1420.56 875.071 1398.01 873.124 1377.97 865.292C1357.03 857.088 1342.02 842.561 1337.82 826.393C1334.52 813.66 1326.93 796.18 1333.88 782.507C1344.32 762.051 1369.13 768.614 1385.69 757.216C1403.56 744.921 1417.35 727.068 1423.54 706.175C1434.8 668.196 1419.93 627.569 1383.76 597.509C1373.68 589.13 1363.07 581.801 1352.83 574.712C1336.84 563.664 1321.74 553.228 1310.26 540.08C1301.72 530.344 1294.74 518.596 1287.33 506.148C1276.54 488.033 1265.38 469.306 1247.99 454.122C1244.71 451.256 1241.38 448.653 1238.17 446.115C1230.66 440.23 1222.88 434.126 1221.8 429.029C1220.91 424.806 1226.9 417.477 1234.23 415.771C1235.15 415.552 1236.09 415.399 1237.05 415.29C1246 414.239 1257.25 417.499 1269.56 424.719C1284.61 433.536 1298.33 445.634 1312.88 458.432C1336.57 479.304 1361.08 500.897 1394.03 510.282C1399.54 511.858 1406.95 513.542 1415.29 512.558C1417.48 512.295 1419.62 511.858 1421.7 511.267C1446.29 504.135 1451.15 479.894 1454.06 465.39C1455.13 460.073 1456.22 454.56 1457.75 451.169C1461.58 442.724 1470.47 440.121 1489.83 436.205C1495.98 434.958 1502.34 433.667 1508.62 431.807C1535.46 423.8 1548 409.58 1560.1 395.84C1564.91 390.371 1569.92 384.705 1576.27 378.863C1583.14 372.519 1591.8 368.69 1602.04 367.487C1629.17 364.293 1659.03 380.351 1670.01 404.044C1677.93 421.109 1678.78 441.915 1672.44 462.633C1666.12 483.285 1653.49 501.969 1636.89 515.271C1633.28 518.158 1629.36 520.981 1625.21 523.956C1613 532.729 1599.17 542.662 1589.44 557.735C1571.58 585.367 1567.32 636.32 1614.05 689.023C1622.71 698.803 1632.08 707.816 1641.11 716.545C1659.2 734.004 1676.31 750.499 1685.63 770.627C1698.08 797.471 1694.78 831.622 1677.43 855.6C1660.74 878.615 1630.59 894.258 1594.69 898.48ZM1588.01 878.133C1570.42 878.855 1552.62 876.033 1535.14 873.211C1495.6 866.822 1456.07 860.456 1416.52 854.068C1401.64 851.661 1373.5 843.063 1362.28 833.131C1354.03 825.824 1351.14 811.34 1359.39 804.033C1363.86 800.073 1370.16 799.22 1375.98 797.951C1411.37 790.228 1438.41 760.825 1447.28 726.193C1457.73 685.325 1444.47 640.891 1419.42 606.937C1399.52 579.962 1361.16 559.966 1334.45 539.817C1331.02 537.213 1327.43 534.456 1325.68 530.518C1323.93 526.58 1324.76 521.133 1328.61 519.186C1333.75 516.561 1339.31 521.483 1343.49 525.443C1369.98 550.69 1414.66 549.246 1445.07 531.7C1463.27 521.199 1469.77 504.265 1483.18 489.498C1490.05 481.928 1498.62 476.152 1507.11 470.464C1529.82 455.237 1552.55 439.989 1575.26 424.762C1590.09 414.807 1607.84 404.415 1624.73 410.213C1640.56 415.639 1648.88 434.454 1646.62 451.037C1644.37 467.62 1633.78 481.95 1621.68 493.523C1609.56 505.075 1595.63 514.635 1583.86 526.537C1561.15 549.465 1547.26 580.925 1545.66 613.151C1544.04 645.376 1554.72 678.062 1575.02 703.155C1592.41 724.639 1616.08 740.172 1634.66 760.628C1653.25 781.084 1666.82 810.094 1657.52 836.106C1649.71 858.006 1627.26 872.007 1604.42 876.339C1599 877.324 1593.53 877.892 1588.01 878.133ZM1613.06 844.485C1605.52 844.944 1597.73 844.179 1590.2 843.369C1544.35 838.447 1498.47 833.524 1452.61 828.58C1447.63 828.055 1442.09 827.223 1438.94 823.329C1435.2 818.691 1436.62 811.537 1440.34 806.899C1444.06 802.261 1449.49 799.417 1454.54 796.245C1505.1 764.588 1512.14 699.961 1495.14 647.411C1490.75 633.803 1484.75 620.72 1477.71 608.271C1471.28 596.895 1431.63 577.686 1462.81 563.444C1468.8 560.709 1475.61 560.425 1481.97 558.762C1501.18 553.73 1510.17 532.05 1522.05 518.354C1534.39 504.134 1549.53 492.757 1565.15 482.409C1578.67 473.439 1601.64 465.345 1611.8 453.137C1614.86 449.461 1617.46 445.239 1621.49 442.657C1625.51 440.076 1631.62 439.791 1634.48 443.62C1636.54 446.333 1636.25 450.271 1634.7 453.312C1633.15 456.353 1630.54 458.672 1628.01 460.947C1604.25 482.059 1577.58 501.727 1559.95 528.571C1543.84 553.14 1534.17 581.996 1532.71 611.356C1530.7 651.48 1544.04 692.413 1569.33 723.654C1580.66 737.656 1593.42 748.792 1605.74 759.556C1614.66 767.366 1623.11 774.739 1630.19 782.549C1645.38 799.264 1657.54 827.924 1630.35 840.481C1624.9 842.975 1619.06 844.135 1613.06 844.485ZM1608.27 809.788C1603.04 810.357 1596.72 809.525 1592.89 809.722C1574.84 810.685 1556.77 811.625 1538.72 812.588C1525.18 813.31 1509.36 815.367 1496.08 812.282C1491.42 811.21 1487 807.425 1486.83 802.656C1486.63 797.514 1492.58 792.614 1495.12 788.457C1499.34 781.522 1502.95 774.193 1506.08 766.711C1511.4 753.934 1514.7 740.807 1517.17 727.243C1518.64 719.214 1521.13 698.233 1531.74 696.986C1545.94 695.324 1547.82 726.215 1554.19 734.572C1568.65 753.518 1587.27 770.386 1605.71 785.328C1610 788.807 1614.55 792.482 1616.32 797.689C1619.26 806.462 1614.53 809.11 1608.27 809.788ZM1600.29 796.245C1599.35 798.521 1596.31 799.024 1593.79 799.133C1578.39 799.811 1562.99 800.511 1547.61 801.19C1535.6 801.737 1523.02 805.828 1510.65 804.362C1502.38 803.399 1502.78 801.299 1505.6 794.145C1507.72 788.741 1510.68 783.709 1512.95 778.393C1516.89 769.183 1520.17 759.688 1522.73 749.996C1524.44 743.586 1524.35 729.103 1531.22 725.843C1539.34 721.992 1544.76 735.185 1547.85 740.479C1559.38 760.388 1576 777.321 1595.74 789.179C1598.32 790.732 1601.36 793.204 1600.37 796.048C1600.33 796.114 1600.31 796.18 1600.29 796.245ZM1554.48 783.272C1548.42 783.644 1533.01 790.448 1527.87 785.635C1522.05 780.144 1528.73 769.642 1531.92 764.545C1538.72 753.715 1546.12 768.089 1551.54 773.668C1553.29 775.462 1561.28 782.856 1554.48 783.272ZM1508.36 626.825C1498.47 631.528 1499.74 607.397 1494.29 597.793C1490.75 591.514 1475.74 594.708 1479.3 581.516C1482.89 568.302 1483.05 580.772 1485.06 580.247C1500.98 576.09 1507.2 551.85 1519.84 555.263C1532.49 558.676 1509.39 591.689 1508.45 610.57C1508.16 615.973 1518.25 622.121 1508.36 626.825ZM1735.93 724.355C1735.84 724.42 1735.75 724.508 1735.69 724.596C1732.47 727.724 1731.44 732.581 1731.95 737.044C1733.74 753.146 1744.94 769.773 1750.87 784.672C1757.85 802.196 1764 820.048 1769.27 838.163C1780.14 875.442 1794.71 922.435 1789.27 961.443C1788.06 969.998 1786.99 980.039 1793.25 986.012C1800.16 992.597 1811.5 989.863 1820.05 985.684C1840.22 975.817 1851.62 961.115 1866.06 944.904C1881.2 927.927 1902.57 915.5 1920.6 901.805C1928.26 895.985 1936.81 887.716 1934.23 878.439C1931.73 869.491 1920.82 866.647 1911.8 864.438C1840.2 846.957 1803.84 778.743 1755.36 729.956C1750.37 724.967 1742.78 718.01 1735.93 724.355ZM1800.53 962.888C1799.77 957.222 1801.3 950.746 1801.34 945.342C1801.45 933.156 1800.25 920.992 1798.28 908.981C1794.47 885.66 1787.87 862.907 1781.24 840.264L1779.73 835.1C1773.06 812.238 1764.94 790.47 1755.31 768.745C1754.35 766.579 1753.43 763.954 1754.77 762.007C1759.43 755.159 1781.17 775.44 1784.17 779.006C1800.86 798.915 1817.64 818.998 1837.27 836.107C1859.21 855.228 1881.68 864.81 1908.41 874.283C1911.72 875.465 1914.8 877.653 1916.27 880.847C1918.52 885.769 1916.27 891.786 1912.37 895.527C1905.37 902.221 1894.3 907.078 1886.29 912.941C1876.17 920.358 1866.28 928.234 1857.9 937.641C1856.19 939.544 1854.53 941.448 1852.89 943.307C1844.55 952.781 1834.29 966.323 1823.05 972.405C1817.51 975.402 1810.12 975.883 1805.26 971.88C1802.31 969.408 1800.99 966.301 1800.53 962.888ZM1811.19 924.186C1808.04 922.48 1806.33 917.36 1805.81 914.385C1804.12 904.584 1809.77 894.957 1808.17 885.134C1804.91 865.116 1792.68 847.964 1786.73 828.777C1785.88 825.999 1785.07 823.155 1785.13 820.245C1785.2 817.336 1786.23 814.338 1788.46 812.479C1796.97 805.412 1805.08 819.873 1808.67 825.321C1815.26 835.341 1825.04 842.954 1835.63 848.621C1845.23 853.762 1855.6 856.431 1865.47 860.828C1872.27 863.869 1874.7 871.045 1866.74 874.786C1857.2 879.293 1848.77 883.428 1840.96 890.67C1837.4 893.973 1834.07 897.561 1831.08 901.39C1828.25 904.999 1826.2 910.425 1823.05 913.575C1821.27 916.835 1818.08 924.492 1813.62 924.733C1812.72 924.777 1811.91 924.58 1811.19 924.186ZM355.535 982.468C320.727 1006.58 280.582 1022.99 238.686 1029.18C153.494 1041.76 91.8208 1008.85 20.5433 969.298C-59.6384 924.799 -29.6879 866.013 9.67011 797.711C50.4501 726.98 60.4701 640.498 41.7866 561.454C22.5123 479.916 -55.0878 413.298 -14.3516 324.606C13.4987 263.961 91.5364 236.023 153.057 226.353C167.168 224.144 182.788 223.203 194.537 231.32C208.276 240.814 211.951 259.06 216.064 275.25C225.253 311.457 271.327 341.889 309.132 335.589C333.088 331.607 356.607 316.139 379.884 323.096C410.666 332.307 418.192 372.781 442.126 394.243C475.074 423.777 535.041 413.714 559.5 450.6C577.199 477.29 565.363 513.192 571.358 544.652C587.526 629.515 720.257 650.233 736.622 735.053C744.476 775.789 716.429 820.201 676.24 830.571C615.66 846.214 540.357 771.72 488.638 814.929C465.645 834.137 454.64 863.628 440.114 889.816C419.592 926.724 390.211 958.424 355.535 982.468ZM202.369 1010.03C138.967 1010.03 86.5921 980.959 31.1322 950.177C9.7358 938.297 -2.60321 925.543 -6.58495 911.191C-13.7827 885.266 5.09774 849.408 28.5944 808.628C70.9933 735.076 83.5511 643.146 63.0517 556.401C55.9415 526.341 42.071 499.059 28.6381 472.675C4.11323 424.478 -17.0862 382.867 5.49154 333.707C33.9982 271.64 128.225 252.366 156.404 247.925C161.983 247.05 166.314 246.634 170.056 246.634C175.481 246.634 179.507 247.531 182.044 249.281C187.995 253.394 190.992 265.383 193.902 276.979L194.821 280.61C205.519 322.747 253.147 358.298 298.828 358.298C303.531 358.298 308.191 357.926 312.676 357.182C322.565 355.541 331.644 352.522 340.439 349.591C350.328 346.309 359.648 343.202 367.283 343.202C369.58 343.202 371.658 343.487 373.584 344.056C383.976 347.162 391.414 359.589 400.034 373.962C407.275 386.061 415.501 399.756 427.49 410.52C446.436 427.497 470.83 433.754 492.358 439.267C513.907 444.781 532.525 449.55 541.232 462.698C548.474 473.615 548.124 489.302 547.73 507.46C547.446 520.827 547.139 534.632 549.83 548.743C559.566 599.871 602.993 630.632 641.301 657.782C675.911 682.307 708.597 705.453 715.116 739.21C720.761 768.483 699.627 801.934 670.748 809.394C666.832 810.4 662.675 810.904 658.059 810.904C640.404 810.904 620.233 803.75 598.836 796.158C575.58 787.91 551.537 779.4 527.646 779.4C507.322 779.4 489.47 785.701 474.593 798.149C453.503 815.76 441.733 838.907 430.334 861.266C427.14 867.523 424.143 873.452 420.949 879.184C402.462 912.482 375.531 941.995 343.064 964.485C310.488 987.063 273.274 1001.94 235.47 1007.52C224.29 1009.18 213.155 1010.03 202.369 1010.03ZM202.347 976.036C159.62 977.196 116.543 966.629 79.5475 945.167C62.461 935.256 46.0965 922.458 37.4767 904.671C23.7156 876.34 36.1422 852.581 52.2442 829.631C67.8867 807.294 78.6943 783.119 87.2266 756.691C108.776 689.854 111.139 617.111 95.015 548.853C87.0078 514.964 72.2185 485.911 57.9105 457.798C32.598 408.092 20.1058 380.591 35.3327 347.425C46.1403 323.884 73.203 308.307 94.0087 299.403C110.636 292.271 139.099 278.794 157.979 286.189C171.084 291.33 171.324 297.697 175.853 309.664C183.051 328.697 188.608 339.921 205.716 354.688C231.291 376.807 264.786 391.093 298.849 391.093C321.252 391.093 340.155 374.159 362.557 384.814C382.378 394.243 389.926 416.733 403.272 432.638C419.396 451.869 437.795 459.023 462.21 462.851C481.813 465.914 504.062 471.231 513.185 488.842C519.048 500.153 517.758 513.63 517.845 526.362C518.348 598.712 567.398 645.574 622.377 684.516C640.448 697.315 667.029 712.695 678.165 732.385C685.1 744.636 684.838 762.182 673.746 770.867C662.763 779.465 646.967 776.096 633.534 772.29C572.714 755.116 509.138 726.5 453.59 772.902C416.486 803.903 406.181 849.933 377.631 886.622C347.593 925.214 305.194 954.224 258.091 967.57C239.911 972.733 221.162 975.533 202.347 976.036ZM195.981 965.185C156.623 965.185 118.249 954.99 85.0388 935.694C65.9833 924.624 53.6443 912.919 47.3217 899.902C36.7329 878.068 44.3901 859.91 61.1921 835.91C76.3096 814.339 87.8829 790.229 97.6185 760.06C119.715 691.539 122.493 617.636 105.626 546.337C97.3122 511.201 82.2385 481.535 67.646 452.875C36.4485 391.596 25.8597 340.708 98.5374 304.741C116.783 295.706 140.433 294.568 156.273 307.345C161.589 311.633 165.702 317.19 169.771 322.681C203.769 368.646 236.695 402.053 298.828 402.053C309.132 402.053 318.539 399.144 326.853 396.562C333.985 394.352 340.701 392.274 346.958 392.274C350.853 392.274 354.309 393.062 357.832 394.724C368.333 399.712 375.049 410.301 382.138 421.525C386.01 427.628 390.014 433.951 394.849 439.705C414.976 463.705 438.276 470.224 460.46 473.703C477.94 476.438 496.711 480.988 503.406 493.918C507.059 500.984 506.972 510.261 506.863 520.084C506.841 522.228 506.819 524.372 506.841 526.472C507.388 605.888 562.322 655.463 615.988 693.464C619.248 695.783 622.792 698.168 626.468 700.662C642.504 711.513 660.685 723.83 668.582 737.81C672.98 745.577 673.374 757.26 666.942 762.292C664.316 764.348 660.75 765.354 656.09 765.354C649.855 765.354 642.657 763.56 636.444 761.81C628.809 759.644 620.933 757.26 613.319 754.941C584.047 746.036 553.79 736.804 523.862 736.804C494.173 736.804 468.883 745.883 446.524 764.567C422.612 784.541 409.222 810.007 396.293 834.619C387.804 850.787 379.775 866.057 368.946 879.95C340.045 917.076 299.593 944.467 255.072 957.09C238.008 961.925 220.177 964.616 202.041 965.12C200.028 965.163 197.993 965.185 195.981 965.185ZM202.544 925.127C171.828 925.433 140.717 918.52 111.948 904.058C101.338 898.72 90.4863 891.588 86.5045 880.409C83.1791 871.067 85.4106 860.456 90.2018 851.771C97.6403 838.25 129.779 781.062 135.423 763.582C155.682 700.793 160.845 633.497 151.087 568.258C146.843 539.97 139.536 511.835 131.004 484.554C123.456 460.444 103.635 444.518 92.5209 422.159C82.7416 402.447 79.0005 378.6 87.7734 358.429C96.5464 338.258 120.065 323.972 141.133 330.272C161.217 336.267 172.374 356.876 185.348 373.349C205.388 398.815 233.238 413.932 263.451 424.04C292.002 433.601 322.521 415.661 350.043 427.212C374.152 437.342 382.028 469.13 404.584 482.366C422.415 492.824 446.086 489.629 463.37 500.984C482.272 513.389 487.129 538.307 493.933 559.879C507.081 601.556 533.509 638.923 568.404 665.198C576.258 671.105 584.813 676.771 589.648 685.347C594.483 693.923 594.001 706.481 585.732 711.819C571.664 720.855 550.333 703.659 535.85 701.23C515.373 697.796 493.845 699.896 474.374 707.028C428.737 723.743 395.527 771.436 373.78 812.807C365.642 828.296 358.619 841.641 349.584 853.258C313.267 899.945 258.594 924.558 202.544 925.127ZM200.706 893.776C195.587 893.995 190.38 893.951 185.064 893.623C169.924 892.66 153.604 888.635 144.349 876.602C136.43 866.32 135.379 852.077 138.224 839.388C141.046 826.721 147.281 815.126 152.903 803.4C210.704 682.547 201.559 532.16 129.516 419.184C124.856 411.876 119.89 404.591 117.505 396.256C115.121 387.942 115.733 378.207 121.4 371.665C146.384 342.852 165.986 401.572 177.735 413.867C202.281 439.574 240.13 458.126 276.031 456.835C299.265 456.004 324.621 453.794 343.721 467.074C359.604 478.122 367.852 497.921 384.085 508.444C399.115 518.18 418.586 518.399 434.229 527.106C454.181 538.242 460.482 558.348 468.73 578.037C478.137 600.484 493.473 620.94 506.469 641.614C510.122 647.433 513.907 654.347 511.566 660.779C505.856 676.378 477.393 672.199 464.901 675.568C444.227 681.125 425.478 693.136 410.098 707.816C386.885 729.978 370.324 758.003 353.456 785.307C319.021 841.073 268.265 890.845 200.706 893.776ZM209.654 875.202C193.421 872.993 184.692 859.91 193.574 837.945C206.876 805.041 221.03 774.324 228.556 739.298C237.767 696.462 239.911 652.291 236.126 608.667C232.954 571.846 223.809 538.964 212.695 503.916C210.748 497.747 209.041 490.264 213.329 485.429C218.208 479.938 227.069 481.885 234.026 484.292C251.987 490.483 265.333 499.475 284.388 499.059C306.922 498.556 326.853 500.284 345.668 514.374C359.035 524.394 369.208 538.395 383.341 547.3C396.708 555.701 412.767 559.004 426.199 567.296C449.193 581.516 489.47 628.269 470.086 656.229C461.794 668.196 447.858 674.693 434.447 680.382C414.648 688.783 392.923 700.334 380.081 718.186C359.779 746.408 345.777 778.153 323.309 805.238C299.221 834.269 269.161 859.363 233.61 871.986C224.793 875.115 216.546 876.143 209.654 875.202ZM214.773 864.591C213.505 864.591 212.258 864.503 211.12 864.35C208.101 863.935 204.097 862.775 202.238 859.603C200.137 855.971 200.662 849.561 203.703 842.057C205.979 836.434 208.276 830.878 210.551 825.364C221.993 797.711 232.779 771.589 239.233 741.617C248.399 699.021 251.003 653.996 247.021 607.747C245.577 591.076 240.064 575.302 234.945 559.485C230.963 547.146 217.88 518.092 223.875 505.294C230.219 491.752 267.936 510.019 283.098 510.019C283.601 510.019 284.126 510.019 284.651 509.997C286.664 509.954 288.654 509.932 290.623 509.932C309.154 509.932 324.512 512.185 339.126 523.146C344.443 527.128 349.321 531.941 354.463 537.016C361.42 543.886 368.617 550.974 377.522 556.575C385.135 561.366 393.186 564.539 400.953 567.623C407.975 570.402 414.626 573.027 420.446 576.615C435.169 585.738 459.016 610.985 463.567 632.819C465.032 639.863 464.223 645.486 461.094 649.993C454.553 659.422 442.739 664.979 430.181 670.295C412.198 677.931 386.491 690.51 371.199 711.775C362.229 724.246 354.441 737.394 346.893 750.127C336.763 767.257 327.181 783.425 314.886 798.258C288.939 829.543 260.367 850.896 229.935 861.681C224.597 863.585 219.324 864.591 214.773 864.591ZM251.484 812.807C238.992 806.2 266.624 770.342 271.327 748.487C281.172 702.762 283.994 654.522 279.728 605.078C278.437 590.092 274.149 572.634 266.711 559.66C263.736 554.475 261.898 547.234 266.186 543.077C269.883 539.467 275.922 540.386 280.866 541.874C293.949 545.812 307.404 540.364 319.458 549.378C323.002 552.047 326.918 555.897 331.447 560.36C339.301 568.105 348.162 576.834 360.063 584.338C370.258 590.749 380.169 594.665 388.92 598.121C394.805 600.44 399.88 602.453 403.206 604.51C411.848 609.848 429.481 620.808 424.712 633.082C420.314 644.393 395.242 650.65 385.113 656.775C369.558 666.205 355.25 677.756 344.574 692.611C334.751 706.263 326.59 720.046 318.692 733.391C308.804 750.084 300.293 764.457 289.639 777.321C278.941 790.207 263.976 819.414 251.484 812.807ZM305.413 694.864C300.337 694.339 297.887 690.467 296.53 685.61C293.424 674.474 296.99 661.763 298.499 650.627C300.6 635.204 306.375 619.955 305.325 604.203C304.778 596.196 302.131 590.267 298.062 583.55C294.364 577.468 293.249 574.209 300.775 570.446C317.314 562.132 325.234 594.095 343.655 605.713C351.028 610.372 387.017 608.141 383.1 624.571C382.685 626.299 381.394 627.656 380.016 628.772C374.546 633.213 367.48 634.941 361.66 638.835C355.359 643.058 348.906 647.849 343.086 652.75C336.041 658.678 329.347 665.023 323.156 671.849C320.202 675.109 316.592 678.587 314.317 682.394C310.838 688.191 316.22 694.842 306.725 694.908C306.266 694.93 305.828 694.908 305.413 694.864ZM879.002 -24.627C864.891 -50.3114 833.562 -68.7543 833.956 -98.0704C834.175 -114.741 845.114 -129.027 852.552 -143.948C882.525 -204.155 847.476 -275.849 789.632 -305.821C758.172 -322.12 724.064 -313.763 693.326 -328.421C659.503 -344.523 638.216 -379.505 611.263 -404.096C591.201 -422.407 567.136 -436.343 541.254 -444.613C488.617 -461.437 384.151 -446.91 377.938 -375.239C376.012 -353.121 386.645 -331.046 402.987 -316.016C441.798 -280.312 533.225 -268.257 522.79 -194.639C520.427 -177.99 510.516 -162.085 513.251 -145.479C517.692 -118.526 550.421 -108.112 568.842 -87.9411C586.191 -68.9294 590.195 -41.1885 588.838 -15.4822C587.482 10.2241 581.641 35.6897 582.647 61.4179C583.982 95.1752 598.508 129.457 625.877 149.235C653.246 169.034 693.961 171.047 720.039 149.585C746.117 128.123 756.422 87.0585 788.822 77.5855C801.555 73.8663 815.207 76.1197 828.377 74.4789C871.739 69.1626 900.07 13.6808 879.002 -24.627ZM674.861 143.065C661.975 143.065 648.761 138.865 638.654 131.558C618.417 116.922 605.64 90.4059 604.459 60.6085C603.912 46.8474 605.662 32.7144 607.478 17.7281C608.747 7.38 610.06 -3.31821 610.629 -14.2789C612.619 -52.0617 603.978 -81.7934 584.944 -102.643C576.893 -111.46 567.158 -118.395 558.582 -124.521C544.645 -134.453 536.113 -141.06 534.801 -148.958C533.947 -154.121 536.201 -161.166 538.782 -169.348C540.882 -175.933 543.245 -183.415 544.405 -191.51C553.812 -257.843 499.206 -286.044 459.322 -306.652C442.98 -315.097 427.556 -323.061 417.755 -332.074C405.394 -343.451 398.481 -359.246 399.706 -373.314C401.215 -390.728 410.929 -404.096 429.438 -414.159C446.808 -423.61 470.939 -429.036 495.639 -429.036C510.035 -429.036 523.862 -427.155 534.56 -423.742C557.378 -416.456 578.797 -404.052 596.474 -387.906C604.722 -380.38 612.598 -371.563 620.911 -362.222C638.873 -342.072 657.469 -321.223 683.875 -308.643C702.099 -299.958 720.739 -297.945 737.191 -296.151C752.462 -294.488 766.901 -292.913 779.524 -286.394C825.402 -262.634 857.803 -203.652 832.928 -153.705C831.353 -150.555 829.537 -147.295 827.59 -143.839C820.414 -131.04 812.275 -116.535 812.035 -98.3549C811.685 -71.2484 828.88 -51.7992 842.707 -36.1566C849.467 -28.5213 855.834 -21.3016 859.794 -14.1039C866.182 -2.46495 865.635 13.0245 858.328 27.3325C851.021 41.6405 838.769 51.1791 825.599 52.7981C821.683 53.2794 817.176 53.3232 812.428 53.345C803.437 53.4107 793.242 53.4982 782.609 56.6048C755.59 64.5026 740.932 86.2491 728.002 105.458C720.826 116.09 714.044 126.154 706.081 132.717C698.008 139.39 686.916 143.065 674.861 143.065ZM652.896 109.68C650.424 110.073 647.886 110.073 645.348 109.592C625.068 105.742 616.076 76.9724 615.376 59.3171C614.938 48.2033 616.448 35.9299 618.198 21.7094C619.533 10.8143 620.911 -0.474541 621.545 -12.551C622.924 -38.8699 620.08 -65.9107 609.534 -90.2825C597.939 -117.083 575.821 -130.669 557.159 -151.146C552.828 -155.916 549.612 -162.019 549.59 -168.473C549.568 -177.837 555.803 -185.647 556.897 -194.748C558.056 -204.353 556.481 -216.014 554.972 -225.508C551.077 -249.771 539.066 -271.649 522.002 -289.151C494.852 -317.023 458.557 -330.653 426.046 -350.715C419.067 -355.024 411.432 -360.734 411.016 -368.939C410.71 -374.955 414.648 -380.556 419.658 -383.881C434.338 -393.639 456.675 -396.242 473.805 -396.242C484.744 -396.242 495.289 -394.886 502.728 -392.501C521.061 -386.638 538.279 -376.683 552.521 -363.688C559.522 -357.3 566.829 -349.096 574.574 -340.41C593.783 -318.861 615.551 -294.445 647.93 -279.021C671.186 -267.951 693.72 -265.501 711.813 -263.532C724.48 -262.154 735.419 -260.972 742.595 -257.253C773.945 -241.02 797.726 -200.502 781.712 -168.342C780.509 -165.936 778.89 -163.026 777.161 -159.963C768.957 -145.327 757.734 -125.331 757.384 -98.7929C757.121 -79.3874 763.16 -61.5571 772.764 -44.9301C775.98 -39.3512 779.065 -32.7661 783.55 -28.0842C789.741 -21.6084 797.989 -18.3924 803.065 -10.5602C808.468 -2.18103 809.015 10.2455 801.511 16.8307C795.035 22.497 785.453 21.9719 776.855 22.1469C742.091 22.9126 708.247 41.99 689.585 71.3062C683.984 80.101 679.631 89.7928 672.783 97.6469C667.598 103.641 660.466 108.476 652.896 109.68ZM649.899 72.0724C648.127 72.0724 646.399 71.7442 644.78 71.0879C630.165 65.2465 631.456 45.3816 631.872 38.8621C632.506 28.9515 635.372 19.9379 638.151 11.2087C640.667 3.28896 643.029 -4.17133 643.423 -11.4128C645.152 -44.3825 640.535 -73.8518 629.64 -98.9893C624.193 -111.591 616.164 -123.908 605.772 -135.591C603.584 -138.063 600.193 -140.798 596.627 -143.707C589.298 -149.658 581.006 -156.396 577.287 -165.476C573.458 -174.883 575.384 -183.634 576.915 -190.679C577.462 -193.195 577.987 -195.601 578.206 -197.723C579.059 -206.606 578.534 -216.822 576.587 -228.986C573.174 -250.252 557.488 -265.588 539.329 -283.309C535.391 -287.159 531.3 -291.141 527.297 -295.254C527.056 -295.517 503.45 -323.061 509.597 -340.716C511.785 -346.973 517.08 -351.064 524.146 -351.983C524.956 -352.092 525.765 -352.136 526.596 -352.136C532.897 -352.136 537.951 -349.073 540.97 -347.235C542.873 -346.076 544.799 -344.96 546.702 -343.866C556.066 -338.397 565.736 -332.752 573.59 -323.564C577.637 -318.816 581.269 -313.828 584.791 -309.015C587.219 -305.69 589.517 -302.539 591.923 -299.498C607.719 -279.458 622.508 -266.704 638.457 -259.331C665.17 -246.598 690.81 -243.82 709.538 -241.785C730.781 -239.488 757.143 -230.54 762.175 -201.027C765.676 -180.484 755.481 -161.91 747.277 -146.967C738.897 -131.74 735.856 -119.204 735.594 -99.0768C735.397 -83.653 738.963 -68.0761 746.489 -51.449C747.102 -50.0926 748.961 -47.1172 750.755 -44.2294C758.281 -32.1748 767.623 -17.1667 764.144 -4.74017C762.722 0.291695 759.309 4.40467 754.518 6.81122C749.005 9.58968 743.47 9.80847 738.701 9.80847H734.959C722.489 9.98349 708.531 17.3125 692.254 32.2331C691.029 33.3489 687.157 38.3588 684.356 41.9905C673.396 56.1673 665.016 66.4936 657.119 70.3003C654.668 71.4817 652.262 72.0724 649.899 72.0724ZM652.328 60.4764C650.993 61.1328 649.812 61.3078 648.849 60.9359C641.892 58.1574 642.417 45.2058 642.789 39.5614C643.905 22.2561 653.421 6.28542 654.34 -10.8229C656.156 -45.4991 651.234 -76.631 639.682 -103.322C633.381 -117.87 624.477 -130.997 613.954 -142.833C606.406 -151.321 591.617 -159.285 587.416 -169.589C583.741 -178.603 588.226 -187.573 589.101 -196.652C590.173 -207.81 589.167 -219.667 587.395 -230.694C582.56 -260.754 557.706 -279.722 535.129 -302.89C531.059 -307.069 509.029 -339.01 525.524 -341.132C529.003 -341.57 532.285 -339.688 535.282 -337.894C546.111 -331.331 557.138 -325.971 565.232 -316.476C571.664 -308.95 577.156 -300.505 583.281 -292.739C597.13 -275.171 613.21 -258.938 633.819 -249.421C662.107 -235.944 688.798 -233.057 708.291 -230.934C728.024 -228.79 747.517 -221.549 751.346 -199.212C754.146 -182.803 745.658 -166.833 737.629 -152.262C727.696 -134.169 724.852 -119.489 724.59 -99.2526C724.349 -80.9628 728.943 -63.5482 736.469 -46.9649C740.516 -38.0169 763.291 -9.92595 749.552 -2.99072C745.067 -0.737321 739.773 -1.21865 734.763 -1.15302C715.751 -0.890483 698.249 11.8423 684.816 24.1595C679.215 29.3007 661.735 55.9478 652.328 60.4764ZM670.705 2.56592C669.939 1.88771 669.261 0.728215 668.736 -1.00012C667.839 -3.99737 669.414 -7.10399 670.792 -9.92621C680.2 -29.4192 677.246 -49.328 674.533 -69.9149C672.127 -88.2921 667.445 -106.385 660.094 -123.384C654.581 -136.095 647.252 -147.974 638.698 -158.848C630.712 -169.021 616.776 -176.109 610.979 -187.464C606.253 -196.718 610.475 -205.119 611.394 -214.439C612.598 -226.515 611.197 -239.642 605.444 -250.471C603.803 -253.556 601.812 -256.86 602.512 -260.273C603.015 -262.767 605.094 -264.889 607.588 -265.436C616.754 -267.492 629.4 -248.831 636.991 -244.302C659.394 -230.957 685.407 -229.338 710.741 -226.603C735.944 -223.868 737.629 -214.045 738.438 -209.341C740.276 -198.578 733.034 -185.385 726.646 -173.768C714.394 -151.475 711.703 -133.185 711.441 -112.554C711.266 -99.0997 713.476 -85.7543 717.042 -72.8246C719.864 -62.6077 737.497 -43.0928 735.594 -33.3572C734.675 -28.6098 730.65 -24.9343 726.143 -23.1841C719.82 -20.7119 713.038 -21.7621 706.65 -19.3555C698.708 -16.3802 690.898 -11.9389 684.706 -6.0976C682.015 -3.53791 674.883 6.28513 670.705 2.56592ZM699.277 -34.8224C697.483 -36.0257 696.083 -38.0166 695.623 -40.6857C690.329 -70.7237 690.438 -99.4929 677.968 -128.328C672.542 -140.864 665.563 -152.743 657.141 -163.507C652.94 -168.867 648.389 -173.965 643.533 -178.734C634.081 -187.988 626.971 -193.895 627.387 -208.641C627.54 -213.979 630.406 -219.601 635.438 -221.352C638.96 -222.555 642.789 -221.724 646.42 -220.87C662.479 -217.085 678.537 -213.301 694.573 -209.538C701.333 -207.941 708.115 -207.437 714.657 -206.365C720.564 -205.381 725.224 -204.024 721.33 -196.302C708.597 -171.142 697.855 -147.646 696.323 -118.964C695.405 -101.878 697.308 -84.6379 701.99 -68.1859C704.199 -60.4412 710.981 -50.6837 711.682 -42.9828C712.272 -36.4851 705.818 -30.4032 699.277 -34.8224ZM1760.61 -452.074C1745.38 -478.327 1720.77 -497.82 1695.15 -514.097C1561.7 -598.917 1393.06 -609.922 1236.59 -587.125C1203.84 -582.356 1170.22 -575.814 1142.74 -557.349C1109.44 -534.99 1088.42 -495.414 1088.52 -455.29C1088.72 -382.875 1174.48 -344.305 1171.9 -276.484C1170.28 -233.822 1147.24 -193.699 1159.54 -150.359C1166.21 -126.84 1186.78 -107.216 1186.01 -82.7786C1185.09 -54.1189 1155.82 -35.1947 1144.49 -8.85394C1119.9 48.2249 1185.01 118.89 1153.2 172.293C1143.46 188.636 1126.42 199.05 1113.51 213.03C1100.6 226.988 1092 249.062 1102.9 264.661C1122.37 292.489 1167.81 264.202 1199.77 275.687C1223.49 284.22 1233.99 312.792 1255.95 325.153C1281.25 339.395 1315.46 326.619 1332.18 302.925C1348.91 279.21 1351.21 248.034 1347.23 219.287C1343.9 195.221 1336.31 171.199 1321.41 152.013C1297.74 121.493 1254.77 99.4407 1255.25 60.8265C1255.71 23.7439 1298.53 -2.94692 1297.74 -40.0296C1296.98 -76.1059 1254.99 -102.097 1256.44 -138.151C1257 -152.197 1264.49 -165.279 1274.4 -175.234C1317.02 -218.07 1389.71 -202.625 1443.47 -175.081C1497.24 -147.537 1551.74 -109.644 1611.77 -116.427C1666.07 -122.552 1712.78 -170.158 1717.88 -224.568C1720.7 -254.65 1712.48 -286.963 1725.84 -314.048C1735.38 -333.388 1754.44 -346.47 1765.11 -365.198C1780.14 -391.604 1775.83 -425.821 1760.61 -452.074ZM1285.95 309.226C1281.2 309.226 1276.93 308.154 1273.22 306.076C1266.65 302.378 1260.48 295.137 1253.99 287.458C1243.75 275.381 1232.13 261.708 1213.71 255.079C1205.85 252.257 1197.21 250.878 1187.28 250.878C1177.48 250.878 1168.03 252.191 1158.9 253.438C1151.38 254.466 1144.27 255.451 1138.36 255.451C1129.7 255.451 1128.28 253.416 1127.34 252.082C1124.25 247.684 1128.43 236.133 1136.09 227.863C1140.07 223.575 1144.79 219.418 1149.78 215.021C1159.52 206.467 1170.57 196.775 1178.51 183.473C1199.86 147.638 1188.29 108.323 1178.09 73.6473C1170 46.1033 1162.34 20.0906 1171.09 -0.211853C1174.46 -8.04407 1180.69 -15.92 1187.28 -24.2773C1199.62 -39.898 1213.6 -57.6189 1214.39 -82.0782C1215.04 -102.774 1205.79 -119.402 1197.61 -134.06C1193.21 -141.936 1189.07 -149.374 1187.11 -156.331C1181.02 -177.793 1185.99 -199.124 1191.74 -223.802C1195.59 -240.32 1199.58 -257.384 1200.28 -275.652C1201.87 -317.416 1177.11 -349.227 1155.27 -377.296C1135.58 -402.586 1117.01 -426.477 1116.92 -455.333C1116.83 -488.041 1134.31 -520.945 1161.46 -539.191C1185.9 -555.599 1218.06 -561.375 1246.26 -565.488C1292.27 -572.182 1337.36 -575.595 1380.26 -575.595C1502.3 -575.595 1606.48 -548.707 1689.94 -495.654C1708.06 -484.146 1733.81 -465.966 1748.22 -441.113C1760.94 -419.191 1762.69 -393.66 1752.67 -376.071C1748.84 -369.354 1742.95 -362.878 1736.72 -356.009C1728.51 -346.995 1719.21 -336.756 1712.8 -323.783C1701.54 -300.964 1702.28 -276.549 1702.92 -254.999C1703.22 -244.958 1703.51 -235.485 1702.67 -226.646C1698.56 -182.803 1659.64 -143.139 1615.89 -138.216C1612.01 -137.779 1608.05 -137.56 1604.09 -137.56C1565.41 -137.56 1528.03 -157.906 1488.43 -179.456C1479.13 -184.51 1469.55 -189.738 1460.01 -194.617C1423.27 -213.432 1384.79 -223.802 1351.67 -223.802C1316.8 -223.802 1286.98 -212.36 1265.45 -190.723C1250.51 -175.715 1241.89 -157.359 1241.14 -139.091C1240.11 -113.516 1253.53 -93.5421 1265.36 -75.9087C1274.03 -63.0227 1282.19 -50.8368 1282.43 -39.6136C1282.67 -27.734 1274.46 -15.4606 1264.95 -1.21826C1253.37 16.087 1240.25 35.7113 1239.94 60.5206C1239.5 96.5532 1264.6 120.028 1286.74 140.724C1295.75 149.147 1304.26 157.111 1310.69 165.402C1321.63 179.513 1328.85 198.656 1332.11 222.262C1334.85 242.127 1335.13 270.043 1320.84 290.28C1312.97 301.438 1298.62 309.226 1285.95 309.226ZM1282.25 300.059C1277.15 298.528 1273.43 293.058 1269.28 288.158C1260.42 277.722 1251.25 267.461 1240.18 259.279C1224.43 247.618 1210.89 245.234 1191.83 242.63C1187.24 241.996 1182.23 241.164 1179.14 237.708C1175.31 233.42 1176.04 226.484 1179.21 221.693C1185.4 212.351 1192.51 209.179 1197.02 198.153C1202.53 184.632 1205.05 170.631 1204.67 156.038C1203.89 126.219 1192.55 97.8654 1184.24 69.5994C1177.35 46.1903 1179.6 21.9936 1184.96 9.56708C1187.11 4.57896 1192.92 -2.77195 1198.55 -9.8822C1207.78 -21.5649 1211.13 -38.0825 1219.09 -50.7278C1225.59 -61.0322 1238.43 -68.6019 1246.55 -55.6941C1255.08 -42.1299 1243.4 -28.9158 1236.24 -18.2176C1222.39 2.4787 1216.88 28.2506 1216.44 63.1455C1216.05 95.1744 1226.22 131.907 1249.37 155.229C1269.43 175.444 1290.06 196.118 1299.69 223.596C1306.08 241.799 1313.16 285.138 1293.04 297.849C1288.71 300.518 1285.25 300.956 1282.25 300.059ZM1203.58 -168.649C1189.25 -167.271 1202.42 -214.089 1204.39 -222.49C1208.24 -239.029 1212.61 -257.779 1213.4 -278.125C1214.89 -317.417 1195.94 -356.359 1170.81 -385.785C1146.63 -414.095 1123.83 -441.486 1138.41 -481.894C1154.31 -526.021 1196.43 -531.665 1236.46 -537.507C1280.3 -543.895 1323.21 -547.133 1363.99 -547.133C1469.02 -547.133 1571.39 -524.774 1660.93 -468.045C1678.28 -457.041 1695.74 -444.067 1704.03 -425.274C1720.72 -387.448 1681.21 -367.32 1666.58 -337.632C1652.73 -309.563 1653.56 -281.035 1654.26 -258.129C1654.52 -249.071 1654.78 -240.583 1654.13 -233.516C1651.24 -202.603 1622.71 -173.528 1591.86 -170.049C1589.04 -169.721 1586.11 -169.568 1583.2 -169.568C1551.85 -169.568 1518.03 -187.989 1482.19 -207.46C1472.89 -212.514 1463.38 -217.699 1453.79 -222.599C1414.26 -242.858 1372.41 -254.016 1335.98 -254.016C1309.1 -254.016 1280.28 -247.496 1257.05 -232.313C1244.91 -224.371 1234.34 -214.176 1226.27 -202.122C1220.6 -193.655 1215.85 -171.405 1204.63 -168.802C1204.24 -168.736 1203.91 -168.671 1203.58 -168.649ZM1283.19 266.914C1272.03 265.317 1262.47 248.559 1253.22 241.711C1242.5 233.769 1213.07 233.616 1211.85 216.595C1211.48 211.585 1219.79 192.223 1221.58 185.945C1224.52 175.662 1227.6 166.517 1240.2 172.796C1258.47 181.875 1272.65 212.592 1279.04 230.816C1282.91 241.93 1287.15 255.406 1283.19 266.914ZM1582.37 -203.478C1573.49 -202.909 1564.34 -204.003 1555.92 -206.497C1533.25 -213.213 1513.94 -227.849 1493.66 -240.013C1454.63 -263.422 1410.43 -278.037 1365.21 -282.915C1344.84 -285.125 1317.85 -288.779 1298.27 -281.515C1281.95 -275.455 1266.3 -257.734 1247.75 -258.522C1231.15 -259.222 1235.98 -274.274 1236.53 -288.691C1238.71 -346.339 1206.49 -387.797 1182.95 -418.054C1168.86 -436.169 1155.56 -453.255 1155.51 -465.354C1155.4 -513.266 1208.28 -518.91 1244.25 -525.714C1287.46 -533.896 1331.54 -537.309 1375.49 -536.062C1464.41 -533.546 1552.9 -511.931 1632.4 -471.895C1648.4 -463.844 1664.8 -454.568 1675.33 -439.604C1688.24 -421.27 1682.13 -411.622 1669.77 -395.389C1646.54 -364.826 1632.19 -328.662 1631.55 -289.96C1631.16 -266.595 1634.83 -240.692 1620.72 -222.052C1611.75 -210.194 1597.4 -204.44 1582.37 -203.478ZM1423.45 390.742C1391.25 390.742 1371.6 369.105 1369.46 348.759C1368.41 338.761 1370.99 329.354 1373.02 323.162C1378.73 305.77 1388.18 289.471 1397.33 273.697C1412.9 246.853 1427.61 221.497 1421.22 195.309C1416.25 174.897 1399.52 159.473 1381.82 143.175C1377.79 139.477 1373.63 135.649 1369.67 131.776C1338.43 101.388 1327.52 67.2371 1340.47 40.3713C1344.45 32.1234 1350.23 25.4945 1355.83 19.0843C1362.72 11.2083 1368.65 4.38251 1369.54 -3.40594C1370.27 -9.68484 1367.53 -16.7514 1364.64 -24.2554C1363.44 -27.3839 1362.19 -30.6437 1361.12 -33.991C1352.22 -61.885 1359.28 -92.7982 1378.71 -110.891C1387.24 -118.833 1397.55 -122.858 1409.36 -122.858C1432.49 -122.858 1457.21 -107.434 1481.12 -92.4919C1497.31 -82.3844 1512.62 -72.8239 1524.77 -69.7829C1531.81 -68.0108 1539.1 -66.3481 1546.16 -64.7291C1572.7 -58.6253 1600.16 -52.3245 1625.03 -38.8478C1648.31 -26.2244 1673.31 0.750813 1690.29 31.5765C1721.88 88.896 1717.92 142.059 1679.94 170.325C1657.13 187.302 1627.81 187.433 1601.95 187.543C1599.17 187.564 1596.41 187.564 1593.66 187.608C1560.45 188.002 1538.92 196.184 1529.67 211.914C1525.22 219.462 1523.54 228.913 1521.77 238.911L1521.48 240.508C1515.6 273.412 1508.55 299.491 1499.28 322.572C1485.74 356.329 1467.95 377.288 1444.91 386.651C1438.24 389.386 1431.02 390.742 1423.45 390.742ZM1678.48 41.2896C1662.38 12.061 1638.95 -13.2076 1617.57 -24.7809C1587.53 -41.0798 1553.01 -46.418 1519.86 -54.7315C1479.63 -64.839 1419.18 -131.282 1383.94 -98.4431C1366.66 -82.3412 1362.13 -55.3879 1369.32 -32.8757C1373.04 -21.2587 1379.59 -9.8385 1378.21 2.28174C1376.06 21.0747 1356.33 32.5167 1348.12 49.5594C1335.22 76.3158 1353.79 107.645 1375.1 128.363C1396.41 149.081 1422.64 168.268 1429.66 197.146C1441.13 244.293 1396.34 284.898 1381.23 330.994C1378.99 337.776 1377.4 344.93 1378.16 352.018C1380.88 377.769 1414.59 390.698 1438.57 380.963C1462.55 371.205 1477.27 346.965 1486.92 322.921C1497.2 297.259 1503.63 270.218 1508.51 243.002C1510.5 231.91 1512.32 220.49 1518.05 210.798C1532.05 187.017 1563.75 181.438 1591.36 181.11C1618.97 180.782 1649.1 182.466 1671.24 165.992C1710.22 136.917 1702.41 84.7168 1678.48 41.2896ZM1423.45 357.926C1413.98 357.926 1402.86 352.741 1402.07 345.324C1401.79 342.524 1402.47 338.608 1404.18 333.401C1408.81 319.29 1417 305.157 1425.68 290.192C1442.96 260.373 1462.57 226.594 1453.07 187.586C1445.76 157.504 1423.58 137.092 1404 119.065C1399.95 115.346 1396.15 111.846 1392.49 108.279C1377.31 93.512 1362.28 70.6061 1369.96 54.6791C1372.01 50.413 1376.13 45.7092 1380.48 40.7211C1389.19 30.7449 1400.04 18.3184 1402.07 0.378723C1403.69 -13.9074 1398.97 -26.1589 1395.18 -36.0039C1394.09 -38.8261 1393.08 -41.4733 1392.3 -43.9236C1387.26 -59.7193 1390.83 -77.3527 1401 -86.8258C1403.45 -89.1011 1405.77 -89.998 1409.27 -89.998C1423.01 -89.998 1444.61 -76.5214 1463.64 -64.6199C1482.08 -53.0904 1499.52 -42.2171 1516.67 -37.9072C1524.04 -36.0476 1531.5 -34.3412 1538.7 -32.7004C1564.23 -26.8372 1588.34 -21.3021 1609.28 -9.94757C1627.07 -0.29951 1647.54 22.2345 1661.46 47.4595C1672.55 67.5651 1678.67 87.8894 1678.72 104.713C1678.76 121.909 1672.72 134.773 1660.25 144.049C1646.1 154.573 1624.53 154.682 1601.69 154.77C1598.82 154.791 1595.98 154.791 1593.18 154.835C1547.69 155.382 1516.78 168.99 1501.29 195.287C1493.85 207.932 1491.47 221.343 1489.35 233.179L1489.06 234.733C1483.59 265.383 1477.12 289.405 1468.71 310.364C1458.8 335.064 1446.6 350.509 1432.44 356.263C1429.84 357.357 1426.73 357.926 1423.45 357.926ZM1482.41 148.228C1461.45 143.196 1457.12 116.44 1443.07 102.088C1431.04 89.7926 1408.42 79.6633 1405.73 61.4173C1402.49 39.4959 1429.25 18.3401 1429.2 -7.23492C1429.18 -20.0553 1432.16 -35.479 1444.15 -40.0295C1461.69 -46.6804 1491.01 -19.3114 1508.73 -14.8483C1516.39 -12.9231 1523.98 -11.1948 1531.31 -9.51019C1555.72 -3.9095 1576.7 0.903602 1593.68 10.136C1615.8 22.125 1657.83 73.1218 1641.94 99.572C1635.77 109.854 1623.5 115.236 1611.53 116.155C1584.56 118.19 1567.45 113.508 1540.5 123.309C1522.84 129.719 1505.69 151.378 1485.47 148.797C1484.42 148.666 1483.39 148.469 1482.41 148.228ZM1489.1 114.1C1478.47 113.334 1476 101.826 1471.56 93.5348C1465.59 82.3772 1457.14 72.2916 1446.2 65.7939C1438.72 61.3527 1430.74 55.2489 1430.17 46.5634C1429.9 42.5817 1431.3 38.6875 1432.7 34.9245C1438.61 18.9319 1444.5 2.96116 1450.4 -13.0314C1457.12 -31.2118 1470.05 -24.014 1482.19 -16.2037C1500.42 -4.47723 1520.85 -0.0579786 1541.72 4.6676C1573.22 11.8216 1602.19 25.4296 1618.66 54.8332C1622.71 62.0747 1623.5 71.8102 1618.31 78.2642C1610.66 87.8247 1595.93 85.4182 1583.75 84.2587C1559.59 81.9396 1534.7 88.4373 1514.77 102.264C1507.72 107.143 1500.79 113.094 1492.28 114.034C1491.14 114.166 1490.09 114.165 1489.1 114.1ZM1499.12 67.3467C1488.84 64.7432 1480.73 56.3641 1473.4 48.4225C1467.05 41.5311 1460.55 34.3771 1457.51 25.5166C1445.85 -8.5032 1480.51 -0.320959 1499.1 4.53589C1518.38 9.54588 1538.48 13.5713 1556.6 22.1036C1561.52 24.4227 1576.22 30.2859 1574.47 37.4399C1572.87 43.9814 1538.13 56.4079 1531.57 59.7552C1522.32 64.4808 1512.32 69.3376 1502.01 67.9155C1501.07 67.7624 1500.09 67.5873 1499.12 67.3467ZM545.411 91.4774C544.973 90.7773 544.514 90.0991 544.076 89.399C528.302 64.2835 520.755 41.7713 519.398 11.602C517.867 -22.2866 519.005 -59.0848 498.899 -86.4101C482.009 -109.338 452.54 -121.655 439.107 -146.749C427.709 -168.058 430.4 -193.742 430.269 -217.917C429.962 -266.529 395.133 -309.322 345.689 -316.235C317.708 -320.151 264.567 -310.263 238.423 -296.283C197.49 -274.405 193.574 -225.312 186.048 -184.925C171.718 -108.047 84.076 -73.6116 84.076 6.83264C83.726 47.7002 101.994 88.3708 132.776 115.258C145.881 126.701 161.392 135.845 178.456 139.236C225.45 148.622 275.221 113.88 320.18 130.463C343.764 139.171 360.676 160.873 369.558 184.392C378.79 208.829 375.181 236.286 391.283 256.37C401.587 269.234 424.208 280.982 437.576 291.089C451.84 301.897 507.716 353.2 528.259 338.805C547.467 325.328 541.079 276.563 544.251 255.123C552.718 197.803 577.921 141.993 545.411 91.4774ZM501.152 288.617C473.543 292.861 429.262 249.915 418.827 227.972C408.522 206.313 403.731 182.313 392.792 160.96C376.296 128.735 345.646 104.078 310.641 94.8679C255.094 80.2536 201.931 132.191 154.325 90.5798C130.588 69.8398 116.586 38.6422 116.849 7.13837V6.85394C116.849 -24.3218 136.823 -48.0153 159.97 -75.428C187.995 -108.595 211.076 -142.636 218.952 -186.042C222.496 -205.535 225.078 -225.618 234.091 -243.252C251.659 -277.534 296.399 -284.272 331.556 -284.272C336.216 -284.272 339.323 -283.966 341.095 -283.726C419.745 -272.699 382.816 -184.882 406.312 -135.854C420.73 -105.772 456.062 -90.8956 473.127 -62.2358C503.865 -10.6482 482.381 52.9065 516.27 106.857C516.773 107.644 517.276 108.476 517.823 109.307C536.66 138.579 535.894 182.007 532.459 215.195C530.578 233.397 527.909 254.181 519.836 270.874C514.235 282.425 507.934 287.567 501.152 288.617ZM486.582 243.747C474.724 248.013 459.826 237.752 448.449 213.862C444.402 205.373 441.164 195.813 437.751 185.683C433.375 172.754 428.869 159.408 421.999 145.997C401.347 105.633 362.842 74.6539 318.999 63.1244C309.526 60.6303 299.462 59.3615 289.092 59.3615C269.118 59.3615 250.5 63.9558 234.092 67.9813C220.987 71.2192 208.604 74.2601 198.431 74.2601C189.308 74.2601 182.788 71.8317 175.963 65.8591C159.336 51.3323 149.512 29.4765 149.709 7.40192V6.85498C149.709 -11.4348 162.486 -27.493 185.086 -54.2713C206.744 -79.9338 226.631 -107.565 239.233 -138.894C252.053 -170.792 245.556 -211.922 272.859 -236.25C288.698 -250.383 327.05 -262.044 347.09 -248.851C364.68 -237.278 362.754 -213.147 363.607 -193.873C364.636 -170.748 365.795 -144.517 376.734 -121.655C387.323 -99.5581 404.453 -84.7469 419.549 -71.7078C429.875 -62.7817 439.632 -54.3588 444.949 -45.4327C456.106 -26.7054 458.207 -4.08386 460.635 22.1256C463.589 53.9358 466.936 89.9902 488.485 124.316C489.01 125.148 489.601 126.066 490.214 127.029C504.872 149.76 509.225 184.939 505.134 211.214C502.225 229.92 495.202 240.662 486.582 243.747ZM481.178 233.748C475.643 233.748 466.432 226.156 458.36 209.157C454.597 201.238 451.468 191.983 448.143 182.16C443.636 168.859 438.998 155.119 431.756 140.986C409.704 97.9092 368.595 64.8302 321.799 52.5131C311.429 49.7784 300.424 48.4 289.114 48.4C267.827 48.4 248.531 53.1475 231.51 57.348C219.061 60.4109 207.313 63.3206 198.431 63.3206C191.977 63.3206 187.973 61.8329 183.16 57.6105C168.896 45.1403 160.473 26.4129 160.648 7.46686V6.91992C160.648 -7.65062 172.506 -22.3962 193.464 -47.2274C220.812 -79.6501 238.073 -106.647 249.384 -134.826C254.481 -147.537 256.735 -161.123 258.901 -174.293C262.357 -195.317 265.639 -215.182 280.144 -228.112C288.742 -235.769 307.71 -243.711 324.556 -243.711C331.425 -243.711 337.135 -242.333 341.073 -239.751C350.896 -233.275 351.946 -220.302 352.428 -201.203C352.493 -198.555 352.559 -195.952 352.668 -193.436C353.74 -169.239 354.966 -141.848 366.867 -116.973C378.44 -92.8205 396.489 -77.2217 412.395 -63.4606C422.043 -55.1252 431.144 -47.2492 435.541 -39.8765C445.43 -23.2713 447.421 -1.78737 449.74 23.1094C452.803 56.1447 456.281 93.5774 479.231 130.113C479.778 130.966 480.39 131.951 481.025 132.935C492.992 151.488 498.461 182.992 494.326 209.507C491.92 225.019 486.669 232.085 482.906 233.441C482.337 233.66 481.769 233.748 481.178 233.748ZM327.356 31.3795C315.148 28.1634 302.284 26.5445 289.114 26.5445C276.009 26.5445 261.898 27.6165 249.121 30.5043C237.942 33.0203 227.331 39.0148 215.692 40.2399C204.972 41.3557 193.114 38.0084 186.901 29.1917C181.607 21.6657 181.344 11.4051 184.363 2.69775C189.045 -10.9977 200.968 -22.2209 210.157 -33.0941C239.079 -67.3765 257.435 -96.2331 269.664 -126.643C275.681 -141.586 278.219 -157.053 280.472 -170.705C283.404 -188.535 285.941 -203.937 294.649 -211.725C302.393 -218.661 318.123 -226.734 327.006 -217.632C336.304 -208.116 331.928 -190.482 331.884 -178.756C331.797 -162.588 334.247 -146.464 338.973 -131.019C345.558 -109.403 356.584 -89.101 371.308 -71.9489C384.325 -56.7877 406.597 -45.7394 416.77 -28.631C424.143 -16.2701 425.915 2.93847 427.993 25.1662C431.1 58.8578 380.081 45.2499 327.356 31.3795ZM400.996 21.5779C400.537 21.8842 400.055 22.1467 399.552 22.3655C395.417 24.2032 390.648 23.2187 386.251 22.1905C368.814 18.165 351.093 14.9271 333.81 10.4421L332.935 10.2234C299.09 1.3848 262.904 2.50058 230.175 15.1896C226.15 16.743 222.081 18.4932 217.771 18.6025C213.461 18.7119 208.757 16.7429 207.072 12.7612C204.819 7.42301 208.713 1.62546 212.389 -2.83759C228.731 -22.7244 246.54 -42.0206 261.679 -62.8044C272.421 -77.5499 285.504 -100.697 289.967 -118.483C295.677 -132.66 293.402 -147.274 294.911 -162.042C295.786 -170.53 298.434 -179.128 302.853 -186.457C303.947 -188.273 308.016 -195.755 310.444 -195.799C317.642 -195.886 316.373 -172.062 316.155 -167.62C315.411 -153.247 313.77 -138.676 318.058 -124.653C325.562 -100.062 338.251 -76.9155 354.725 -57.7288C361.595 -49.7434 369.711 -43.2895 377.587 -37.0543C391.808 -25.7873 404.54 -11.5449 406.728 7.40118C407.319 12.7393 405.394 18.7119 400.996 21.5779ZM481.528 169.997C478.728 163.477 474.133 157.898 470.721 151.663C463.851 139.193 461.948 124.666 457.309 111.211C454.334 102.548 448.712 99.7474 442.367 94.2342C441.317 93.3153 440.245 92.3308 438.91 91.9152C437.576 91.4995 435.869 91.8495 435.235 93.0966C434.622 94.278 435.147 95.7 435.672 96.9252C437.86 102.001 439.917 106.989 441.558 112.283C450.374 140.834 450.812 172.513 466.367 198.022C468.905 202.201 473.761 206.642 478.006 204.213C479.647 203.273 480.631 201.5 481.397 199.772C485.51 190.43 485.554 179.382 481.528 169.997ZM997.229 -207.241C994.735 -223.365 983.096 -236.469 971.085 -247.517C956.58 -260.841 940.128 -273.005 920.963 -277.599C910.287 -280.181 890.882 -280.006 890.925 -264.495C890.947 -260.841 892.304 -257.362 893.66 -253.971C900.114 -237.76 915.078 -219.164 904.774 -201.64C900.42 -194.223 893.769 -188.426 888.519 -181.6C878.28 -168.298 873.62 -150.84 875.895 -134.191C878.98 -111.613 900.508 -69.1268 926.105 -93.8705C942.775 -109.994 933.806 -140.032 956.121 -154.143C961 -157.228 966.71 -158.716 971.938 -161.166C988.959 -169.13 1000.12 -188.667 997.229 -207.241ZM912.606 -95.1173C904.73 -95.1173 891.582 -114.085 888.934 -133.491C887.075 -147.142 890.991 -161.822 899.392 -172.739C901.142 -175.015 903.155 -177.246 905.277 -179.609C909.149 -183.897 913.153 -188.36 916.413 -193.895C929.824 -216.757 912.912 -234.741 905.299 -255.065C904.118 -258.194 904.205 -262.044 906.371 -264.582C909.631 -268.41 916.457 -265.763 920.57 -264.757C939.188 -260.272 955.333 -246.905 965.835 -237.257C975.329 -228.527 986.487 -216.801 988.565 -203.346C990.644 -190.001 982.243 -174.84 969.466 -168.845C967.847 -168.079 966.053 -167.401 964.15 -166.657C960.518 -165.257 956.405 -163.66 952.445 -161.166C936.387 -151.037 932.712 -134.782 929.758 -121.721C927.658 -112.51 925.864 -104.547 920.679 -99.5147C918.622 -97.5238 915.516 -95.1173 912.606 -95.1173ZM909.281 -122.027C907.793 -121.808 906.152 -122.858 905.43 -124.259C902.871 -129.247 903.877 -138.982 904.227 -144.43C904.686 -151.606 906.634 -158.475 911.075 -164.251C912.409 -165.979 914.094 -167.861 916.063 -170.049C920.351 -174.796 925.164 -180.134 929.321 -187.223C942.382 -209.45 917.332 -235.944 928.533 -244.17C931.99 -246.708 935.971 -246.642 939.231 -243.711C941.113 -242.026 942.425 -239.838 943.804 -237.738C947.96 -231.328 952.795 -225.355 958.199 -219.952C962.881 -215.292 968.066 -209.691 969.116 -202.865C969.991 -197.177 965.594 -189.585 959.884 -186.894C958.834 -186.391 957.324 -185.822 955.749 -185.21C951.767 -183.678 946.363 -181.6 940.96 -178.165C932.274 -172.674 925.164 -165.104 920.198 -156.113C915.56 -147.712 910.768 -138.435 911.731 -128.569C911.95 -126.271 912.169 -123.384 910.134 -122.29C909.85 -122.158 909.565 -122.071 909.281 -122.027ZM2006.45 -95.7304C1996.16 -130.8 1983.69 -165.411 1966.24 -197.505C1953.92 -220.149 1938.56 -242.048 1916.84 -255.941C1896.99 -268.652 1873.37 -273.749 1850.28 -278.628C1780.08 -293.461 1803.71 -186.348 1787.54 -150.6C1774.37 -121.371 1748.6 -98.0495 1718.19 -87.8763C1707.05 -84.1353 1694.93 -81.8819 1685.85 -74.4216C1676.77 -66.9613 1672.62 -51.6906 1681.19 -43.6396C1684.58 -40.4455 1689.2 -39.0453 1693.36 -36.9888C1716.46 -25.6343 1723.57 3.70363 1724.86 29.4099C1726.15 55.1162 1724.92 83.0103 1739.95 103.904C1749.41 117.052 1764.39 125.803 1772.33 139.914C1786.12 164.417 1774.32 195.68 1781.39 222.896C1787.6 246.83 1812.33 266.302 1836.54 261.357C1868.18 254.881 1880.23 215.874 1880.52 183.582C1880.8 151.291 1876.49 115.367 1896.62 90.0986C1920.05 60.6731 1965.95 59.8856 1993.21 33.9605C2009.82 18.1648 2017.36 -5.3537 2017.95 -28.2596C2018.57 -51.1875 2012.9 -73.7652 2006.45 -95.7304ZM1828.87 251.184C1812.98 251.184 1796.44 237.248 1792 220.139C1789.4 210.119 1789.75 198.984 1790.14 187.192C1790.71 169.536 1791.32 151.29 1781.89 134.532C1776.67 125.234 1769.34 118.364 1762.25 111.714C1757.19 106.966 1752.45 102.503 1748.86 97.515C1737.81 82.1568 1737.07 61.5043 1736.26 39.6266C1736.13 35.9949 1735.99 32.4069 1735.82 28.8409C1733.87 -9.51071 1720.88 -35.6764 1698.21 -46.8121C1696.97 -47.4247 1695.67 -47.9936 1694.38 -48.5624C1692.02 -49.5906 1689.81 -50.5751 1688.7 -51.6252C1688.37 -51.9315 1687.38 -52.8723 1687.47 -55.4976C1687.6 -59.1949 1689.79 -63.5048 1692.81 -65.9989C1698.15 -70.3963 1705.72 -72.6497 1713.75 -75.0563C1716.41 -75.8439 1719.06 -76.6533 1721.69 -77.5284C1754.83 -88.6204 1783.19 -114.261 1797.54 -146.137C1803.27 -158.782 1804.56 -177.291 1805.94 -196.893C1809.02 -240.517 1812.89 -269.133 1837.94 -269.133C1841.01 -269.133 1844.4 -268.739 1848.05 -267.974C1869.91 -263.358 1892.53 -258.588 1910.95 -246.774C1927.77 -236.01 1942.28 -218.705 1956.63 -192.321C1971.6 -164.842 1984.09 -133.185 1995.97 -92.6897C2001.63 -73.3717 2007.63 -50.9252 2007.04 -28.6099C2006.45 -6.2728 1998.68 13.614 1985.68 25.9749C1974.57 36.5418 1959.37 42.58 1943.29 48.9683C1923.2 56.9318 1902.44 65.1797 1888.07 83.2288C1868.66 107.579 1869.1 139.805 1869.49 168.246C1869.56 173.518 1869.62 178.484 1869.58 183.429C1869.32 213.314 1858.33 245.693 1834.36 250.593C1832.58 250.987 1830.73 251.184 1828.87 251.184ZM1815.19 214.67C1812.61 212.942 1810.62 210.076 1809.7 206.925C1807.97 201.018 1809.61 194.302 1809.81 188.285C1810.47 168.18 1811.28 143.196 1797.36 118.452C1784.37 95.349 1762.2 87.2105 1757.89 58.3757C1755.25 40.6548 1756.45 22.0369 1749.56 5.49738C1743.35 -9.42321 1730.79 -22.1342 1729.67 -38.2361C1728.25 -58.9762 1746.21 -75.6033 1763.82 -86.6515C1782.81 -98.553 1800.36 -108.879 1811.34 -129.16C1824.01 -152.547 1826.92 -179.413 1824.1 -205.579C1823.29 -213.148 1821.95 -221.134 1825.06 -228.091C1834.27 -248.809 1861.62 -234.61 1874.28 -226.319C1889.29 -216.474 1901 -195.362 1910.45 -180.485C1932.85 -145.262 1948.95 -106.013 1957.55 -65.1457C1961.47 -46.5059 1963.61 -26.094 1954.64 -9.29193C1943.46 11.6888 1918.81 20.7461 1896.62 29.2784C1868.77 39.9984 1852.65 54.2846 1838.25 79.9471C1823.35 106.55 1823.18 139.17 1823.57 168.771C1823.75 182.466 1822.3 202.747 1815.19 214.67ZM1809.64 105.194C1802.94 106.726 1796.88 95.4367 1792.31 89.8141C1787.19 83.5133 1782.94 76.4031 1781.72 68.2427C1780.98 63.2983 1780.56 58.0258 1780.12 52.4689C1779.09 39.4079 1777.93 24.6186 1771.94 10.1793C1769.07 3.26597 1765.33 -2.90353 1762.05 -8.35107C1757.92 -15.1988 1754.02 -21.6746 1753.67 -26.6627C1753.13 -34.67 1762.07 -45.2806 1777.63 -55.0381L1780.25 -56.6789C1799.57 -68.7554 1819.52 -81.2475 1832.74 -105.663C1846.43 -130.932 1845.25 -161.32 1846.61 -189.17C1846.78 -192.889 1847.22 -197.134 1850.24 -199.365C1852.6 -201.115 1855.97 -201.006 1858.66 -199.825C1861.35 -198.621 1863.52 -196.521 1865.58 -194.399C1902.97 -155.785 1927.38 -99.6467 1938.3 -47.5997C1941.08 -34.3855 1943.48 -17.7585 1937.49 -6.51337C1930.44 6.72263 1911.21 14.1173 1892.62 21.2713L1890.93 21.9276C1873.3 28.7097 1856.85 38.2265 1843.59 51.8126C1835.58 60.0167 1829.41 69.7304 1823.99 79.7941C1820.22 86.7731 1819.39 96.3118 1813.9 102.416C1812.44 103.991 1811.04 104.866 1809.64 105.194ZM1811.06 81.8073C1808.76 82.4636 1806.77 80.1445 1805.59 72.2029C1804.93 67.8493 1804.56 62.9049 1804.14 57.6543C1802.44 35.9516 1799.37 13.3739 1786.64 -4.87213C1783.56 -9.3133 1780.49 -14.1702 1780.43 -19.5958C1780.32 -28.5438 1789.81 -31.366 1796.11 -35.3259C1816.35 -47.993 1839.28 -62.3448 1854.7 -90.7858C1863.45 -106.932 1867.55 -125.834 1866.87 -144.146C1866.71 -148.259 1866.74 -153.225 1870.24 -155.391C1873.21 -157.228 1877.32 -155.828 1879.6 -153.181C1887.76 -143.73 1893.8 -128.59 1899.57 -117.411C1909.44 -98.3336 1917.65 -78.3811 1924.1 -57.9036C1928.23 -44.777 1931.65 -30.7097 1928.08 -17.4081C1922.46 3.61638 1905.9 7.51061 1887.98 12.9363C1869.8 18.4276 1850.72 32.6919 1837.59 46.1029C1832.13 51.7036 1827.55 58.0481 1823.4 64.6771C1820.53 69.2933 1815.3 80.6259 1811.06 81.8073ZM1816.53 27.2664C1815.76 27.157 1815.02 26.9164 1814.3 26.4788C1808.39 22.8471 1808.87 9.76429 1806.92 3.94482C1804.17 -4.34682 1798.08 -11.3915 1795.74 -19.7706C1793.42 -28.0623 1801.91 -29.1561 1807.75 -33.1379C1812.2 -36.157 1816.61 -39.2636 1820.92 -42.5015C1843.63 -59.5224 1864.68 -81.4438 1871.11 -109.95C1871.55 -111.941 1872.03 -114.107 1873.63 -115.354C1877.35 -118.286 1879.91 -112.094 1881.22 -109.775C1884.61 -103.759 1886.51 -97.1082 1889.18 -90.7856C1893.56 -80.4374 1897.43 -69.8705 1900.8 -59.1505C1904.63 -46.9865 1909.86 -33.4223 1900.36 -22.3084C1893.08 -13.798 1881.18 -11.4133 1870.63 -7.67224C1857.33 -2.94666 1845.06 4.71049 1834.95 14.5773C1831.29 18.1872 1823.02 28.1415 1816.53 27.2664ZM1813.11 -8.00128C1812.83 -7.80438 1812.52 -7.60752 1812.24 -7.4325C1811.39 -6.86368 1810.31 -6.27298 1809.37 -6.68866C1808.32 -7.14809 1808.13 -8.54825 1808.1 -9.70776C1808.04 -13.0332 1808.24 -16.468 1809.79 -19.3996C1812.44 -24.3877 1817.23 -22.9437 1821.12 -25.8535C1830.16 -32.6355 1836.55 -42.3711 1843.15 -51.3629C1847.24 -56.9417 1856.3 -71.2935 1865.23 -66.9617C1867.06 -66.0647 1868.38 -64.1614 1868.55 -62.1049C1868.95 -57.4449 1866.19 -53.9007 1868.03 -48.9344C1868.92 -46.506 1870.5 -44.2745 1870.78 -41.7148C1871.05 -39.3301 1870.08 -36.8579 1868.31 -35.2609C1865.75 -32.9856 1860.44 -32.4387 1857.13 -31.3885C1854.86 -30.6447 1852.58 -29.9227 1850.37 -29.1351C1836.7 -24.2564 1825.12 -15.9648 1813.11 -8.00128ZM1904.5 319.924C1892.51 297.215 1868.64 277.24 1844.07 278.094C1826.15 278.728 1808.83 287.873 1791.04 285.598C1765.62 282.316 1749.36 257.835 1728.71 242.652C1695.06 217.908 1649.49 218.324 1607.99 223.049C1599.89 223.968 1590.51 225.893 1586.96 233.244C1584.12 239.151 1586.35 246.218 1589.22 252.125C1599.54 273.456 1618.01 290.739 1639.97 299.665C1659.36 307.541 1680.97 309.007 1700.05 317.648C1738.6 335.085 1759.69 380.678 1755.53 422.793C1751.4 464.907 1725.65 502.69 1692.65 529.184C1673.18 544.826 1648.79 561.169 1648.13 586.11C1647.78 599.367 1654.87 611.991 1664.65 620.939C1674.43 629.887 1686.7 635.619 1699.04 640.432C1709.63 644.567 1721.4 648.898 1726.76 658.918C1731.82 668.37 1729.61 680.249 1733.63 690.182C1738.38 701.843 1750.59 708.428 1762.12 713.481C1773.6 718.513 1786.49 722.998 1798.41 719.148C1806.27 716.61 1812.54 710.747 1818.32 704.862C1842.8 679.812 1863.5 649.424 1869.36 614.879C1872.77 594.751 1871.05 574.186 1870.83 553.774C1870.35 507.153 1878.02 460.466 1893.43 416.47C1901.74 392.711 1915.7 367.945 1912.02 342.086C1910.97 334.801 1908.35 327.231 1904.5 319.924ZM1788.54 697.292C1784.06 698.298 1779.44 698.233 1774.83 696.767C1764.92 693.638 1756.67 685.653 1753.21 675.852C1751.18 670.054 1750.76 663.819 1749.56 657.781C1745.49 637.457 1725.54 627.24 1707.86 620.37L1706.98 620.02C1697.6 616.366 1686.97 611.684 1679.42 604.771C1673.47 599.324 1669.86 592.388 1670.01 586.656C1670.34 574.58 1685.39 562.722 1699.96 551.258C1702.13 549.552 1704.27 547.867 1706.35 546.183C1747.06 513.454 1772.92 469.239 1777.3 424.871C1782.64 370.57 1754.57 318.261 1709.06 297.652C1697.07 292.226 1685.06 289.382 1673.47 286.626C1664.39 284.46 1655.81 282.425 1648.22 279.341C1640.3 276.124 1633.76 270.699 1627.66 264.814C1620.31 257.703 1602.23 244.271 1619.06 238.692C1624.55 236.876 1631.88 238.932 1637.2 240.508C1664.28 248.449 1691.01 241.995 1715.78 260.219C1721.14 264.157 1726.48 269.167 1732.14 274.484C1746.96 288.354 1763.74 304.084 1788.28 307.256C1791.1 307.628 1794.01 307.803 1796.97 307.803C1807.73 307.803 1817.69 305.397 1826.46 303.253C1833.11 301.634 1839.41 300.102 1844.88 299.927C1845.14 299.927 1845.38 299.906 1845.65 299.906C1859.1 299.906 1876.1 312.879 1885.2 330.097C1887.94 335.304 1889.75 340.489 1890.41 345.105C1892.66 360.835 1885.75 377.44 1879.38 391.42C1871.57 408.572 1865.73 426.446 1861.51 444.802C1853.13 481.184 1850.83 518.661 1849.58 555.853C1848.64 583.681 1848.12 612.013 1839.19 638.375C1832.89 656.774 1812.19 691.976 1788.54 697.292ZM1782.59 686.222C1780.25 686.2 1777.91 685.784 1775.7 684.909C1769.29 682.35 1764.79 676.289 1762.49 669.77C1758.88 659.575 1760.3 649.949 1754.28 640.498C1749.08 632.315 1741.88 625.796 1733.7 620.676C1720.61 612.494 1703.81 610.088 1691.5 601.358C1685.96 597.442 1681.83 590.77 1682.9 584.075C1683.9 577.709 1689.2 572.917 1694.56 569.329C1742.62 537.169 1782.4 484.838 1788.17 425.965C1793.97 367.07 1763.28 310.21 1713.55 287.72C1700.62 281.879 1688.1 278.903 1676.01 276.015C1667.32 273.959 1659.16 272.012 1652.31 269.233C1648.11 267.527 1633.76 261.576 1633.87 255.691C1634.09 245.124 1660.32 255.735 1665.57 256.26C1681.87 257.879 1695.96 259.279 1709.24 269.058C1714.09 272.624 1719.19 277.415 1724.6 282.491C1739.82 296.755 1758.77 314.52 1786.82 318.13C1790.08 318.545 1793.49 318.764 1796.9 318.764C1808.96 318.764 1820.05 316.073 1828.95 313.929C1835.08 312.442 1840.83 311.041 1845.19 310.888H1845.58C1853.81 310.888 1867.76 320.668 1875.44 335.238C1877.57 339.286 1879.01 343.333 1879.49 346.68C1881.28 359.282 1875.18 374.071 1869.34 386.935C1861.53 404.087 1855.27 422.749 1850.74 442.395C1842.12 479.85 1839.78 518.901 1838.54 555.525L1838.4 559.703C1837.57 585.125 1836.7 611.4 1828.73 634.897C1823.51 650.321 1812.48 669.661 1799.53 679.921C1794.76 683.75 1788.61 686.266 1782.59 686.222ZM1784.87 659.99C1779.73 658.634 1779.77 646.12 1777.21 640.147C1773.82 632.228 1769.23 624.811 1763.58 618.292C1752.21 605.165 1736.58 596.02 1719.3 593.482C1715.87 592.979 1711.89 592.41 1710.07 589.457C1707.95 586.044 1710.03 581.625 1712.19 578.234C1725.23 557.756 1741.99 539.97 1757.98 521.724C1773.97 503.478 1789.51 484.335 1799.4 462.172C1809.31 440.01 1813.13 414.26 1805.22 391.311C1802.11 382.275 1797.27 373.918 1794.39 364.817C1785.48 336.813 1808.89 339.11 1829.28 335.479C1836.81 334.144 1845.4 333.028 1851.4 337.776C1856.19 341.561 1857.9 348.19 1857.33 354.272C1856.74 360.332 1854.22 366.02 1851.86 371.621C1830.48 422.092 1818.65 476.568 1817.16 531.35C1816.53 554.934 1817.77 578.693 1814.16 602.036C1812.3 614.069 1809.5 626.168 1804.54 637.325C1801.56 643.998 1796.88 653.405 1790.95 657.868C1788.33 659.815 1786.38 660.384 1784.87 659.99ZM1786.64 621.989C1786.29 621.967 1785.94 621.88 1785.61 621.748C1783.05 620.698 1782.03 615.185 1780.87 612.932C1778.33 608.031 1775.27 603.437 1771.66 599.258C1766.25 593.045 1759.23 588.779 1751.9 585.213C1747.17 582.915 1733.13 580.115 1732.45 573.771C1731.79 567.623 1741.18 561.672 1744.53 557.515C1749.69 551.105 1755.05 544.848 1760.52 538.701C1762.69 536.272 1764.85 533.822 1767 531.371C1776.53 520.476 1785.31 508.925 1792.94 496.608C1796.57 490.767 1801.63 483.985 1803.66 477.377C1804.58 474.358 1803.47 463.616 1808.5 463.616C1811.93 463.616 1801.52 513.979 1800.97 518.135C1799.02 532.837 1800.4 548.633 1799.51 563.488C1798.61 578.606 1797.27 593.679 1795.55 608.709C1795.2 611.816 1794.78 615.032 1793.16 617.723C1792.05 619.582 1789.2 622.164 1786.64 621.989ZM1782.2 592.651C1780.03 593.679 1778.33 590.441 1777.76 588.582C1774.65 578.627 1765.88 576.133 1757.48 572.02C1756.14 571.364 1754.92 570.336 1754.37 568.935C1753.12 565.851 1755.93 563.029 1757.72 560.885C1760.3 557.822 1762.73 554.627 1765.25 551.499C1767.76 548.349 1770.3 545.176 1772.81 542.026C1774.24 540.254 1775.83 538.635 1777.28 536.863C1778.59 535.222 1779.4 533.253 1780.71 531.678C1781.39 530.868 1782.35 530.212 1783.43 530.19C1785.29 530.124 1786.75 531.962 1786.97 533.8C1787.21 535.747 1786.27 537.454 1786.03 539.313C1785.74 541.391 1785.83 543.689 1785.72 545.811C1785.53 550.405 1785.53 555.021 1785.35 559.616C1784.98 568.695 1784.72 577.796 1784.56 586.897C1784.54 588.625 1784.43 590.529 1783.27 591.819C1782.9 592.213 1782.55 592.498 1782.2 592.651ZM1295.07 930.947C1290.13 915.457 1271.51 904.169 1274.22 888.132C1275.29 881.744 1279.71 876.515 1282.58 870.718C1288.09 859.56 1287.55 845.624 1281.2 834.904C1274.86 824.184 1262.89 817.03 1250.46 816.483C1228.65 815.542 1210.43 833.088 1189.03 837.551C1142.74 847.199 1099.79 794.189 1053.85 805.369C1023.02 812.851 1006.61 845.383 984.146 867.764C956.996 894.827 893.66 893.558 879.702 933.528C876.158 943.701 877.252 956.981 886.375 962.713C891.647 966.017 898.32 966.017 904.533 965.579C960.102 961.619 1014.8 931.494 1068.92 944.708C1087.98 949.368 1105.33 959.169 1123.51 966.542C1160.26 981.484 1200.89 986.472 1240.29 981.834C1254.49 980.172 1269.08 977.043 1280.52 968.467C1291.97 959.847 1299.43 944.577 1295.07 930.947ZM1211.83 972.536C1182.75 972.536 1153.63 966.957 1127.62 956.368C1122 954.093 1116.26 951.468 1110.73 948.952C1098.3 943.286 1085.48 937.444 1071.53 934.031C1061.48 931.581 1051.18 930.4 1040 930.4C1014.58 930.4 989.221 936.766 964.718 942.936C944.634 947.989 923.873 953.196 903.767 954.64C902.039 954.771 900.682 954.815 899.457 954.815C896.066 954.815 893.703 954.356 892.194 953.415C888.212 950.921 887.971 943.001 890.028 937.116C896.525 918.498 918.556 910.447 941.878 901.915C960.102 895.242 978.961 888.351 991.846 875.509C998.782 868.595 1005.08 860.872 1011.19 853.412C1025.03 836.457 1038.14 820.421 1056.43 815.979C1059.89 815.148 1063.34 814.732 1067.02 814.732C1083.12 814.732 1099.7 822.674 1117.27 831.075C1136.37 840.22 1156.1 849.649 1177.39 849.649C1182.09 849.649 1186.75 849.168 1191.24 848.249C1201.59 846.105 1210.75 841.554 1219.62 837.157C1229.74 832.125 1239.31 827.4 1248.73 827.4C1249.15 827.4 1249.54 827.4 1249.96 827.421C1258.73 827.793 1267.29 832.934 1271.77 840.482C1276.23 848.03 1276.63 858.006 1272.76 865.882C1272.03 867.348 1271.09 868.902 1270.11 870.564C1267.48 874.962 1264.49 879.95 1263.41 886.316C1261.01 900.537 1269.32 911.475 1275.97 920.27C1279.69 925.171 1283.21 929.809 1284.64 934.294C1287.57 943.526 1281.49 954.071 1273.96 959.716C1263.94 967.242 1250 969.692 1239 970.983C1230.03 972.011 1220.88 972.536 1211.83 972.536ZM1211.78 951.161C1191.44 948.886 1170.96 948.974 1151.53 940.179C1129.28 930.093 1106.55 920.708 1082.68 915.173C1052.08 908.084 1019.04 907.647 990.096 919.854C984.89 922.042 979.77 924.646 974.191 925.455C954.326 928.299 961.874 912.613 973.054 906.99C984.19 901.368 998.147 900.165 1007.31 891.02C1015.04 883.319 1021.69 875.18 1028.12 867.304C1034.88 859.013 1042.47 845.864 1052.05 841.007C1064.5 834.707 1082.55 839.082 1094.65 843.873C1110.49 850.13 1124.8 859.932 1140.81 865.751C1170.39 876.493 1204.96 872.336 1231.12 854.9C1234.16 852.865 1237.23 850.612 1240.81 849.89C1244.4 849.168 1248.73 850.524 1250.09 853.915C1251.01 856.212 1250.4 858.794 1249.78 861.2C1245.96 875.902 1237.62 892.858 1243.59 907.494C1248.38 919.264 1263.22 932.959 1255.56 946.545C1250.11 956.368 1239.06 956.237 1229.5 954.049C1223.64 952.693 1217.71 951.818 1211.78 951.161ZM1232.2 935.016C1231.04 937.357 1229.09 939.195 1226.07 940.201C1217.65 943.001 1205.29 935.607 1197.26 933.506C1181.22 929.284 1165.16 925.083 1149.13 920.861C1117.8 912.635 1086.47 904.409 1055.16 896.161C1048.77 894.477 1041.57 892.136 1038.97 886.076C1036.11 879.381 1040.59 871.658 1046.32 867.173C1063.93 853.456 1089.6 859.319 1109.88 868.639C1130.16 877.959 1150.74 890.495 1172.95 888.263C1185.05 887.038 1197.26 881.437 1208.9 884.938C1218.67 887.891 1225.68 896.883 1228.89 906.597C1231.36 914.057 1236.02 927.293 1232.2 935.016Z" stroke="#0A0A0B" stroke-width="2" stroke-miterlimit="10"/>
</g>
</svg>
