<svg width="100" height="100" viewBox="0 0 100 100" fill="none" xmlns="http://www.w3.org/2000/svg">
<circle cx="50" cy="50" r="50" fill="#FE8C12"/>
<path d="M40.9214 29.6273C41.0202 29.4296 41.1935 29.2793 41.4032 29.2094C41.6129 29.1396 41.8417 29.1558 42.0394 29.2547L43.7061 30.088C43.8048 30.1364 43.893 30.2039 43.9655 30.2866C44.0381 30.3693 44.0935 30.4655 44.1287 30.5697C44.1639 30.6739 44.1781 30.784 44.1705 30.8937C44.1629 31.0034 44.1337 31.1106 44.0845 31.2089C44.0353 31.3073 43.9671 31.395 43.8839 31.4669C43.8007 31.5388 43.704 31.5935 43.5995 31.6278C43.4951 31.6622 43.3848 31.6755 43.2752 31.6671C43.1655 31.6587 43.0586 31.6286 42.9606 31.5786L41.294 30.7453C41.0963 30.6465 40.946 30.4731 40.8761 30.2635C40.8063 30.0538 40.8225 29.825 40.9214 29.6273ZM34.1667 53.3333C34.3315 53.3333 34.4926 53.2844 34.6297 53.1928C34.7667 53.1013 34.8735 52.9711 34.9366 52.8189C34.9997 52.6666 35.0162 52.499 34.984 52.3374C34.9519 52.1757 34.8725 52.0272 34.7559 51.9107C34.6394 51.7942 34.4909 51.7148 34.3293 51.6826C34.1676 51.6505 34.0001 51.667 33.8478 51.7301C33.6955 51.7931 33.5654 51.8999 33.4738 52.037C33.3822 52.174 33.3334 52.3351 33.3334 52.5C33.3334 52.721 33.4212 52.9329 33.5774 53.0892C33.7337 53.2455 33.9457 53.3333 34.1667 53.3333ZM47.5 53.3333C47.6648 53.3333 47.8259 53.2844 47.963 53.1928C48.1 53.1013 48.2068 52.9711 48.2699 52.8189C48.333 52.6666 48.3495 52.499 48.3173 52.3374C48.2852 52.1757 48.2058 52.0272 48.0893 51.9107C47.9727 51.7942 47.8242 51.7148 47.6626 51.6826C47.5009 51.6505 47.3334 51.667 47.1811 51.7301C47.0288 51.7931 46.8987 51.8999 46.8071 52.037C46.7155 52.174 46.6667 52.3351 46.6667 52.5C46.6667 52.721 46.7545 52.9329 46.9107 53.0892C47.067 53.2455 47.279 53.3333 47.5 53.3333ZM52.5 53.3333C52.6648 53.3333 52.8259 53.2844 52.963 53.1928C53.1 53.1013 53.2068 52.9711 53.2699 52.8189C53.333 52.6666 53.3495 52.499 53.3173 52.3374C53.2852 52.1757 53.2058 52.0272 53.0892 51.9107C52.9727 51.7942 52.8242 51.7148 52.6626 51.6826C52.5009 51.6505 52.3334 51.667 52.1811 51.7301C52.0288 51.7931 51.8987 51.8999 51.8071 52.037C51.7155 52.174 51.6667 52.3351 51.6667 52.5C51.6667 52.721 51.7545 52.9329 51.9107 53.0892C52.067 53.2455 52.279 53.3333 52.5 53.3333ZM50 28.3333C50.221 28.3333 50.433 28.2455 50.5893 28.0893C50.7455 27.933 50.8333 27.721 50.8333 27.5V25.8333C50.8333 25.6123 50.7455 25.4004 50.5893 25.2441C50.433 25.0878 50.221 25 50 25C49.779 25 49.567 25.0878 49.4107 25.2441C49.2545 25.4004 49.1667 25.6123 49.1667 25.8333V27.5C49.1667 27.721 49.2545 27.933 49.4107 28.0893C49.567 28.2455 49.779 28.3333 50 28.3333ZM45.088 28.706C45.1364 28.8048 45.2039 28.893 45.2866 28.9655C45.3693 29.0381 45.4655 29.0935 45.5697 29.1287C45.6739 29.1639 45.784 29.1781 45.8937 29.1705C46.0035 29.1629 46.1106 29.1337 46.209 29.0845C46.3073 29.0353 46.395 28.9671 46.4669 28.8839C46.5388 28.8006 46.5935 28.704 46.6278 28.5995C46.6622 28.4951 46.6756 28.3848 46.6671 28.2752C46.6587 28.1655 46.6286 28.0586 46.5786 27.9606L45.7453 26.294C45.6454 26.0981 45.4722 25.9496 45.2633 25.8809C45.0544 25.8122 44.8269 25.8288 44.6302 25.9271C44.4335 26.0255 44.2837 26.1976 44.2134 26.4059C44.143 26.6143 44.1579 26.8419 44.2547 27.0394L45.088 28.706ZM53.794 29.0786C53.8918 29.1277 53.9984 29.1569 54.1076 29.1648C54.2167 29.1726 54.3264 29.1588 54.4302 29.1242C54.5341 29.0896 54.6301 29.0348 54.7127 28.9631C54.7954 28.8913 54.8631 28.804 54.912 28.706L55.7453 27.0394C55.7953 26.9414 55.8253 26.8345 55.8338 26.7248C55.8422 26.6152 55.8289 26.5049 55.7945 26.4005C55.7601 26.296 55.7054 26.1993 55.6335 26.1161C55.5616 26.0329 55.474 25.9647 55.3756 25.9155C55.2772 25.8663 55.1701 25.8371 55.0604 25.8295C54.9507 25.8219 54.8405 25.8361 54.7363 25.8713C54.6321 25.9065 54.5359 25.9619 54.4533 26.0345C54.3706 26.107 54.3031 26.1952 54.2547 26.294L53.4213 27.9606C53.3225 28.1583 53.3062 28.3871 53.3761 28.5968C53.446 28.8065 53.5963 28.9798 53.794 29.0786ZM56.6673 31.6667C56.7965 31.6666 56.9239 31.6364 57.0394 31.5784L58.706 30.7451C58.8048 30.6967 58.893 30.6292 58.9655 30.5465C59.038 30.4638 59.0935 30.3676 59.1287 30.2634C59.1639 30.1592 59.1781 30.0491 59.1705 29.9394C59.1629 29.8297 59.1337 29.7225 59.0845 29.6242C59.0353 29.5258 58.9671 29.4381 58.8839 29.3662C58.8006 29.2943 58.704 29.2396 58.5995 29.2053C58.495 29.1709 58.3848 29.1576 58.2752 29.166C58.1655 29.1744 58.0586 29.2045 57.9606 29.2545L56.2939 30.0878C56.1259 30.1717 55.9911 30.31 55.9115 30.4801C55.8319 30.6502 55.8121 30.8423 55.8553 31.0251C55.8985 31.2079 56.0023 31.3707 56.1496 31.4872C56.297 31.6036 56.4794 31.6669 56.6673 31.6667ZM75 63.3333V74.1666C75 74.3876 74.9122 74.5996 74.7559 74.7558C74.5996 74.9121 74.3876 74.9999 74.1666 74.9999H25.8334C25.6124 74.9999 25.4004 74.9121 25.2441 74.7558C25.0878 74.5996 25 74.3876 25 74.1666V63.3333C25 63.1894 25.0373 63.0479 25.1082 62.9227C25.1791 62.7975 25.2812 62.6927 25.4046 62.6187L28.1188 60.9902L28.3334 59.9172V59.3294C27.6316 58.6779 27.0734 57.8872 26.6943 57.0079C26.1979 55.8678 25.9071 54.6488 25.8356 53.4074L25.0085 47.6177C25.0025 47.5758 24.9996 47.5336 25 47.4913C25.0151 46.0531 25.7311 43.3333 28.3334 43.3333H31.6667V40C31.6667 39.8251 31.7217 39.6546 31.824 39.5127C31.9262 39.3708 32.0706 39.2647 32.2365 39.2094L44.1875 35.2257C44.2917 33.6792 44.799 32.4395 45.7025 31.5358C46.7217 30.5168 48.1675 30 50 30C51.8325 30 53.2783 30.5168 54.2975 31.5358C55.201 32.4395 55.7083 33.6792 55.8125 35.2257L67.7635 39.2094C67.9294 39.2647 68.0738 39.3708 68.176 39.5127C68.2783 39.6546 68.3333 39.8251 68.3333 40V43.3333H71.6666C74.2689 43.3333 74.9849 46.0531 75 47.4913C75.0004 47.5337 74.9976 47.576 74.9915 47.6179L74.1644 53.4076C74.0929 54.649 73.8021 55.868 73.3057 57.0081C72.9266 57.8874 72.3684 58.6781 71.6666 59.3296V59.9174L71.8812 60.9904L74.5954 62.6189C74.7187 62.6929 74.8208 62.7976 74.8917 62.9228C74.9626 63.048 74.9999 63.1894 75 63.3333ZM70.0539 60.3523C69.504 60.5785 68.9246 60.7249 68.3333 60.7872V62.65L70.6041 63.1043L70.0539 60.3523ZM64.9185 60.4904L64.3958 63.1041L66.6666 62.6498V60.8029C66.0741 60.7638 65.4878 60.659 64.9184 60.4904H64.9185ZM62.5162 64.0032L62.7377 62.8961L60.7787 63.8753C60.8143 63.9683 60.8328 64.067 60.8333 64.1666V73.3333H66.6666V64.3497L63.4967 64.9838C63.3622 65.0107 63.2231 65.004 63.0918 64.9642C62.9605 64.9245 62.841 64.8529 62.744 64.7559C62.647 64.6589 62.5754 64.5394 62.5357 64.4081C62.4959 64.2768 62.4892 64.1377 62.5161 64.0032H62.5162ZM72.415 54.1666H70.8333C70.6894 54.1666 70.5479 54.1294 70.4227 54.0585C70.2975 53.9876 70.1928 53.8854 70.1187 53.762L67.8615 50H63.4005C63.3578 50.0823 63.3219 50.1679 63.293 50.256C62.8034 51.7707 62.0222 53.0263 61.4505 53.9435C61.283 54.2125 61.089 54.5237 60.9623 54.7567C61.4793 54.8934 62.0092 54.9754 62.5433 55.0015C62.6602 55.0076 62.7746 55.0383 62.8788 55.0915C62.9831 55.1447 63.075 55.2194 63.1485 55.3105C63.222 55.4016 63.2755 55.5072 63.3055 55.6204C63.3355 55.7336 63.3413 55.8518 63.3225 55.9673C63.2976 56.2001 63.303 56.4352 63.3385 56.6666C64.364 56.6214 65.3695 56.3678 66.2938 55.9214C66.3918 55.8711 66.4989 55.8407 66.6087 55.832C66.7186 55.8233 66.8291 55.8364 66.9338 55.8707C67.0385 55.905 67.1354 55.9597 67.2188 56.0317C67.3023 56.1036 67.3706 56.1915 67.4199 56.29C67.4692 56.3886 67.4984 56.4959 67.5059 56.6059C67.5134 56.7158 67.4991 56.8261 67.4637 56.9305C67.4283 57.0348 67.3725 57.1311 67.2996 57.2138C67.2268 57.2964 67.1382 57.3638 67.0391 57.412C66.1443 57.8492 65.1841 58.1372 64.1964 58.2647C64.8998 58.8634 66.0081 59.1666 67.5 59.1666C71.2083 59.1666 72.1677 55.7951 72.415 54.1666ZM71.6666 45H60.7237L62.9459 48.3333H68.3333C68.4772 48.3333 68.6187 48.3706 68.7439 48.4415C68.8691 48.5124 68.9738 48.6145 69.0479 48.7379L71.3051 52.5H72.6106L73.3312 47.455C73.3068 47.0023 73.2162 46.5557 73.0621 46.1294C72.677 45.1171 72.0813 45 71.6666 45ZM53.3333 42.652V43.3333H55C55.1094 43.3333 55.2178 43.3549 55.3189 43.3967C55.42 43.4386 55.5119 43.5 55.5893 43.5774L57.2559 45.244C57.3333 45.3214 57.3947 45.4133 57.4366 45.5144C57.4784 45.6155 57.5 45.7239 57.5 45.8333V54.1666C57.4995 55.382 57.2036 56.579 56.6377 57.6546C56.0717 58.7302 55.2528 59.652 54.2513 60.3407L54.3301 60.7347L59.0968 62.8533L63.1516 60.8258L63.3333 59.9174V59.7059C63.0794 59.5174 62.8476 59.301 62.6421 59.0608C62.0602 58.3619 61.7153 57.4963 61.657 56.5888C61.4799 56.5656 61.2864 56.536 61.0923 56.4986C60.616 56.4068 59.1666 56.1275 59.1666 55C59.1666 54.457 59.5125 53.9019 60.0359 53.0618C60.5906 52.1715 61.2808 51.0635 61.707 49.7438C61.7257 49.6857 61.7465 49.6284 61.7683 49.5714L58.4733 44.6289C58.3896 44.5034 58.3416 44.3576 58.3343 44.2069C58.327 44.0563 58.3608 43.9064 58.4319 43.7734C58.5031 43.6405 58.609 43.5293 58.7384 43.4518C58.8678 43.3742 59.0158 43.3333 59.1666 43.3333H66.6666V40.6006L55.5037 36.8797C55.3122 37.3978 55.0095 38.2026 54.5299 39.477C54.0134 40.8497 53.4972 42.2177 53.3333 42.652ZM48.3333 45H51.6667V43.3333H48.3333V45ZM46.6667 45.8333V45H45.3451L44.1667 46.1784V49.0312L44.2095 48.9029C44.2648 48.737 44.371 48.5927 44.5128 48.4905C44.6547 48.3883 44.8251 48.3333 45 48.3333H55C55.1749 48.3333 55.3453 48.3883 55.4872 48.4906C55.6291 48.5929 55.7352 48.7372 55.7905 48.9031L55.8333 49.0312V46.1784L54.6549 45H53.3333V45.8333C53.3333 46.0543 53.2455 46.2663 53.0892 46.4226C52.933 46.5788 52.721 46.6666 52.5 46.6666H47.5C47.279 46.6666 47.067 46.5788 46.9107 46.4226C46.7545 46.2663 46.6667 46.0543 46.6667 45.8333ZM44.1699 54.2923C44.2028 55.8168 44.8314 57.2678 45.9212 58.3343C47.011 59.4009 48.4752 59.9981 50 59.9981C51.5248 59.9981 52.989 59.4009 54.0788 58.3343C55.1686 57.2678 55.7972 55.8168 55.8301 54.2923L54.3994 50H45.6006L44.1699 54.2923ZM46.8958 63.1041L49.1667 62.6498V61.6186C48.522 61.5469 47.8895 61.3912 47.2853 61.1554L46.8958 63.1041ZM50.8333 62.6498L53.1042 63.1041L52.7145 61.1562C52.1103 61.3919 51.4779 61.5476 50.8333 61.6192V62.6498ZM45.8347 35.6858L48.0775 41.6666H51.9238C52.7923 39.3646 53.9311 36.3389 54.1655 35.6955C54.1194 33.0218 52.7187 31.6667 50 31.6667C47.2848 31.6667 45.8841 33.0186 45.8347 35.6858ZM33.3334 43.3333H40.8333C40.9842 43.3333 41.1322 43.3742 41.2616 43.4518C41.391 43.5293 41.4969 43.6405 41.5681 43.7734C41.6392 43.9064 41.673 44.0563 41.6657 44.2069C41.6584 44.3576 41.6104 44.5034 41.5267 44.6289L38.2317 49.5714C38.2535 49.6284 38.2743 49.686 38.293 49.7438C38.7192 51.0635 39.4094 52.1715 39.9641 53.0618C40.4875 53.9019 40.8333 54.457 40.8333 55C40.8333 56.1275 39.384 56.4068 38.9077 56.4986C38.7136 56.536 38.5204 56.5656 38.343 56.5888C38.2847 57.4963 37.9398 58.3619 37.3579 59.0608C37.1524 59.301 36.9205 59.5174 36.6667 59.7059V59.9174L36.8484 60.8258L40.9032 62.8533L45.6699 60.7347L45.7486 60.3407C44.7472 59.652 43.9283 58.7302 43.3623 57.6546C42.7964 56.579 42.5004 55.382 42.5 54.1666V45.8333C42.5 45.7239 42.5216 45.6155 42.5634 45.5144C42.6053 45.4133 42.6667 45.3214 42.7441 45.244L44.4107 43.5774C44.4881 43.5 44.58 43.4386 44.6811 43.3967C44.7822 43.3549 44.8906 43.3333 45 43.3333H46.6667V42.651L44.5017 36.8779L33.3334 40.6006V43.3333ZM39.1667 64.1666C39.1673 64.0671 39.1858 63.9686 39.2214 63.8757L37.2624 62.8965L37.4839 64.0036C37.5108 64.1381 37.5041 64.2772 37.4643 64.4085C37.4246 64.5398 37.353 64.6593 37.256 64.7563C37.159 64.8533 37.0395 64.9249 36.9082 64.9647C36.7769 65.0044 36.6378 65.0111 36.5032 64.9842L33.3334 64.3497V73.3333H39.1667V64.1666ZM33.3334 60.8029V62.65L35.6042 63.1043L35.0814 60.4904C34.5121 60.659 33.9258 60.7638 33.3334 60.8029ZM26.6688 47.455L27.3894 52.5H28.6949L30.9521 48.7379C31.0262 48.6145 31.1309 48.5124 31.2561 48.4415C31.3813 48.3706 31.5228 48.3333 31.6667 48.3333H37.0541L39.2763 45H28.3334C27.9187 45 27.323 45.1171 26.9375 46.1294C26.7836 46.5558 26.6931 47.0024 26.6688 47.455ZM32.5 59.1666C33.9919 59.1666 35.1002 58.8634 35.8036 58.2647C34.8159 58.1372 33.8557 57.8492 32.9609 57.412C32.8618 57.3638 32.7732 57.2964 32.7004 57.2138C32.6275 57.1311 32.5717 57.0348 32.5363 56.9305C32.5009 56.8261 32.4866 56.7158 32.4941 56.6059C32.5016 56.4959 32.5308 56.3886 32.5801 56.29C32.6294 56.1915 32.6977 56.1036 32.7812 56.0317C32.8646 55.9597 32.9615 55.905 33.0662 55.8707C33.1709 55.8364 33.2814 55.8233 33.3913 55.832C33.5011 55.8407 33.6081 55.8711 33.7062 55.9214C34.6305 56.3678 35.636 56.6214 36.6615 56.6666C36.697 56.4351 36.7024 56.1999 36.6775 55.9669C36.6587 55.8514 36.6645 55.7331 36.6945 55.62C36.7245 55.5068 36.778 55.4012 36.8515 55.3101C36.925 55.2189 37.0169 55.1443 37.1212 55.0911C37.2254 55.0379 37.3398 55.0072 37.4567 55.0011C37.9908 54.975 38.5207 54.893 39.0377 54.7563C38.911 54.5233 38.717 54.212 38.5495 53.9431C37.9784 53.0264 37.1962 51.7707 36.707 50.2556C36.6781 50.1676 36.6422 50.0821 36.5995 50H32.1385L29.8813 53.762C29.8072 53.8854 29.7025 53.9876 29.5773 54.0585C29.4521 54.1294 29.3106 54.1666 29.1667 54.1666H27.585C27.8323 55.7951 28.7917 59.1666 32.5 59.1666ZM29.9461 60.3523L29.3959 63.1041L31.6667 62.65V60.7872C31.0754 60.7249 30.496 60.5785 29.9461 60.3523ZM26.6667 73.3333H31.6667V64.3497L28.4968 64.9838C28.3623 65.0107 28.2232 65.004 28.0919 64.9642C27.9605 64.9245 27.8411 64.8529 27.7441 64.7559C27.647 64.6589 27.5755 64.5394 27.5357 64.4081C27.496 64.2768 27.4893 64.1377 27.5162 64.0032L27.6771 63.1989L26.6667 63.805V73.3333ZM40.8333 73.3333H49.1667V64.3497L45.9968 64.9838C45.8622 65.0107 45.7231 65.004 45.5918 64.9642C45.4605 64.9245 45.341 64.8529 45.244 64.7559C45.147 64.6589 45.0755 64.5394 45.0357 64.4081C44.996 64.2768 44.9892 64.1377 45.0162 64.0032L45.2695 62.7365L40.8333 64.7083V73.3333ZM59.1666 64.7083L54.7305 62.7366L54.9838 64.0033C55.0108 64.1378 55.004 64.2769 54.9643 64.4082C54.9245 64.5395 54.853 64.659 54.756 64.756C54.6589 64.853 54.5395 64.9246 54.4082 64.9643C54.2769 65.0041 54.1378 65.0108 54.0032 64.9839L50.8333 64.3497V73.3333H59.1666V64.7083ZM73.3333 63.8051L72.3229 63.199L72.4837 64.0033C72.5106 64.1378 72.5039 64.2769 72.4642 64.4082C72.4244 64.5395 72.3528 64.659 72.2558 64.756C72.1588 64.853 72.0393 64.9246 71.908 64.9643C71.7767 65.0041 71.6376 65.0108 71.5031 64.9839L68.3333 64.3497V73.3333H73.3333V63.8051ZM65.8333 51.6666C65.6685 51.6666 65.5074 51.7155 65.3703 51.8071C65.2333 51.8986 65.1265 52.0288 65.0634 52.1811C65.0003 52.3333 64.9838 52.5009 65.016 52.6625C65.0481 52.8242 65.1275 52.9727 65.244 53.0892C65.3606 53.2058 65.5091 53.2851 65.6707 53.3173C65.8324 53.3494 65.9999 53.3329 66.1522 53.2699C66.3045 53.2068 66.4346 53.1 66.5262 52.9629C66.6178 52.8259 66.6666 52.6648 66.6666 52.5C66.6666 52.2789 66.5788 52.067 66.4226 51.9107C66.2663 51.7544 66.0543 51.6666 65.8333 51.6666ZM47.0377 57.3601C47.9142 57.9467 48.9452 58.2598 49.9999 58.2598C51.0547 58.2598 52.0856 57.9467 52.9622 57.3601C53.1437 57.2364 53.269 57.0462 53.311 56.8307C53.353 56.6151 53.3083 56.3917 53.1865 56.209C53.0646 56.0263 52.8756 55.8991 52.6605 55.855C52.4454 55.8108 52.2216 55.8534 52.0377 55.9734C51.4347 56.3769 50.7255 56.5923 49.9999 56.5923C49.2744 56.5923 48.5652 56.3769 47.9622 55.9734C47.8712 55.9114 47.7688 55.8681 47.6609 55.8459C47.553 55.8237 47.4418 55.8231 47.3337 55.8442C47.2256 55.8653 47.1228 55.9075 47.0311 55.9686C46.9395 56.0296 46.8608 56.1083 46.7997 56.1999C46.7386 56.2915 46.6963 56.3943 46.6752 56.5024C46.6541 56.6105 46.6546 56.7217 46.6768 56.8296C46.6989 56.9375 46.7422 57.0399 46.8041 57.131C46.8661 57.222 46.9455 57.2999 47.0377 57.3601Z" fill="white"/>
</svg>
