<svg width="100" height="100" viewBox="0 0 100 100" fill="none" xmlns="http://www.w3.org/2000/svg">
<circle cx="50" cy="50" r="50" fill="#FE8C12"/>
<path d="M55.8333 42.5V39.3021L56.7122 36.6655C57.2047 36.6566 57.6835 36.5023 58.0886 36.2222C58.4937 35.942 58.8071 35.5484 58.9893 35.0908C59.1715 34.6332 59.2145 34.132 59.1129 33.6501C59.0112 33.1681 58.7695 32.7269 58.418 32.3819C58.0665 32.0368 57.6209 31.8033 57.1372 31.7106C56.6534 31.6179 56.1531 31.6702 55.6989 31.8608C55.2448 32.0515 54.8571 32.372 54.5845 32.7823C54.3119 33.1925 54.1665 33.6741 54.1667 34.1667C54.1667 34.2007 54.1679 34.2345 54.1693 34.2681L52.8494 34.796L51.9271 33.258C52.2294 32.8925 52.4214 32.4484 52.4808 31.9778C52.5401 31.5072 52.4644 31.0294 52.2624 30.6002C52.0603 30.171 51.7404 29.8082 51.3399 29.554C50.9393 29.2999 50.4748 29.1649 50.0004 29.1649C49.5261 29.1649 49.0615 29.2999 48.661 29.554C48.2605 29.8082 47.9405 30.171 47.7385 30.6002C47.5365 31.0294 47.4607 31.5072 47.5201 31.9778C47.5794 32.4484 47.7715 32.8925 48.0737 33.258L47.151 34.796L45.8311 34.2681C45.8325 34.2345 45.8337 34.2007 45.8337 34.1667C45.8339 33.6741 45.6885 33.1925 45.4159 32.7823C45.1433 32.372 44.7556 32.0515 44.3015 31.8608C43.8473 31.6702 43.347 31.6179 42.8632 31.7106C42.3795 31.8033 41.9339 32.0368 41.5824 32.3819C41.2309 32.7269 40.9892 33.1681 40.8876 33.6501C40.7859 34.132 40.8289 34.6332 41.0111 35.0908C41.1934 35.5484 41.5067 35.942 41.9118 36.2222C42.3169 36.5023 42.7958 36.6566 43.2882 36.6655L44.1667 39.3021V42.5C44.1667 42.721 44.2545 42.933 44.4107 43.0893C44.567 43.2455 44.779 43.3333 45 43.3333H55C55.221 43.3333 55.433 43.2455 55.5893 43.0893C55.7455 42.933 55.8333 42.721 55.8333 42.5ZM56.6667 33.3333C56.8315 33.3333 56.9926 33.3822 57.1296 33.4738C57.2667 33.5653 57.3735 33.6955 57.4366 33.8478C57.4996 34 57.5161 34.1676 57.484 34.3292C57.4518 34.4909 57.3725 34.6394 57.2559 34.7559C57.1394 34.8725 56.9909 34.9518 56.8292 34.984C56.6676 35.0161 56.5 34.9996 56.3478 34.9366C56.1955 34.8735 56.0653 34.7667 55.9738 34.6296C55.8822 34.4926 55.8333 34.3315 55.8333 34.1667C55.8336 33.9457 55.9215 33.7339 56.0777 33.5777C56.2339 33.4215 56.4457 33.3336 56.6667 33.3333ZM50 30.8333C50.1648 30.8333 50.3259 30.8822 50.463 30.9738C50.6 31.0653 50.7068 31.1955 50.7699 31.3478C50.833 31.5 50.8495 31.6676 50.8173 31.8292C50.7852 31.9909 50.7058 32.1394 50.5893 32.2559C50.4727 32.3725 50.3242 32.4518 50.1626 32.484C50.0009 32.5161 49.8334 32.4996 49.6811 32.4366C49.5288 32.3735 49.3987 32.2667 49.3071 32.1296C49.2155 31.9926 49.1667 31.8315 49.1667 31.6667C49.1669 31.4457 49.2548 31.2339 49.411 31.0777C49.5672 30.9215 49.7791 30.8336 50 30.8333ZM47.1905 36.6071C47.3744 36.6806 47.5784 36.6863 47.7661 36.6231C47.9537 36.5599 48.1127 36.4319 48.2146 36.2621L49.5019 34.1163C49.8306 34.1829 50.1694 34.1829 50.4981 34.1163L51.7854 36.2621C51.8873 36.4319 52.0463 36.5599 52.2339 36.6231C52.4216 36.6863 52.6256 36.6806 52.8095 36.6071L54.7895 35.8154C54.8931 35.9333 55.0075 36.0412 55.1313 36.1378L54.3993 38.3333H45.6007L44.8687 36.1375C44.9925 36.0409 45.1069 35.933 45.2105 35.8151L47.1905 36.6071ZM42.5 34.1667C42.5 34.0018 42.5489 33.8407 42.6404 33.7037C42.732 33.5667 42.8622 33.4598 43.0144 33.3968C43.1667 33.3337 43.3343 33.3172 43.4959 33.3493C43.6576 33.3815 43.806 33.4609 43.9226 33.5774C44.0391 33.694 44.1185 33.8424 44.1507 34.0041C44.1828 34.1657 44.1663 34.3333 44.1032 34.4856C44.0402 34.6378 43.9333 34.768 43.7963 34.8596C43.6593 34.9511 43.4981 35 43.3333 35C43.1124 34.9998 42.9006 34.9119 42.7444 34.7556C42.5881 34.5994 42.5002 34.3876 42.5 34.1667ZM54.1667 41.6667H45.8333V40H54.1667V41.6667ZM72.4445 45C71.7966 45.0016 71.1735 45.2486 70.7004 45.6912C70.2273 46.1338 69.9394 46.7391 69.8946 47.3854L69.4746 53.6866C68.8988 53.4666 68.2717 53.4179 67.6689 53.5464C67.0661 53.6749 66.5134 53.9751 66.0774 54.4107L59.6548 60.8333H59.1667V56.6667C59.1667 56.4457 59.0789 56.2337 58.9226 56.0774C58.7663 55.9211 58.5543 55.8333 58.3333 55.8333H54.1667V50.9517C55.852 50.3514 57.3897 49.3982 58.677 48.1557C59.9642 46.9133 60.9713 45.4103 61.6308 43.7473L67.209 38.966C67.3002 38.8878 67.3735 38.7908 67.4237 38.6815C67.474 38.5723 67.5 38.4535 67.5 38.3333V33.3333C67.4981 31.9312 66.992 30.5765 66.074 29.5167C65.1561 28.4568 63.8875 27.7625 62.5 27.5605V25.8333C62.5 25.6123 62.4122 25.4004 62.2559 25.2441C62.0996 25.0878 61.8877 25 61.6667 25H38.3333C38.1123 25 37.9004 25.0878 37.7441 25.2441C37.5878 25.4004 37.5 25.6123 37.5 25.8333V27.5605C36.1125 27.7625 34.8439 28.4568 33.926 29.5167C33.008 30.5765 32.5019 31.9312 32.5 33.3333V38.3333C32.5 38.4535 32.526 38.5723 32.5763 38.6815C32.6265 38.7908 32.6998 38.8878 32.791 38.966L38.3692 43.7473C39.0287 45.4103 40.0358 46.9133 41.323 48.1557C42.6103 49.3982 44.148 50.3514 45.8333 50.9517V55.8333H41.6667C41.4457 55.8333 41.2337 55.9211 41.0774 56.0774C40.9211 56.2337 40.8333 56.4457 40.8333 56.6667V60.8333H40.3452L33.9226 54.4107C33.4864 53.9755 32.9336 53.6757 32.3308 53.5476C31.7281 53.4194 31.1011 53.4683 30.5255 53.6884L30.1054 47.3854C30.0614 46.7237 29.762 46.1051 29.2703 45.6601C28.7786 45.2151 28.1332 44.9787 27.4704 45.0008C26.8076 45.0229 26.1794 45.3017 25.7184 45.7784C25.2575 46.2551 24.9998 46.8924 25 47.5555V58.3333C25 58.4627 25.0301 58.5903 25.088 58.706L29.1667 66.8634V70C28.9457 70 28.7337 70.0878 28.5774 70.2441C28.4211 70.4004 28.3333 70.6123 28.3333 70.8333V74.1667C28.3333 74.3877 28.4211 74.5996 28.5774 74.7559C28.7337 74.9122 28.9457 75 29.1667 75H40.8333C41.0543 75 41.2663 74.9122 41.4226 74.7559C41.5789 74.5996 41.6667 74.3877 41.6667 74.1667V70.8333C41.6667 70.6123 41.5789 70.4004 41.4226 70.2441C41.2663 70.0878 41.0543 70 40.8333 70V67.5H59.1667V70C58.9457 70 58.7337 70.0878 58.5774 70.2441C58.4211 70.4004 58.3333 70.6123 58.3333 70.8333V74.1667C58.3333 74.3877 58.4211 74.5996 58.5774 74.7559C58.7337 74.9122 58.9457 75 59.1667 75H70.8333C71.0543 75 71.2663 74.9122 71.4226 74.7559C71.5789 74.5996 71.6667 74.3877 71.6667 74.1667V70.8333C71.6667 70.6123 71.5789 70.4004 71.4226 70.2441C71.2663 70.0878 71.0543 70 70.8333 70V66.8634L74.912 58.706C74.9699 58.5903 75 58.4627 75 58.3333V47.5555C74.9992 46.878 74.7297 46.2284 74.2507 45.7493C73.7716 45.2703 73.122 45.0008 72.4445 45ZM59.1667 65.8333H40.8333V62.5H59.1667V65.8333ZM65.8333 33.3333V37.95L62.3775 40.9122C62.4589 40.3339 62.4998 39.7506 62.5 39.1667V29.2505C63.4404 29.4439 64.2854 29.9555 64.8926 30.6992C65.4998 31.4429 65.8321 32.3732 65.8333 33.3333ZM34.1667 37.95V33.3333C34.1679 32.3732 34.5002 31.4429 35.1074 30.6992C35.7145 29.9555 36.5596 29.4439 37.5 29.2505V39.1667C37.5002 39.7506 37.5411 40.3339 37.6225 40.9122L34.1667 37.95ZM39.1667 39.1667V26.6667H60.8333V39.1667C60.8333 42.0398 59.692 44.7953 57.6603 46.827C55.6287 48.8586 52.8732 50 50 50C47.1268 50 44.3713 48.8586 42.3397 46.827C40.308 44.7953 39.1667 42.0398 39.1667 39.1667ZM47.5 51.4153C49.1498 51.7505 50.8502 51.7505 52.5 51.4153V55.8333H47.5V51.4153ZM42.5 57.5H57.5V60.8333H42.5V57.5ZM40 73.3333H30V71.6667H40V73.3333ZM30.8333 70V66.6667C30.8333 66.5373 30.8032 66.4097 30.7453 66.294L26.6667 58.1366V47.5555C26.6667 47.3249 26.7563 47.1034 26.9167 46.9376C27.077 46.7719 27.2955 46.675 27.5259 46.6673C27.7564 46.6596 27.9808 46.7418 28.1518 46.8965C28.3228 47.0512 28.427 47.2663 28.4424 47.4964L28.9429 55.0043C28.5703 55.6153 28.4139 56.3338 28.4988 57.0444C28.5836 57.755 28.9048 58.4165 29.4107 58.9226L33.5774 63.0893C33.6548 63.1667 33.7466 63.228 33.8478 63.2699C33.9489 63.3118 34.0572 63.3334 34.1667 63.3334C34.2761 63.3334 34.3845 63.3118 34.4856 63.2699C34.5867 63.228 34.6786 63.1667 34.7559 63.0893C34.8333 63.0119 34.8947 62.92 34.9366 62.8189C34.9785 62.7178 35 62.6094 35 62.5C35 62.3906 34.9785 62.2822 34.9366 62.1811C34.8947 62.08 34.8333 61.9881 34.7559 61.9107L30.5893 57.7441C30.4478 57.6026 30.3356 57.4346 30.259 57.2497C30.1824 57.0649 30.143 56.8668 30.143 56.6667C30.143 56.4666 30.1824 56.2684 30.259 56.0836C30.3356 55.8987 30.4478 55.7308 30.5893 55.5893C30.7308 55.4478 30.8987 55.3356 31.0836 55.259C31.2684 55.1824 31.4666 55.143 31.6667 55.143C31.8668 55.143 32.0649 55.1824 32.2497 55.259C32.4346 55.3356 32.6026 55.4478 32.7441 55.5893L39.1667 62.0118V70H30.8333ZM70 73.3333H60V71.6667H70V73.3333ZM73.3333 58.1366L69.2547 66.294C69.1968 66.4097 69.1667 66.5373 69.1667 66.6667V70H60.8333V62.0118L67.2559 55.5893C67.5417 55.3035 67.9292 55.143 68.3333 55.143C68.7374 55.143 69.125 55.3035 69.4107 55.5893C69.6965 55.875 69.857 56.2626 69.857 56.6667C69.857 57.0708 69.6965 57.4583 69.4107 57.7441L65.2441 61.9107C65.1667 61.9881 65.1053 62.08 65.0634 62.1811C65.0215 62.2822 65 62.3906 65 62.5C65 62.6094 65.0215 62.7178 65.0634 62.8189C65.1053 62.92 65.1667 63.0119 65.2441 63.0893C65.3214 63.1667 65.4133 63.228 65.5144 63.2699C65.6155 63.3118 65.7239 63.3334 65.8333 63.3334C65.9428 63.3334 66.0511 63.3118 66.1522 63.2699C66.2534 63.228 66.3452 63.1667 66.4226 63.0893L70.5893 58.9226C71.0952 58.4165 71.4164 57.755 71.5012 57.0444C71.5861 56.3338 71.4297 55.6153 71.0571 55.0043L71.5571 47.4964C71.5725 47.2663 71.6767 47.0512 71.8477 46.8965C72.0187 46.7418 72.2431 46.6596 72.4736 46.6673C72.704 46.675 72.9225 46.7719 73.0828 46.9376C73.2431 47.1034 73.3328 47.3249 73.3328 47.5555L73.3333 58.1366Z" fill="white"/>
</svg>
