<svg width="100" height="100" viewBox="0 0 100 100" fill="none" xmlns="http://www.w3.org/2000/svg">
<circle cx="50" cy="50" r="50" fill="#FE8C12"/>
<path d="M32.5 37.5C33.3241 37.5 34.1297 37.2556 34.8149 36.7978C35.5001 36.34 36.0341 35.6892 36.3495 34.9278C36.6649 34.1665 36.7474 33.3287 36.5866 32.5205C36.4258 31.7122 36.029 30.9698 35.4463 30.3871C34.8636 29.8043 34.1211 29.4075 33.3129 29.2467C32.5046 29.086 31.6668 29.1685 30.9055 29.4838C30.1441 29.7992 29.4934 30.3333 29.0355 31.0185C28.5777 31.7037 28.3333 32.5092 28.3333 33.3333C28.3346 34.438 28.774 35.4971 29.5551 36.2782C30.3362 37.0594 31.3953 37.4988 32.5 37.5ZM32.5 30.8333C32.9945 30.8333 33.4778 30.98 33.8889 31.2547C34.3 31.5294 34.6205 31.9198 34.8097 32.3766C34.9989 32.8334 35.0484 33.3361 34.952 33.8211C34.8555 34.306 34.6174 34.7515 34.2678 35.1011C33.9181 35.4507 33.4727 35.6888 32.9877 35.7853C32.5028 35.8818 32.0001 35.8323 31.5433 35.643C31.0865 35.4538 30.696 35.1334 30.4213 34.7223C30.1466 34.3111 30 33.8278 30 33.3333C30.0008 32.6705 30.2644 32.0351 30.7331 31.5664C31.2018 31.0977 31.8372 30.8341 32.5 30.8333ZM38.3333 30C38.3333 29.779 38.4211 29.567 38.5774 29.4107C38.7337 29.2545 38.9457 29.1667 39.1667 29.1667H55.8333C56.0543 29.1667 56.2663 29.2545 56.4226 29.4107C56.5789 29.567 56.6667 29.779 56.6667 30C56.6667 30.221 56.5789 30.433 56.4226 30.5893C56.2663 30.7455 56.0543 30.8333 55.8333 30.8333H39.1667C38.9457 30.8333 38.7337 30.7455 38.5774 30.5893C38.4211 30.433 38.3333 30.221 38.3333 30ZM38.3333 33.3333C38.3333 33.1123 38.4211 32.9004 38.5774 32.7441C38.7337 32.5878 38.9457 32.5 39.1667 32.5H55.8333C56.0543 32.5 56.2663 32.5878 56.4226 32.7441C56.5789 32.9004 56.6667 33.1123 56.6667 33.3333C56.6667 33.5543 56.5789 33.7663 56.4226 33.9226C56.2663 34.0789 56.0543 34.1667 55.8333 34.1667H39.1667C38.9457 34.1667 38.7337 34.0789 38.5774 33.9226C38.4211 33.7663 38.3333 33.5543 38.3333 33.3333ZM38.3333 36.6667C38.3333 36.4457 38.4211 36.2337 38.5774 36.0774C38.7337 35.9211 38.9457 35.8333 39.1667 35.8333H55.8333C56.0543 35.8333 56.2663 35.9211 56.4226 36.0774C56.5789 36.2337 56.6667 36.4457 56.6667 36.6667C56.6667 36.8877 56.5789 37.0996 56.4226 37.2559C56.2663 37.4122 56.0543 37.5 55.8333 37.5H39.1667C38.9457 37.5 38.7337 37.4122 38.5774 37.2559C38.4211 37.0996 38.3333 36.8877 38.3333 36.6667ZM47.5 50C47.5 50.221 47.4122 50.433 47.2559 50.5893C47.0996 50.7455 46.8877 50.8333 46.6667 50.8333H30C29.779 50.8333 29.567 50.7455 29.4107 50.5893C29.2545 50.433 29.1667 50.221 29.1667 50C29.1667 49.779 29.2545 49.567 29.4107 49.4107C29.567 49.2545 29.779 49.1667 30 49.1667H46.6667C46.8877 49.1667 47.0996 49.2545 47.2559 49.4107C47.4122 49.567 47.5 49.779 47.5 50ZM56.6667 40C56.6667 40.221 56.5789 40.433 56.4226 40.5893C56.2663 40.7455 56.0543 40.8333 55.8333 40.8333H30C29.779 40.8333 29.567 40.7455 29.4107 40.5893C29.2545 40.433 29.1667 40.221 29.1667 40C29.1667 39.779 29.2545 39.567 29.4107 39.4107C29.567 39.2545 29.779 39.1667 30 39.1667H55.8333C56.0543 39.1667 56.2663 39.2545 56.4226 39.4107C56.5789 39.567 56.6667 39.779 56.6667 40ZM56.6667 43.3333C56.6667 43.5543 56.5789 43.7663 56.4226 43.9226C56.2663 44.0789 56.0543 44.1667 55.8333 44.1667H30C29.779 44.1667 29.567 44.0789 29.4107 43.9226C29.2545 43.7663 29.1667 43.5543 29.1667 43.3333C29.1667 43.1123 29.2545 42.9004 29.4107 42.7441C29.567 42.5878 29.779 42.5 30 42.5H55.8333C56.0543 42.5 56.2663 42.5878 56.4226 42.7441C56.5789 42.9004 56.6667 43.1123 56.6667 43.3333ZM56.6667 46.6667C56.6667 46.8877 56.5789 47.0996 56.4226 47.2559C56.2663 47.4122 56.0543 47.5 55.8333 47.5H30C29.779 47.5 29.567 47.4122 29.4107 47.2559C29.2545 47.0996 29.1667 46.8877 29.1667 46.6667C29.1667 46.4457 29.2545 46.2337 29.4107 46.0774C29.567 45.9211 29.779 45.8333 30 45.8333H55.8333C56.0543 45.8333 56.2663 45.9211 56.4226 46.0774C56.5789 46.2337 56.6667 46.4457 56.6667 46.6667ZM44.1667 52.5H30C29.779 52.5 29.567 52.5878 29.4107 52.7441C29.2545 52.9004 29.1667 53.1123 29.1667 53.3333V65C29.1667 65.221 29.2545 65.433 29.4107 65.5893C29.567 65.7455 29.779 65.8333 30 65.8333H44.1667C44.3877 65.8333 44.5996 65.7455 44.7559 65.5893C44.9122 65.433 45 65.221 45 65V53.3333C45 53.1123 44.9122 52.9004 44.7559 52.7441C44.5996 52.5878 44.3877 52.5 44.1667 52.5ZM43.3333 64.1667H30.8333V54.1667H43.3333V64.1667ZM61.6667 55C60.5129 55 59.3851 55.3421 58.4258 55.9831C57.4666 56.6241 56.7189 57.5351 56.2774 58.601C55.8359 59.6669 55.7203 60.8398 55.9454 61.9714C56.1705 63.1029 56.7261 64.1423 57.5419 64.9581C58.3577 65.7739 59.3971 66.3295 60.5286 66.5546C61.6602 66.7797 62.8331 66.6641 63.899 66.2226C64.9649 65.7811 65.8759 65.0334 66.5169 64.0742C67.1579 63.1149 67.5 61.9871 67.5 60.8333C67.4983 59.2868 66.8831 57.804 65.7895 56.7105C64.6959 55.6169 63.2132 55.0017 61.6667 55ZM57.5 60.8333C57.5 60.1868 57.6507 59.5492 57.94 58.971C58.2293 58.3928 58.6493 57.89 59.1667 57.5023V64.1644C58.6493 63.7767 58.2293 63.2739 57.94 62.6957C57.6507 62.1175 57.5 61.4799 57.5 60.8333ZM60.8333 64.9167V56.751C61.3833 56.6392 61.9501 56.6392 62.5 56.751V64.9167C61.9501 65.0285 61.3833 65.0285 60.8333 64.9167ZM64.1667 64.1649V57.5023C64.6841 57.8899 65.1041 58.3928 65.3934 58.971C65.6827 59.5492 65.8333 60.1868 65.8333 60.8333C65.8333 61.4799 65.6827 62.1175 65.3934 62.6957C65.1041 63.2739 64.6841 63.7767 64.1667 64.1644V64.1649ZM75 59.1667C75 58.9457 74.9122 58.7337 74.7559 58.5774C74.5996 58.4211 74.3877 58.3333 74.1667 58.3333H72.3497C72.0884 57.2008 71.655 56.1151 71.0647 55.1139L73.0893 53.0893C73.1667 53.0119 73.228 52.92 73.2699 52.8189C73.3118 52.7178 73.3334 52.6094 73.3334 52.5C73.3334 52.3906 73.3118 52.2822 73.2699 52.1811C73.228 52.08 73.1667 51.9881 73.0893 51.9107L70.5893 49.4107C70.5119 49.3333 70.42 49.272 70.3189 49.2301C70.2178 49.1882 70.1094 49.1666 70 49.1666C69.8906 49.1666 69.7822 49.1882 69.6811 49.2301C69.58 49.272 69.4881 49.3333 69.4107 49.4107L67.3861 51.4353C66.3849 50.845 65.2992 50.4116 64.1667 50.1503V30C64.1667 29.779 64.0789 29.567 63.9226 29.4107C63.7663 29.2545 63.5543 29.1667 63.3333 29.1667H60.8333V25.8333C60.8333 25.6123 60.7455 25.4004 60.5893 25.2441C60.433 25.0878 60.221 25 60 25H25.8333C25.6123 25 25.4004 25.0878 25.2441 25.2441C25.0878 25.4004 25 25.6123 25 25.8333V68.3333C25 68.5543 25.0878 68.7663 25.2441 68.9226C25.4004 69.0789 25.6123 69.1667 25.8333 69.1667H29.1667V72.5C29.1667 72.721 29.2545 72.933 29.4107 73.0893C29.567 73.2455 29.779 73.3333 30 73.3333H59.1667V74.1667C59.1667 74.3877 59.2545 74.5996 59.4107 74.7559C59.567 74.9122 59.779 75 60 75H63.3333C63.5543 75 63.7663 74.9122 63.9226 74.7559C64.0789 74.5996 64.1667 74.3877 64.1667 74.1667V71.5164C65.2992 71.255 66.3849 70.8217 67.3861 70.2314L69.4107 72.2559C69.4881 72.3333 69.58 72.3947 69.6811 72.4366C69.7822 72.4785 69.8906 72.5 70 72.5C70.1094 72.5 70.2178 72.4785 70.3189 72.4366C70.42 72.3947 70.5119 72.3333 70.5893 72.2559L73.0893 69.7559C73.1667 69.6786 73.228 69.5867 73.2699 69.4856C73.3118 69.3845 73.3334 69.2761 73.3334 69.1667C73.3334 69.0572 73.3118 68.9489 73.2699 68.8478C73.228 68.7466 73.1667 68.6548 73.0893 68.5774L71.0647 66.5528C71.655 65.5516 72.0884 64.4658 72.3497 63.3333H74.1667C74.3877 63.3333 74.5996 63.2455 74.7559 63.0893C74.9122 62.933 75 62.721 75 62.5V59.1667ZM62.5 30.8333V46.6667H60.8333V30.8333H62.5ZM26.6667 26.6667H59.1667V50.1503C58.0342 50.4116 56.9484 50.845 55.9472 51.4353L53.9226 49.4107C53.8452 49.3333 53.7534 49.272 53.6522 49.2301C53.5511 49.1882 53.4428 49.1666 53.3333 49.1666C53.2239 49.1666 53.1155 49.1882 53.0144 49.2301C52.9133 49.272 52.8214 49.3333 52.7441 49.4107L50.2441 51.9107C50.1667 51.9881 50.1053 52.08 50.0634 52.1811C50.0215 52.2822 50 52.3906 50 52.5C50 52.6094 50.0215 52.7178 50.0634 52.8189C50.1053 52.92 50.1667 53.0119 50.2441 53.0893L52.2686 55.1139C51.6783 56.1151 51.245 57.2008 50.9836 58.3333H49.1667C48.9457 58.3333 48.7337 58.4211 48.5774 58.5774C48.4211 58.7337 48.3333 58.9457 48.3333 59.1667V62.5C48.3333 62.721 48.4211 62.933 48.5774 63.0893C48.7337 63.2455 48.9457 63.3333 49.1667 63.3333H50.9836C51.245 64.4658 51.6783 65.5516 52.2686 66.5528L51.3215 67.5H26.6667V26.6667ZM30.8333 69.1667H50C49.9999 69.2761 50.0213 69.3845 50.0632 69.4857C50.1051 69.5868 50.1666 69.6786 50.2441 69.7559L52.1548 71.6667H30.8333V69.1667ZM54.5119 71.6667L55.9472 70.2314C56.9484 70.8217 58.0342 71.255 59.1667 71.5164V71.6667H54.5119ZM73.3333 61.6667H71.6667C71.4694 61.6667 71.2786 61.7366 71.1281 61.8641C70.9776 61.9916 70.8772 62.1683 70.8447 62.3628C70.6157 63.7331 70.0946 65.0382 69.3169 66.1894C69.2047 66.3498 69.1527 66.5447 69.1698 66.7397C69.1869 66.9347 69.2722 67.1175 69.4106 67.2559L71.3216 69.1667L70 70.4882L68.0893 68.5774C67.9508 68.439 67.7681 68.3537 67.573 68.3366C67.378 68.3194 67.1832 68.3715 67.0227 68.4836C65.8715 69.2614 64.5665 69.7825 63.1961 70.0115C63.0016 70.0439 62.8249 70.1443 62.6974 70.2948C62.57 70.4453 62.5 70.6361 62.5 70.8333V73.3333H60.8333V70.8333C60.8333 70.6361 60.7634 70.4453 60.6359 70.2948C60.5084 70.1442 60.3317 70.0438 60.1372 70.0114C58.7669 69.7824 57.4618 69.2613 56.3106 68.4835C56.1502 68.3714 55.9553 68.3193 55.7603 68.3365C55.5653 68.3536 55.3825 68.4389 55.2441 68.5773L53.3333 70.4882L52.0118 69.1667L53.9226 67.2559C54.061 67.1175 54.1463 66.9347 54.1634 66.7397C54.1806 66.5447 54.1285 66.3498 54.0164 66.1894C53.2386 65.0382 52.7175 63.7331 52.4885 62.3628C52.4561 62.1683 52.3557 61.9916 52.2052 61.8641C52.0547 61.7366 51.8639 61.6667 51.6667 61.6667H50V60H51.6667C51.8639 60 52.0547 59.93 52.2052 59.8026C52.3558 59.6751 52.4562 59.4984 52.4886 59.3039C52.7176 57.9335 53.2387 56.6285 54.0165 55.4773C54.1286 55.3168 54.1807 55.122 54.1635 54.927C54.1464 54.7319 54.0611 54.5492 53.9227 54.4107L52.0118 52.5L53.3333 51.1784L55.2441 53.0893C55.3825 53.2277 55.5653 53.313 55.7603 53.3301C55.9553 53.3472 56.1502 53.2952 56.3106 53.183C57.4618 52.4053 58.7669 51.8842 60.1372 51.6552C60.3317 51.6227 60.5084 51.5223 60.6359 51.3719C60.7633 51.2214 60.8333 51.0305 60.8333 50.8333V48.3333H62.5V50.8333C62.5 51.0306 62.57 51.2214 62.6974 51.3719C62.8249 51.5224 63.0016 51.6228 63.1961 51.6553C64.5665 51.8843 65.8715 52.4054 67.0227 53.1831C67.1832 53.2953 67.378 53.3473 67.573 53.3302C67.7681 53.3131 67.9508 53.2278 68.0893 53.0894L70 51.1784L71.3216 52.5L69.4107 54.4107C69.2723 54.5492 69.187 54.7319 69.1699 54.927C69.1528 55.122 69.2048 55.3168 69.317 55.4773C70.0947 56.6285 70.6158 57.9335 70.8448 59.3039C70.8773 59.4984 70.9777 59.6751 71.1281 59.8026C71.2786 59.93 71.4695 60 71.6667 60H73.3333V61.6667Z" fill="white"/>
</svg>
