<svg width="100" height="100" viewBox="0 0 100 100" fill="none" xmlns="http://www.w3.org/2000/svg">
<circle cx="50" cy="50" r="50" fill="#FE8C12"/>
<path d="M35 59.1666C35 59.3314 34.9512 59.4926 34.8596 59.6296C34.768 59.7666 34.6379 59.8735 34.4856 59.9365C34.3333 59.9996 34.1658 60.0161 34.0041 59.984C33.8425 59.9518 33.694 59.8724 33.5774 59.7559C33.4609 59.6393 33.3815 59.4909 33.3494 59.3292C33.3172 59.1676 33.3337 59 33.3968 58.8477C33.4599 58.6955 33.5667 58.5653 33.7037 58.4737C33.8408 58.3822 34.0019 58.3333 34.1667 58.3333C34.3877 58.3333 34.5997 58.4211 34.756 58.5774C34.9122 58.7337 35 58.9456 35 59.1666ZM65 60C65.1648 60 65.3259 59.9511 65.463 59.8595C65.6 59.768 65.7068 59.6378 65.7699 59.4855C65.833 59.3333 65.8495 59.1657 65.8173 59.0041C65.7852 58.8424 65.7058 58.6939 65.5893 58.5774C65.4727 58.4608 65.3242 58.3815 65.1626 58.3493C65.0009 58.3172 64.8334 58.3337 64.6811 58.3967C64.5288 58.4598 64.3987 58.5666 64.3071 58.7037C64.2155 58.8407 64.1667 59.0018 64.1667 59.1666C64.1667 59.3876 64.2545 59.5996 64.4108 59.7559C64.567 59.9122 64.779 60 65 60ZM48.3334 59.1666C48.3334 59.0018 48.2845 58.8407 48.1929 58.7037C48.1014 58.5666 47.9712 58.4598 47.8189 58.3967C47.6667 58.3337 47.4991 58.3172 47.3375 58.3493C47.1758 58.3815 47.0273 58.4608 46.9108 58.5774C46.7942 58.6939 46.7149 58.8424 46.6827 59.0041C46.6506 59.1657 46.6671 59.3333 46.7301 59.4855C46.7932 59.6378 46.9 59.768 47.0371 59.8595C47.1741 59.9511 47.3352 60 47.5 60C47.721 60 47.933 59.9122 48.0893 59.7559C48.2456 59.5996 48.3334 59.3876 48.3334 59.1666ZM52.5 58.3333C52.3352 58.3333 52.1741 58.3822 52.037 58.4737C51.9 58.5653 51.7932 58.6955 51.7301 58.8477C51.6671 59 51.6505 59.1676 51.6827 59.3292C51.7149 59.4909 51.7942 59.6393 51.9108 59.7559C52.0273 59.8724 52.1758 59.9518 52.3374 59.984C52.4991 60.0161 52.6667 59.9996 52.8189 59.9365C52.9712 59.8735 53.1013 59.7666 53.1929 59.6296C53.2845 59.4926 53.3334 59.3314 53.3334 59.1666C53.3334 58.9456 53.2456 58.7337 53.0893 58.5774C52.933 58.4211 52.721 58.3333 52.5 58.3333ZM75 54.158V74.1666C75 74.3876 74.9122 74.5996 74.7559 74.7559C74.5996 74.9122 74.3877 75 74.1667 75H63.3333C63.1123 75 62.9004 74.9122 62.7441 74.7559C62.5878 74.5996 62.5 74.3876 62.5 74.1666V71.6666C62.5 71.5021 62.5488 71.3412 62.64 71.2043L64.1667 68.9143V66.8819C63.5696 66.6161 63.0385 66.2219 62.6112 65.7275C62.0294 65.0285 61.6844 64.163 61.6259 63.2555C61.4489 63.2323 61.2555 63.2027 61.0614 63.1653C60.5851 63.0735 59.1357 62.7941 59.1357 61.6666C59.1357 61.161 59.4463 60.5218 60.092 59.2389C60.6128 58.2048 61.2556 56.9259 61.6667 55.6973V54.1666C61.6679 53.0619 62.1072 52.0028 62.8884 51.2217C63.6695 50.4405 64.7286 50.0012 65.8333 50H67.5V35H64.1667V45.8333C64.1667 46.0543 64.0789 46.2663 63.9226 46.4226C63.7663 46.5788 63.5544 46.6666 63.3333 46.6666H50.8334V50H55C55.1095 50 55.2178 50.0215 55.3189 50.0634C55.42 50.1053 55.5119 50.1667 55.5893 50.244L57.256 51.9107C57.3333 51.9881 57.3947 52.08 57.4366 52.1811C57.4785 52.2822 57.5 52.3905 57.5 52.5V60.8333C57.4996 62.0487 57.2036 63.2457 56.6377 64.3213C56.0718 65.3968 55.2528 66.3187 54.2514 67.0074L54.3301 67.4014L60.3385 70.0717C60.4858 70.1372 60.6109 70.244 60.6988 70.3792C60.7866 70.5143 60.8334 70.6721 60.8333 70.8333V74.1666C60.8333 74.3876 60.7456 74.5996 60.5893 74.7559C60.433 74.9122 60.221 75 60 75H39.1667C38.9457 75 38.7337 74.9122 38.5774 74.7559C38.4212 74.5996 38.3334 74.3876 38.3334 74.1666V70.8333C38.3334 70.6667 38.3833 70.504 38.4766 70.3661C38.57 70.2282 38.7026 70.1214 38.8572 70.0595L45.6844 67.3287L45.7487 67.0074C44.7472 66.3187 43.9283 65.3968 43.3623 64.3213C42.7964 63.2457 42.5005 62.0487 42.5 60.8333V52.5C42.5 52.3905 42.5216 52.2822 42.5635 52.1811C42.6053 52.08 42.6667 51.9881 42.7441 51.9107L44.4108 50.244C44.4881 50.1667 44.58 50.1053 44.6811 50.0634C44.7822 50.0215 44.8906 50 45 50H49.1667V46.6666H36.6667C36.4457 46.6666 36.2337 46.5788 36.0774 46.4226C35.9212 46.2663 35.8334 46.0543 35.8334 45.8333V35H32.5V50H40.8334C40.9842 50 41.1322 50.0409 41.2616 50.1184C41.391 50.1959 41.4969 50.3071 41.5681 50.4401C41.6393 50.5731 41.673 50.7229 41.6657 50.8736C41.6584 51.0242 41.6104 51.1701 41.5267 51.2956L38.2317 56.2381C38.2535 56.2951 38.2743 56.3527 38.2931 56.4106C38.7191 57.7302 39.4094 58.8382 39.9641 59.7285C40.4876 60.5686 40.8334 61.1237 40.8334 61.6666C40.8334 62.7941 39.384 63.0735 38.9077 63.1653C38.7136 63.2027 38.5205 63.2323 38.3432 63.2555C38.2847 64.163 37.9398 65.0285 37.358 65.7275C36.9383 66.2134 36.4181 66.6024 35.8334 66.8676V68.1979L36.624 70.5695C36.6523 70.6546 36.6667 70.7436 36.6667 70.8333V74.1666C36.6667 74.3876 36.5789 74.5996 36.4226 74.7559C36.2663 74.9122 36.0544 75 35.8334 75H25.8334C25.6124 75 25.4004 74.9122 25.2441 74.7559C25.0878 74.5996 25 74.3876 25 74.1666V72.5C25 72.3905 25.0216 72.2822 25.0635 72.181C25.1053 72.0799 25.1667 71.9881 25.2441 71.9107L29.1667 67.9882V66.6209C28.1198 65.9782 27.2849 64.9895 26.6943 63.6748C26.198 62.5348 25.9072 61.3161 25.8356 60.0749L25.0084 54.2846C25.0024 54.2426 24.9996 54.2003 25 54.158C25.0152 52.7198 25.731 50 28.3334 50H30.8334V34.1667C30.8334 33.9456 30.9212 33.7337 31.0775 33.5774C31.2337 33.4211 31.4457 33.3333 31.6667 33.3333H35.8334V30H35C34.779 30 34.5671 29.9122 34.4108 29.7559C34.2545 29.5996 34.1667 29.3877 34.1667 29.1667V25.8333C34.1667 25.6123 34.2545 25.4004 34.4108 25.2441C34.5671 25.0878 34.779 25 35 25H65C65.221 25 65.433 25.0878 65.5893 25.2441C65.7455 25.4004 65.8333 25.6123 65.8333 25.8333V29.1667C65.8333 29.3877 65.7455 29.5996 65.5893 29.7559C65.433 29.9122 65.221 30 65 30H64.1667V33.3333H68.3333C68.5544 33.3333 68.7663 33.4211 68.9226 33.5774C69.0789 33.7337 69.1667 33.9456 69.1667 34.1667V50H71.6667C74.2691 50 74.9849 52.7198 75 54.158ZM35 73.3333V71.3828L30.1904 69.3215L26.6667 72.8451V73.3333H35ZM34.1667 68.3333V67.3688C33.6158 67.4588 33.0583 67.5027 32.5 67.5C31.9389 67.5029 31.3794 67.4388 30.8334 67.309V67.7838L34.4559 69.3359L34.2094 68.5963C34.1812 68.5115 34.1668 68.4227 34.1667 68.3333ZM36.707 56.9227C36.6781 56.8346 36.6422 56.7489 36.5995 56.6666H32.1385L29.8813 60.4287C29.8073 60.5521 29.7025 60.6542 29.5773 60.7251C29.4521 60.796 29.3106 60.8333 29.1667 60.8333H27.585C27.8323 62.4617 28.7917 65.8333 32.5 65.8333C33.9161 65.8333 34.9858 65.5594 35.6923 65.0198C34.7643 64.9827 33.3738 64.7874 32.0887 64.058C31.8965 63.9489 31.7555 63.7678 31.6968 63.5548C31.638 63.3417 31.6663 63.114 31.7755 62.9218C31.8846 62.7296 32.0656 62.5887 32.2787 62.5299C32.4917 62.4712 32.7194 62.4995 32.9116 62.6086C34.5667 63.5481 36.5526 63.3408 36.573 63.3386C36.6024 63.3354 36.6321 63.3338 36.6617 63.3337C36.6973 63.102 36.7026 62.8667 36.6777 62.6336C36.659 62.518 36.6648 62.3998 36.6947 62.2866C36.7247 62.1735 36.7782 62.0679 36.8517 61.9767C36.9252 61.8856 37.0171 61.811 37.1214 61.7578C37.2257 61.7045 37.34 61.6739 37.4569 61.6678C37.9911 61.6417 38.521 61.5596 39.0381 61.423C38.9112 61.19 38.7173 60.8787 38.5497 60.6098C37.9784 59.693 37.1962 58.4375 36.707 56.9227ZM39.2763 51.6666H28.3334C26.8438 51.6666 26.6852 53.7353 26.6686 54.12L27.3894 59.1666H28.6949L30.9521 55.4046C31.0262 55.2812 31.1309 55.179 31.2561 55.1081C31.3813 55.0372 31.5228 55 31.6667 55H37.0541L39.2763 51.6666ZM49.1667 68.2859C48.5221 68.2142 47.8896 68.0585 47.2853 67.8227L46.8959 69.7708L49.1667 69.3165V68.2859ZM40 73.3333H49.1667V71.0164L45.9968 71.6505C45.8623 71.6774 45.7232 71.6707 45.5919 71.6309C45.4605 71.5912 45.3411 71.5196 45.2441 71.4226C45.147 71.3256 45.0755 71.2061 45.0357 71.0748C44.996 70.9435 44.9893 70.8044 45.0162 70.6698L45.2942 69.2797L40 71.3974V73.3333ZM54.7305 69.4032L54.9839 70.6698C55.0108 70.8044 55.0041 70.9435 54.9643 71.0748C54.9246 71.2061 54.853 71.3256 54.756 71.4226C54.659 71.5196 54.5395 71.5912 54.4082 71.6309C54.2769 71.6707 54.1378 71.6774 54.0032 71.6505L50.8334 71.0164V73.3333H59.1667V71.375L54.7305 69.4032ZM52.7147 67.8229C52.1105 68.0586 51.478 68.2143 50.8334 68.2859V69.3171L53.1042 69.7714L52.7147 67.8229ZM55.8301 60.9593L54.3994 56.6666H45.6007L44.1699 60.9591C44.2028 62.4836 44.8315 63.9346 45.9212 65.0011C47.011 66.0677 48.4752 66.6649 50 66.6649C51.5249 66.6649 52.989 66.0677 54.0788 65.0011C55.1686 63.9346 55.7973 62.4836 55.8301 60.9591V60.9593ZM54.6549 51.6666H45.3451L44.1667 52.8451V55.6979L44.2094 55.5696C44.2648 55.4037 44.3709 55.2594 44.5128 55.1572C44.6547 55.0549 44.8251 54.9999 45 55H55C55.1749 55 55.3454 55.055 55.4873 55.1572C55.6292 55.2595 55.7353 55.4038 55.7906 55.5698L55.8334 55.6979V52.8451L54.6549 51.6666ZM35.8334 28.3333H64.1667V26.6667H35.8334V28.3333ZM37.5 30V43.233L39.2792 40.7422C39.1058 40.1855 39.1326 39.5857 39.3548 39.0466C39.5771 38.5076 39.9808 38.0632 40.4961 37.7904C41.0115 37.5177 41.606 37.4337 42.1767 37.5531C42.7474 37.6725 43.2584 37.9876 43.6213 38.444L47.0249 37.5931L48.711 35.4856C48.5258 35.1875 48.4054 34.8538 48.3578 34.5061C48.3101 34.1584 48.3362 33.8046 48.4344 33.4677C48.5325 33.1308 48.7005 32.8183 48.9275 32.5506C49.1544 32.2829 49.4351 32.066 49.7515 31.914C50.0678 31.762 50.4125 31.6784 50.7633 31.6685C51.1141 31.6585 51.4631 31.7226 51.7874 31.8565C52.1118 31.9904 52.4044 32.1911 52.646 32.4455C52.8877 32.7 53.0731 33.0025 53.1901 33.3333H56.389L60.8333 30H37.5ZM50.8334 35C50.9982 35 51.1593 34.9511 51.2963 34.8595C51.4334 34.768 51.5402 34.6378 51.6033 34.4856C51.6663 34.3333 51.6828 34.1657 51.6507 34.0041C51.6185 33.8424 51.5392 33.6939 51.4226 33.5774C51.3061 33.4609 51.1576 33.3815 50.9959 33.3493C50.8343 33.3172 50.6667 33.3337 50.5145 33.3968C50.3622 33.4598 50.232 33.5666 50.1405 33.7037C50.0489 33.8407 50 34.0018 50 34.1667C50.0003 34.3876 50.0881 34.5994 50.2444 34.7556C50.4006 34.9119 50.6124 34.9997 50.8334 35ZM41.6667 40.8333C41.8315 40.8333 41.9926 40.7844 42.1297 40.6929C42.2667 40.6013 42.3735 40.4712 42.4366 40.3189C42.4997 40.1666 42.5162 39.9991 42.484 39.8374C42.4519 39.6758 42.3725 39.5273 42.256 39.4107C42.1394 39.2942 41.9909 39.2148 41.8293 39.1827C41.6676 39.1505 41.5001 39.167 41.3478 39.2301C41.1955 39.2932 41.0654 39.4 40.9738 39.537C40.8822 39.6741 40.8334 39.8352 40.8334 40C40.8336 40.2209 40.9215 40.4327 41.0777 40.589C41.2339 40.7452 41.4458 40.8331 41.6667 40.8333ZM38.286 45H42.5V42.5C42.5002 42.4503 42.5049 42.4008 42.5139 42.352C42.1581 42.4803 41.7779 42.5261 41.4019 42.4858C41.0258 42.4455 40.6639 42.3203 40.3434 42.1196L38.286 45ZM45.8334 45V43.3333H44.1667V45H45.8334ZM52.5 45V40.8333H50.8334V45H52.5ZM59.1667 45V38.3333H57.5V45H59.1667ZM62.5 45V30.8333L57.1667 34.8333C57.0224 34.9415 56.847 35 56.6667 35H53.19C52.9701 35.6232 52.5121 36.1338 51.9165 36.4201C51.3208 36.7064 50.636 36.745 50.012 36.5274L48.1508 38.8542C48.0368 38.9967 47.8791 39.0978 47.7021 39.1421L44.1661 40.0261C44.1603 40.6324 43.9334 41.2157 43.5281 41.6666H46.6667C46.8877 41.6666 47.0997 41.7544 47.2559 41.9107C47.4122 42.067 47.5 42.279 47.5 42.5V45H49.1667V40C49.1667 39.779 49.2545 39.567 49.4108 39.4107C49.567 39.2544 49.779 39.1667 50 39.1667H53.3334C53.5544 39.1667 53.7663 39.2544 53.9226 39.4107C54.0789 39.567 54.1667 39.779 54.1667 40V45H55.8334V37.5C55.8334 37.279 55.9211 37.067 56.0774 36.9107C56.2337 36.7545 56.4457 36.6667 56.6667 36.6667H60C60.221 36.6667 60.433 36.7545 60.5893 36.9107C60.7456 37.067 60.8333 37.279 60.8333 37.5V45H62.5ZM63.3333 55H68.3333C68.5384 55 68.7363 55.0756 68.8891 55.2123C69.0419 55.3491 69.1389 55.5374 69.1616 55.7412L70.7458 70H73.3333V54.1736C73.3303 54.0238 73.2563 51.6666 71.6667 51.6666H65.8333C65.1705 51.6674 64.5351 51.931 64.0664 52.3997C63.5977 52.8683 63.3341 53.5038 63.3333 54.1666V55ZM63.1177 61.977C63.1911 62.0681 63.2445 62.1736 63.2745 62.2867C63.3045 62.3997 63.3103 62.5178 63.2917 62.6333C63.2529 63.039 63.2993 63.4484 63.4279 63.8352L63.5623 63.3651L63.5525 63.3623C63.8512 63.4312 64.1633 63.415 64.4533 63.3156C64.7433 63.2162 64.9996 63.0375 65.1931 62.7998C65.335 62.6314 65.5378 62.526 65.7572 62.5067C65.9765 62.4874 66.1946 62.5556 66.3638 62.6966C66.5329 62.8375 66.6395 63.0397 66.66 63.259C66.6806 63.4782 66.6135 63.6967 66.4735 63.8666C66.2077 64.1957 65.8794 64.469 65.5076 64.6709C65.1357 64.8728 64.7277 64.9992 64.3069 65.043C65.0137 65.5676 66.0734 65.8333 67.4688 65.8333C67.8466 65.8349 68.2236 65.7973 68.5938 65.7211L67.5875 56.6666H63.0925C62.6527 57.8578 62.0657 59.0245 61.5806 59.9883C61.3353 60.4755 61.0458 61.0508 60.8971 61.4126C61.4248 61.5564 61.9666 61.6419 62.5129 61.6678C62.6298 61.674 62.7441 61.7047 62.8483 61.758C62.9525 61.8113 63.0443 61.8859 63.1177 61.977ZM65.8333 67.3743V69.1666C65.8333 69.3312 65.7846 69.492 65.6933 69.6289L64.804 70.9631L68.9772 69.1744L68.7782 67.3828C68.3462 67.4616 67.9079 67.5008 67.4688 67.5C66.9211 67.5025 66.3742 67.4605 65.8333 67.3743ZM73.3333 73.3333V71.6666H70C69.7949 71.6666 69.5971 71.591 69.4443 71.4542C69.2915 71.3175 69.1944 71.1292 69.1718 70.9254L69.1696 70.9054L64.1667 73.0494V73.3333H73.3333ZM47.0378 64.0267C47.9144 64.6134 48.9453 64.9265 50.0001 64.9265C51.0548 64.9265 52.0858 64.6134 52.9623 64.0267C53.0545 63.9666 53.1339 63.8887 53.1959 63.7976C53.2578 63.7066 53.3011 63.6042 53.3233 63.4963C53.3454 63.3884 53.3459 63.2772 53.3248 63.1691C53.3037 63.061 53.2614 62.9582 53.2003 62.8666C53.1392 62.7749 53.0606 62.6963 52.9689 62.6353C52.8772 62.5742 52.7744 62.5319 52.6663 62.5109C52.5582 62.4898 52.447 62.4904 52.3391 62.5126C52.2313 62.5347 52.1289 62.5781 52.0378 62.6401C51.4348 63.0436 50.7256 63.259 50.0001 63.259C49.2745 63.259 48.5653 63.0436 47.9623 62.6401C47.7784 62.5201 47.5546 62.4775 47.3395 62.5216C47.1244 62.5658 46.9354 62.693 46.8136 62.8757C46.6918 63.0584 46.647 63.2818 46.689 63.4973C46.731 63.7129 46.8563 63.9031 47.0378 64.0267Z" fill="white"/>
</svg>
