<svg width="16" height="16" viewBox="0 0 16 16" fill="none" xmlns="http://www.w3.org/2000/svg">
<path d="M15.8625 6.54575L13.888 4.57116V0.46875C13.888 0.209875 13.6781 0 13.4192 0H2.58064C2.32177 0 2.11189 0.209875 2.11189 0.46875V4.57116C-0.047229 6.73035 8.34021e-05 6.61832 8.34021e-05 6.87719V15.5313C8.34021e-05 15.7901 0.209958 16 0.468833 16H15.5311C15.7899 16 15.9998 15.7901 15.9998 15.5313C15.9998 15.4684 16.0009 6.87175 15.9979 6.83697C15.9881 6.72241 15.9363 6.6196 15.8625 6.54575ZM14.8067 6.81572L13.888 7.46622V5.89697L14.8067 6.81572ZM12.9505 0.9375V8.12997L9.70342 10.429C8.7722 11.0883 7.51086 11.1029 6.56605 10.4639C6.44651 10.3824 3.26677 8.21619 3.04939 8.0681V0.9375H12.9505ZM2.11193 7.42941L1.20046 6.80847L2.11193 5.897V7.42941ZM15.0623 15.0625H0.937551V7.76372C1.11693 7.88594 5.11617 10.6105 5.31245 10.7442L2.74999 13.3067C2.56692 13.4898 2.56692 13.7866 2.74999 13.9696C2.93305 14.1527 3.22983 14.1527 3.41289 13.9696L6.1022 11.2803C7.29117 12.0504 8.86273 12.0927 10.1161 11.2813L12.8044 13.9696C12.9874 14.1527 13.2842 14.1527 13.4673 13.9696C13.6504 13.7866 13.6504 13.4898 13.4673 13.3067L10.8948 10.7342C11.0467 10.6266 14.8649 7.92319 15.0623 7.78344V15.0625Z" fill="#FF7210"/>
<path d="M4.76758 3.125H11.2312C11.4901 3.125 11.6999 2.91513 11.6999 2.65625C11.6999 2.39738 11.4901 2.1875 11.2312 2.1875H4.76758C4.5087 2.1875 4.29883 2.39738 4.29883 2.65625C4.29883 2.91513 4.5087 3.125 4.76758 3.125Z" fill="#FF7210"/>
<path d="M4.76758 5.3125H11.2312C11.4901 5.3125 11.6999 5.10263 11.6999 4.84375C11.6999 4.58488 11.4901 4.375 11.2312 4.375H4.76758C4.5087 4.375 4.29883 4.58488 4.29883 4.84375C4.29883 5.10263 4.5087 5.3125 4.76758 5.3125Z" fill="#FF7210"/>
<path d="M4.76758 7.5H11.2312C11.4901 7.5 11.6999 7.29013 11.6999 7.03125C11.6999 6.77238 11.4901 6.5625 11.2312 6.5625H4.76758C4.5087 6.5625 4.29883 6.77238 4.29883 7.03125C4.29883 7.29013 4.5087 7.5 4.76758 7.5Z" fill="#FF7210"/>
</svg>
