<svg width="55" height="56" viewBox="0 0 55 56" fill="none" xmlns="http://www.w3.org/2000/svg">
<path d="M25.376 20.4229L26.499 21.5459L21.2012 26.8438H36.875V28.4062H21.2012L26.499 33.7041L25.376 34.8271L18.7354 28.1865L18.1982 27.625L18.7354 27.0635L25.376 20.4229Z" fill="#FE8C12"/>
<path d="M1.5 27.5V28.5H-1.5V27.5H1.5ZM53.5 28.5V27.5H56.5V28.5H53.5ZM27.5 54.5C41.8594 54.5 53.5 42.8594 53.5 28.5H56.5C56.5 44.5163 43.5163 57.5 27.5 57.5V54.5ZM1.5 28.5C1.5 42.8594 13.1406 54.5 27.5 54.5V57.5C11.4837 57.5 -1.5 44.5163 -1.5 28.5H1.5ZM27.5 1.5C13.1406 1.5 1.5 13.1406 1.5 27.5H-1.5C-1.5 11.4837 11.4837 -1.5 27.5 -1.5V1.5ZM27.5 -1.5C43.5163 -1.5 56.5 11.4837 56.5 27.5H53.5C53.5 13.1406 41.8594 1.5 27.5 1.5V-1.5Z" fill="#FE8C12"/>
</svg>
