<svg width="14" height="16" viewBox="0 0 14 16" fill="none" xmlns="http://www.w3.org/2000/svg">
<path fill-rule="evenodd" clip-rule="evenodd" d="M0.501048 0.0407414C0.320874 0.107474 0.168213 0.246875 0.0788261 0.426309L0 0.584555V7.78772V14.9909L0.0788261 15.1491C0.173783 15.3397 0.326322 15.4721 0.528196 15.5392C0.748483 15.6124 0.957691 15.5814 1.22603 15.4359C1.34683 15.3704 4.19163 13.7721 7.54783 11.8841C11.3509 9.74475 13.6932 8.40989 13.7646 8.34121C13.9311 8.18117 14 8.01921 14 7.78772C14 7.55623 13.9311 7.39427 13.7646 7.23422C13.6932 7.16554 11.3509 5.83068 7.54783 3.69132C4.19163 1.80333 1.34552 0.204315 1.22311 0.137948C0.963231 -0.00297562 0.710835 -0.0369507 0.501048 0.0407414Z" fill="#0A0A0B"/>
</svg>
