<svg width="102" height="17" viewBox="0 0 102 17" fill="none" xmlns="http://www.w3.org/2000/svg">
<path d="M10.8281 0.375C9.69141 0.375 8.83008 0.679688 8.24414 1.28906C7.62305 1.93359 7.3125 2.90625 7.3125 4.20703V6.5625H4.5V9.375H7.3125V16.125H10.125V9.375H12.375L12.9375 6.5625H10.125V4.68164C10.125 4.16602 10.2188 3.79102 10.4062 3.55664C10.6055 3.31055 10.9336 3.1875 11.3906 3.1875H12.9375V0.498047C12.3633 0.416016 11.6602 0.375 10.8281 0.375Z" fill="white"/>
<path d="M43.75 4.06641C43.2461 4.28906 42.7188 4.43555 42.168 4.50586C42.4492 4.33008 42.6953 4.11328 42.9062 3.85547C43.1172 3.58594 43.2754 3.28711 43.3809 2.95898C42.8301 3.28711 42.2441 3.51562 41.623 3.64453C41.3652 3.36328 41.0605 3.14648 40.709 2.99414C40.3574 2.8418 39.9883 2.76562 39.6016 2.76562C39.0977 2.76562 38.6348 2.88867 38.2129 3.13477C37.791 3.38086 37.4512 3.7207 37.1934 4.1543C36.9473 4.57617 36.8242 5.0332 36.8242 5.52539C36.8242 5.74805 36.8477 5.95898 36.8945 6.1582C35.7695 6.11133 34.7031 5.82422 33.6953 5.29688C32.7227 4.80469 31.8848 4.13086 31.1816 3.27539C30.9355 3.69727 30.8125 4.16016 30.8125 4.66406C30.8125 5.13281 30.9238 5.57227 31.1465 5.98242C31.3691 6.39258 31.668 6.7207 32.043 6.9668C31.5977 6.95508 31.1816 6.83789 30.7949 6.61523V6.65039C30.7949 7.31836 31.0059 7.91016 31.4277 8.42578C31.8496 8.92969 32.377 9.24609 33.0098 9.375C32.7754 9.43359 32.5352 9.46289 32.2891 9.46289C32.1133 9.46289 31.9375 9.45117 31.7617 9.42773C31.9375 9.97852 32.2598 10.4355 32.7285 10.7988C33.209 11.1504 33.748 11.332 34.3457 11.3438C33.8652 11.7188 33.332 12.0117 32.7461 12.2227C32.1602 12.4336 31.5508 12.5391 30.918 12.5391C30.6953 12.5273 30.4727 12.5098 30.25 12.4863C30.8711 12.8848 31.5391 13.1895 32.2539 13.4004C32.9805 13.623 33.7246 13.7344 34.4863 13.7344C35.7168 13.7344 36.8477 13.4941 37.8789 13.0137C38.8164 12.5801 39.6367 11.9648 40.3398 11.168C40.9961 10.4297 41.5059 9.58594 41.8691 8.63672C42.209 7.71094 42.3789 6.78516 42.3789 5.85938L42.3613 5.49023C42.9121 5.10352 43.375 4.62891 43.75 4.06641Z" fill="white"/>
<path d="M60.8691 1.5C60.459 1.5 60.1074 1.64648 59.8145 1.93945C59.5215 2.2207 59.375 2.57227 59.375 2.99414C59.375 3.4043 59.5215 3.75586 59.8145 4.04883C60.1074 4.3418 60.4531 4.48828 60.8516 4.48828C61.2617 4.48828 61.6133 4.3418 61.9062 4.04883C62.1992 3.75586 62.3457 3.4043 62.3457 2.99414C62.3457 2.58398 62.1992 2.23242 61.9062 1.93945C61.625 1.64648 61.2793 1.5 60.8691 1.5ZM68.1113 5.4375C67.5371 5.4375 67.0391 5.57227 66.6172 5.8418C66.2773 6.06445 66.0078 6.36328 65.8086 6.73828H65.7734V5.61328H63.3125V13.875H65.8789V9.7793C65.8789 9.33398 65.9023 8.99414 65.9492 8.75977C66.0195 8.4082 66.1484 8.14453 66.3359 7.96875C66.5586 7.76953 66.875 7.66992 67.2852 7.66992C67.6953 7.66992 68.0059 7.78711 68.2168 8.02148C68.3926 8.20898 68.5098 8.49023 68.5684 8.86523C68.6035 9.08789 68.6211 9.41602 68.6211 9.84961V13.875H71.1875V9.33984C71.1875 8.50781 71.1113 7.83984 70.959 7.33594C70.7832 6.72656 70.4844 6.26367 70.0625 5.94727C69.5938 5.60742 68.9434 5.4375 68.1113 5.4375ZM59.5859 5.61328V13.875H62.1523V5.61328H59.5859Z" fill="white"/>
<path d="M90.4512 2.0625C89.7949 2.0625 89.1855 2.22656 88.623 2.55469C88.0723 2.88281 87.6328 3.32812 87.3047 3.89062C86.9766 4.44141 86.8125 5.04492 86.8125 5.70117V10.7988C86.8125 11.4551 86.9766 12.0645 87.3047 12.627C87.6328 13.1777 88.0723 13.6172 88.623 13.9453C89.1855 14.2734 89.7949 14.4375 90.4512 14.4375H95.5488C96.2051 14.4375 96.8086 14.2734 97.3594 13.9453C97.9219 13.6172 98.3672 13.1777 98.6953 12.627C99.0234 12.0645 99.1875 11.4551 99.1875 10.7988V5.70117C99.1875 5.04492 99.0234 4.44141 98.6953 3.89062C98.3672 3.32812 97.9219 2.88281 97.3594 2.55469C96.8086 2.22656 96.2051 2.0625 95.5488 2.0625H90.4512ZM90.4512 3.1875H95.5488C96.0059 3.1875 96.4277 3.29883 96.8145 3.52148C97.2012 3.74414 97.5059 4.04883 97.7285 4.43555C97.9512 4.82227 98.0625 5.24414 98.0625 5.70117V10.7988C98.0625 11.2559 97.9512 11.6777 97.7285 12.0645C97.5059 12.4512 97.2012 12.7559 96.8145 12.9785C96.4277 13.2012 96.0059 13.3125 95.5488 13.3125H90.4512C89.9941 13.3125 89.5723 13.2012 89.1855 12.9785C88.7988 12.7559 88.4941 12.4512 88.2715 12.0645C88.0488 11.6777 87.9375 11.2559 87.9375 10.7988V5.70117C87.9375 5.24414 88.0488 4.82227 88.2715 4.43555C88.4941 4.04883 88.7988 3.74414 89.1855 3.52148C89.5723 3.29883 89.9941 3.1875 90.4512 3.1875ZM96.3223 4.41797C96.1816 4.41797 96.0586 4.4707 95.9531 4.57617C95.8594 4.66992 95.8125 4.78711 95.8125 4.92773C95.8125 5.06836 95.8594 5.19141 95.9531 5.29688C96.0586 5.39063 96.1816 5.4375 96.3223 5.4375C96.4629 5.4375 96.5801 5.39063 96.6738 5.29688C96.7793 5.19141 96.832 5.06836 96.832 4.92773C96.832 4.78711 96.7793 4.66992 96.6738 4.57617C96.5801 4.4707 96.4629 4.41797 96.3223 4.41797ZM93 4.875C92.3906 4.875 91.8281 5.02734 91.3125 5.33203C90.7969 5.63672 90.3867 6.04688 90.082 6.5625C89.7773 7.07812 89.625 7.64062 89.625 8.25C89.625 8.85938 89.7773 9.42188 90.082 9.9375C90.3867 10.4531 90.7969 10.8633 91.3125 11.168C91.8281 11.4727 92.3906 11.625 93 11.625C93.6094 11.625 94.1719 11.4727 94.6875 11.168C95.2031 10.8633 95.6133 10.4531 95.918 9.9375C96.2227 9.42188 96.375 8.85938 96.375 8.25C96.375 7.64062 96.2227 7.07812 95.918 6.5625C95.6133 6.04688 95.2031 5.63672 94.6875 5.33203C94.1719 5.02734 93.6094 4.875 93 4.875ZM93 6C93.4102 6 93.7852 6.09961 94.125 6.29883C94.4766 6.49805 94.752 6.77344 94.9512 7.125C95.1504 7.46484 95.25 7.83984 95.25 8.25C95.25 8.66016 95.1504 9.04102 94.9512 9.39258C94.752 9.73242 94.4766 10.002 94.125 10.2012C93.7852 10.4004 93.4102 10.5 93 10.5C92.5898 10.5 92.209 10.4004 91.8574 10.2012C91.5176 10.002 91.248 9.73242 91.0488 9.39258C90.8496 9.04102 90.75 8.66016 90.75 8.25C90.75 7.83984 90.8496 7.46484 91.0488 7.125C91.248 6.77344 91.5176 6.49805 91.8574 6.29883C92.209 6.09961 92.5898 6 93 6Z" fill="white"/>
</svg>
